<?xml version="1.0" encoding="UTF-8" standalone="no"?><!DOCTYPE svg PUBLIC "-//W3C//DTD SVG 1.1//EN" "http://www.w3.org/Graphics/SVG/1.1/DTD/svg11.dtd"><svg width="100%" height="100%" viewBox="0 0 897 909" version="1.1" xmlns="http://www.w3.org/2000/svg" xmlns:xlink="http://www.w3.org/1999/xlink" xml:space="preserve" xmlns:serif="http://www.serif.com/" style="fill-rule:evenodd;clip-rule:evenodd;stroke-linecap:round;stroke-linejoin:round;stroke-miterlimit:1.5;"><path d="M748.956,512.636c0,186.524 -157.663,324.635 -358.853,324.635c-201.19,0 -358.853,-138.111 -358.853,-324.635" style="fill:none;stroke:#fff;stroke-width:62.5px;"/><path d="M390.103,31.25c2.928,67.226 -168.579,117.43 -34.145,240.675c47.722,43.75 47.619,113.996 34.145,132.726" style="fill:none;stroke:#fff;stroke-width:62.5px;"/><path d="M218.683,196.232c1.635,37.524 -94.094,65.545 -19.058,134.336c26.637,24.42 26.579,63.629 19.058,74.083" style="fill:none;stroke:#fff;stroke-width:62.5px;"/><path d="M550.795,120.697c2.227,51.123 -128.196,89.3 -25.966,183.022c36.291,33.27 36.212,86.689 25.966,100.932" style="fill:none;stroke:#fff;stroke-width:62.5px;"/><path d="M390.103,31.25c2.928,67.226 -168.579,117.43 -34.145,240.675c47.722,43.75 47.619,113.996 34.145,132.726" style="fill:none;stroke:#fff;stroke-width:62.5px;"/><path d="M31.25,512.636l717.706,0" style="fill:none;stroke:#fff;stroke-width:62.5px;"/><path d="M31.25,512.636l717.706,0" style="fill:none;stroke:#fff;stroke-width:62.5px;"/><path d="M31.25,876.935l717.706,0" style="fill:none;stroke:#fff;stroke-width:62.5px;"/><circle cx="795.436" cy="660.281" r="70.045" style="fill:none;stroke:#fff;stroke-width:62.5px;"/></svg>