<?xml version="1.0" encoding="UTF-8" standalone="no"?><!DOCTYPE svg PUBLIC "-//W3C//DTD SVG 1.1//EN" "http://www.w3.org/Graphics/SVG/1.1/DTD/svg11.dtd"><svg width="100%" height="100%" viewBox="0 0 897 909" version="1.1" xmlns="http://www.w3.org/2000/svg" xmlns:xlink="http://www.w3.org/1999/xlink" xml:space="preserve" xmlns:serif="http://www.serif.com/" style="fill-rule:evenodd;clip-rule:evenodd;stroke-linecap:round;stroke-linejoin:round;stroke-miterlimit:1.5;"><path d="M750.314,509.837c0,177.607 -150.126,309.116 -341.697,309.116c-191.572,0 -341.698,-131.509 -341.698,-309.116" style="fill:none;stroke:#000;stroke-width:62.5px;"/><path d="M245.392,208.56c1.556,35.729 -89.596,62.411 -18.147,127.914c25.363,23.252 25.308,60.586 18.147,70.541" style="fill:none;stroke:#000;stroke-width:62.5px;"/><path d="M561.626,136.636c2.12,48.679 -122.067,85.031 -24.724,174.272c34.556,31.679 34.481,82.545 24.724,96.107" style="fill:none;stroke:#000;stroke-width:62.5px;"/><path d="M408.617,51.465c2.788,64.012 -160.52,111.816 -32.513,229.169c45.441,41.658 45.342,108.547 32.513,126.381" style="fill:none;stroke:#000;stroke-width:62.5px;"/><path d="M66.919,509.837l683.395,0" style="fill:none;stroke:#000;stroke-width:62.5px;"/><path d="M66.919,856.72l683.395,0" style="fill:none;stroke:#000;stroke-width:62.5px;"/><circle cx="794.572" cy="650.424" r="66.696" style="fill:none;stroke:#000;stroke-width:62.5px;"/></svg>