<?xml version="1.0" standalone="no"?>
<!DOCTYPE svg PUBLIC "-//W3C//DTD SVG 20010904//EN"
 "http://www.w3.org/TR/2001/REC-SVG-20010904/DTD/svg10.dtd">
<svg version="1.0" xmlns="http://www.w3.org/2000/svg"
 width="2000.000000pt" height="2000.000000pt" viewBox="0 0 2000.000000 2000.000000"
 preserveAspectRatio="xMidYMid meet">
<metadata>
Created by potrace 1.13, written by Peter Selinger 2001-2015
</metadata>
<g transform="translate(0.000000,2000.000000) scale(0.100000,-0.100000)"
fill="#75b9ff" stroke="none">
<path d="M13320 18394 c-206 -44 -417 -230 -494 -435 -70 -186 -53 -402 45
-577 25 -44 255 -281 1026 -1053 l994 -995 -3545 -3545 c-3795 -3795 -3584
-3578 -3607 -3702 -11 -62 1 -139 33 -207 15 -34 184 -208 667 -693 355 -357
665 -662 688 -678 95 -66 221 -82 323 -39 50 21 368 336 3613 3579 l3557 3556
988 -987 c719 -719 1004 -997 1051 -1027 124 -79 295 -114 446 -91 158 24 271
83 395 209 98 99 160 208 185 327 22 104 22 5723 0 5829 -51 244 -262 462
-509 525 -79 20 -102 20 -2935 19 -2404 0 -2866 -3 -2921 -15z"/>
<path d="M3182 17018 c-436 -31 -878 -164 -1257 -378 -427 -242 -816 -608
-1100 -1035 -257 -387 -406 -790 -472 -1275 -17 -129 -18 -345 -18 -4920 0
-4538 1 -4791 18 -4910 103 -725 394 -1295 923 -1810 537 -523 1151 -809 1872
-870 90 -8 1527 -10 4877 -8 l4750 3 140 23 c669 110 1194 374 1684 847 540
521 847 1140 933 1875 10 92 13 494 13 2015 l0 1900 -26 55 c-31 65 -94 131
-153 160 -72 34 -192 42 -575 38 -339 -4 -359 -5 -412 -26 -76 -30 -142 -90
-176 -160 l-28 -57 -5 -1870 c-5 -1706 -7 -1879 -23 -1970 -65 -379 -220 -677
-494 -947 -272 -270 -558 -420 -923 -486 -89 -16 -401 -17 -4790 -17 -5006 0
-4725 -3 -4925 46 -291 72 -562 227 -789 453 -257 256 -420 558 -488 907 l-22
114 -4 4615 c-2 3349 0 4649 8 4740 27 299 113 548 269 782 264 395 638 654
1099 760 l97 23 3975 5 c3946 5 3975 5 4024 25 68 28 149 104 183 173 l28 57
0 440 0 440 -27 57 c-35 74 -103 141 -176 170 l-57 23 -3915 1 c-2153 1 -3970
-3 -4038 -8z"/>
</g>
</svg>
