<?xml version="1.0" encoding="UTF-8" standalone="no"?>
<!DOCTYPE svg PUBLIC "-//W3C//DTD SVG 1.1//EN" "http://www.w3.org/Graphics/SVG/1.1/DTD/svg11.dtd">
<svg width="100%" height="100%" viewBox="0 0 793 698" version="1.1" xmlns="http://www.w3.org/2000/svg" xmlns:xlink="http://www.w3.org/1999/xlink" xml:space="preserve" xmlns:serif="http://www.serif.com/" style="fill-rule:evenodd;clip-rule:evenodd;stroke-linecap:round;stroke-linejoin:round;stroke-miterlimit:1.5;">
    <g transform="matrix(1,0,0,1,-220.918,-256.504)">
        <path d="M793.394,605.457L793.394,323.673C793.394,313.69 788.006,304.484 779.301,299.596C770.597,294.707 759.932,294.897 751.408,300.092C652.34,360.47 409.095,508.718 365.881,535.055C361.552,537.694 356.58,539.089 351.51,539.089C334.678,539.089 294.088,539.089 266.533,539.089C251.281,539.089 238.918,551.453 238.918,566.704L238.918,644.209C238.918,659.46 251.281,671.824 266.533,671.824C294.088,671.824 334.678,671.824 351.51,671.824C356.58,671.824 361.552,673.22 365.881,675.858C409.095,702.196 652.34,850.443 751.408,910.821C759.932,916.016 770.597,916.206 779.301,911.318C788.006,906.429 793.394,897.223 793.394,887.24L793.394,605.457" style="fill:none;stroke:white;stroke-width:36px;"/>
    </g>
    <g transform="matrix(1,0,0,1,-220.918,-256.504)">
        <path d="M359.261,539.089L359.261,671.824" style="fill:none;stroke:white;stroke-width:36px;"/>
    </g>
    <g transform="matrix(1.48266,0,0,1.48266,359.024,-338.392)">
        <path d="M210.778,321.721C301.851,416.3 304.582,510.878 210.778,605.457" style="fill:none;stroke:white;stroke-width:24.28px;"/>
    </g>
    <g transform="matrix(1,0,0,1,426.092,-114.636)">
        <path d="M210.778,321.721C301.851,416.3 304.582,510.878 210.778,605.457" style="fill:none;stroke:white;stroke-width:36px;"/>
    </g>
</svg>
