<?xml version="1.0" encoding="utf-8"?>
<!-- Generator: Adobe Illustrator 19.1.0, SVG Export Plug-In . SVG Version: 6.00 Build 0)  -->
<svg version="1.1" id="Layer_1" xmlns="http://www.w3.org/2000/svg" xmlns:xlink="http://www.w3.org/1999/xlink" x="0px" y="0px"
	 viewBox="0 0 150 80" style="enable-background:new 0 0 150 80;" xml:space="preserve">
<style type="text/css">
	.st0{fill:#F06163;}
	.st1{fill:#FFFFFF;}
</style>
<g>
	<path d="M9.3,12.5v29.9H1.1V12.5H9.3z"/>
	<path d="M19.7,35c0.4,0.6,0.8,1.2,1.4,1.6c0.6,0.4,1.2,0.7,2,0.9c0.8,0.2,1.5,0.3,2.3,0.3c0.6,0,1.2-0.1,1.8-0.2
		c0.6-0.1,1.2-0.3,1.7-0.6c0.5-0.3,1-0.7,1.3-1.2c0.3-0.5,0.5-1.1,0.5-1.8c0-1.2-0.8-2.2-2.5-2.8c-1.6-0.6-3.9-1.2-6.9-1.9
		c-1.2-0.3-2.4-0.6-3.5-1c-1.1-0.4-2.1-0.8-3-1.4c-0.9-0.6-1.6-1.3-2.1-2.3c-0.5-0.9-0.8-2-0.8-3.3c0-1.9,0.4-3.5,1.1-4.7
		c0.8-1.2,1.7-2.2,3-2.9c1.2-0.7,2.6-1.2,4.2-1.5c1.5-0.3,3.1-0.4,4.7-0.4c1.6,0,3.2,0.2,4.7,0.5c1.5,0.3,2.9,0.8,4.1,1.6
		c1.2,0.7,2.2,1.7,3,2.9c0.8,1.2,1.3,2.7,1.4,4.6h-7.8c-0.1-1.6-0.7-2.7-1.8-3.2c-1.1-0.6-2.4-0.8-3.8-0.8c-0.5,0-1,0-1.5,0.1
		c-0.5,0.1-1,0.2-1.5,0.4c-0.4,0.2-0.8,0.5-1.1,0.8c-0.3,0.4-0.5,0.9-0.5,1.5c0,0.7,0.3,1.3,0.8,1.8c0.5,0.5,1.2,0.8,2.1,1.1
		c0.9,0.3,1.9,0.5,3,0.8c1.1,0.2,2.3,0.5,3.4,0.8c1.2,0.3,2.4,0.6,3.5,1c1.1,0.4,2.1,0.9,3,1.5c0.9,0.6,1.6,1.4,2.1,2.4
		c0.5,0.9,0.8,2.1,0.8,3.5c0,2-0.4,3.6-1.2,4.9C37,39.1,36,40.2,34.7,41c-1.3,0.8-2.7,1.4-4.4,1.7c-1.6,0.3-3.3,0.5-5,0.5
		c-1.7,0-3.4-0.2-5.1-0.5c-1.7-0.3-3.1-0.9-4.4-1.7c-1.3-0.8-2.4-1.9-3.2-3.2c-0.8-1.3-1.3-3-1.4-5h7.8C19.1,33.6,19.3,34.3,19.7,35
		z"/>
	<path d="M41.4,21c0.7-1.9,1.8-3.6,3.1-5c1.3-1.4,3-2.4,4.9-3.2c1.9-0.8,4-1.1,6.4-1.1c2.4,0,4.5,0.4,6.4,1.1
		c1.9,0.8,3.5,1.8,4.9,3.2c1.3,1.4,2.4,3,3.1,5c0.7,1.9,1.1,4.1,1.1,6.5c0,2.4-0.4,4.6-1.1,6.5c-0.7,1.9-1.8,3.6-3.1,4.9
		c-1.4,1.4-3,2.4-4.9,3.2c-1.9,0.7-4,1.1-6.4,1.1c-2.4,0-4.5-0.4-6.4-1.1c-1.9-0.7-3.5-1.8-4.9-3.2c-1.4-1.4-2.4-3-3.1-4.9
		c-0.7-1.9-1.1-4.1-1.1-6.5C40.3,25.1,40.7,22.9,41.4,21z M48.8,31c0.2,1.1,0.6,2.2,1.2,3.1c0.6,0.9,1.3,1.6,2.2,2.2
		c0.9,0.5,2.1,0.8,3.5,0.8c1.4,0,2.6-0.3,3.5-0.8c0.9-0.5,1.7-1.3,2.3-2.2c0.6-0.9,1-1.9,1.2-3.1c0.2-1.1,0.3-2.3,0.3-3.5
		c0-1.2-0.1-2.4-0.3-3.5c-0.2-1.2-0.6-2.2-1.2-3.1c-0.6-0.9-1.3-1.6-2.3-2.2c-0.9-0.6-2.1-0.8-3.5-0.8c-1.4,0-2.5,0.3-3.5,0.8
		c-0.9,0.6-1.7,1.3-2.2,2.2c-0.6,0.9-1,1.9-1.2,3.1c-0.2,1.2-0.3,2.3-0.3,3.5C48.5,28.7,48.6,29.9,48.8,31z"/>
	<path d="M88.1,21c0.7-1.9,1.8-3.6,3.1-5c1.3-1.4,3-2.4,4.9-3.2c1.9-0.8,4-1.1,6.4-1.1c2.4,0,4.5,0.4,6.4,1.1
		c1.9,0.8,3.5,1.8,4.9,3.2c1.3,1.4,2.4,3,3.1,5c0.7,1.9,1.1,4.1,1.1,6.5c0,2.4-0.4,4.6-1.1,6.5c-0.7,1.9-1.8,3.6-3.1,4.9
		c-1.4,1.4-3,2.4-4.9,3.2c-1.9,0.7-4,1.1-6.4,1.1c-2.4,0-4.5-0.4-6.4-1.1c-1.9-0.7-3.5-1.8-4.9-3.2c-1.4-1.4-2.4-3-3.1-4.9
		C87.4,32,87,29.9,87,27.5C87,25.1,87.4,22.9,88.1,21z M95.6,31c0.2,1.1,0.6,2.2,1.2,3.1c0.6,0.9,1.3,1.6,2.2,2.2
		c0.9,0.5,2.1,0.8,3.5,0.8c1.4,0,2.6-0.3,3.5-0.8c0.9-0.5,1.7-1.3,2.3-2.2c0.6-0.9,1-1.9,1.2-3.1c0.2-1.1,0.3-2.3,0.3-3.5
		c0-1.2-0.1-2.4-0.3-3.5c-0.2-1.2-0.6-2.2-1.2-3.1c-0.6-0.9-1.3-1.6-2.3-2.2c-0.9-0.6-2.1-0.8-3.5-0.8c-1.4,0-2.5,0.3-3.5,0.8
		c-0.9,0.6-1.7,1.3-2.2,2.2c-0.6,0.9-1,1.9-1.2,3.1c-0.2,1.2-0.3,2.3-0.3,3.5C95.3,28.7,95.4,29.9,95.6,31z"/>
	<path d="M127.4,12.5v3.8h0.1c1-1.6,2.3-2.8,3.8-3.5c1.5-0.7,3.2-1.1,5.1-1.1c2.4,0,4.4,0.4,6.1,1.3c1.7,0.9,3.1,2.1,4.2,3.5
		c1.1,1.5,1.9,3.2,2.5,5.1c0.5,1.9,0.8,4,0.8,6.1c0,2-0.3,3.9-0.8,5.8c-0.5,1.9-1.4,3.5-2.5,4.9c-1.1,1.4-2.5,2.6-4.1,3.4
		c-1.6,0.8-3.6,1.3-5.8,1.3c-1.9,0-3.6-0.4-5.1-1.1c-1.6-0.8-2.8-1.9-3.8-3.3h-0.1v8.2h-8.2V12.5H127.4z M138.1,36.2
		c0.9-0.5,1.6-1.2,2.2-2.1c0.6-0.9,1-1.9,1.2-3c0.2-1.2,0.3-2.3,0.3-3.5c0-1.2-0.1-2.4-0.4-3.5c-0.3-1.2-0.7-2.2-1.2-3.1
		c-0.6-0.9-1.3-1.6-2.2-2.2c-0.9-0.6-2-0.8-3.3-0.8c-1.4,0-2.5,0.3-3.4,0.8c-0.9,0.6-1.6,1.3-2.2,2.2c-0.6,0.9-1,1.9-1.2,3.1
		c-0.2,1.2-0.3,2.4-0.3,3.6c0,1.2,0.1,2.4,0.4,3.5c0.3,1.2,0.7,2.2,1.2,3c0.6,0.9,1.3,1.6,2.2,2.1c0.9,0.5,2,0.8,3.4,0.8
		C136,37,137.2,36.8,138.1,36.2z"/>
	<circle cx="5.2" cy="5.2" r="5.2"/>
	<path d="M87.4,18v-5.5h-6V6.9h-8.2v5.6h-7.7v0c1.3,0.7,2.4,1.5,3.4,2.5c1.3,1.4,2.4,3,3.1,5c0.7,1.9,1.1,4.1,1.1,6.5l0.1,0v9.2
		c0,1.5,0.3,2.7,0.8,3.6c0.5,0.9,1.2,1.6,2.1,2.1c0.9,0.5,1.9,0.8,3,1c1.1,0.2,2.3,0.3,3.6,0.3c0.8,0,1.6,0,2.5-0.1
		c0.8,0,1.6-0.1,2.3-0.2v-6.4c-0.4,0.1-0.8,0.1-1.2,0.2c-0.4,0-0.9,0.1-1.3,0.1c-1.4,0-2.3-0.2-2.8-0.7c-0.5-0.5-0.7-1.4-0.7-2.8V18
		H87.4z"/>
</g>
<path class="st0" d="M136.9,80c-6.1,0-135.9,0-135.9,0V52.3h135.3c8.9,0,12.1-3,13.6-9.1v9.1c0,0,0,15.2,0,18.8
	C150,74.6,147.4,80,136.9,80z"/>
<path class="st1" d="M8.6,70v-1.9h3l0.6-4.2H9.3V62h3.1l0.8-5.7h1.9L14.3,62h3.4l0.8-5.7h1.9L19.7,62h2.5v1.9h-2.7l-0.6,4.2h2.5V70
	h-2.8l-0.8,5.7h-1.9l0.8-5.7h-3.4l-0.8,5.7h-1.9l0.8-5.7H8.6z M13.5,68.1h3.4l0.6-4.2h-3.4L13.5,68.1z"/>
<g>
	<path class="st1" d="M26.4,74.2c-0.4,0.4-0.9,0.5-1.6,0.5c-0.3,0-0.5,0-0.7-0.1v-1.3c0.1,0,0.1,0,0.1,0c0,0,0.1,0,0.1,0h0.3
		c0.3,0,0.5-0.1,0.7-0.3c0.1-0.2,0.2-0.5,0.2-1v-9.9H27v10.1C27,73.2,26.8,73.8,26.4,74.2z M25.5,60.7v-1.8H27v1.8H25.5z"/>
	<path class="st1" d="M29.4,65c0.2-0.6,0.5-1.1,0.8-1.5c0.4-0.4,0.8-0.8,1.4-1c0.5-0.2,1.2-0.4,1.9-0.4c0.7,0,1.3,0.1,1.9,0.4
		c0.5,0.2,1,0.6,1.4,1c0.4,0.4,0.6,0.9,0.8,1.5c0.2,0.6,0.3,1.2,0.3,1.9s-0.1,1.3-0.3,1.8c-0.2,0.6-0.5,1.1-0.8,1.5
		c-0.4,0.4-0.8,0.8-1.4,1c-0.5,0.2-1.2,0.4-1.9,0.4c-0.7,0-1.3-0.1-1.9-0.4c-0.5-0.2-1-0.6-1.4-1c-0.4-0.4-0.6-0.9-0.8-1.5
		c-0.2-0.6-0.3-1.2-0.3-1.8S29.2,65.6,29.4,65z M30.9,68.3c0.1,0.4,0.3,0.8,0.6,1.1c0.3,0.3,0.6,0.5,0.9,0.7
		c0.3,0.2,0.7,0.2,1.1,0.2s0.7-0.1,1.1-0.2c0.3-0.2,0.6-0.4,0.9-0.7s0.5-0.6,0.6-1.1c0.1-0.4,0.2-0.9,0.2-1.5c0-0.5-0.1-1-0.2-1.5
		c-0.1-0.4-0.3-0.8-0.6-1.1s-0.6-0.5-0.9-0.7c-0.3-0.2-0.7-0.2-1.1-0.2s-0.7,0.1-1.1,0.2c-0.3,0.2-0.6,0.4-0.9,0.7
		c-0.3,0.3-0.5,0.6-0.6,1.1c-0.1,0.4-0.2,0.9-0.2,1.5C30.7,67.4,30.8,67.9,30.9,68.3z"/>
	<path class="st1" d="M41.4,58.9v4.6h0c0.2-0.5,0.6-0.9,1.1-1.1c0.5-0.2,1.1-0.3,1.7-0.3c0.7,0,1.3,0.1,1.8,0.4
		c0.5,0.3,0.9,0.6,1.3,1c0.3,0.4,0.6,0.9,0.8,1.5c0.2,0.6,0.3,1.2,0.3,1.8c0,0.6-0.1,1.2-0.3,1.8c-0.2,0.6-0.4,1.1-0.8,1.5
		c-0.3,0.4-0.8,0.8-1.3,1c-0.5,0.2-1.1,0.4-1.8,0.4c-0.2,0-0.5,0-0.7-0.1c-0.3,0-0.5-0.1-0.8-0.2c-0.3-0.1-0.5-0.2-0.8-0.4
		c-0.2-0.2-0.4-0.4-0.6-0.7h0v1.2H40V58.9H41.4z M46.8,65.5c-0.1-0.4-0.3-0.8-0.5-1.1c-0.2-0.3-0.5-0.6-0.9-0.7
		c-0.4-0.2-0.8-0.3-1.2-0.3c-0.5,0-0.9,0.1-1.3,0.3c-0.3,0.2-0.6,0.5-0.9,0.8c-0.2,0.3-0.4,0.7-0.5,1.1c-0.1,0.4-0.1,0.8-0.1,1.2
		c0,0.4,0.1,0.9,0.2,1.3c0.1,0.4,0.3,0.8,0.5,1.1c0.2,0.3,0.5,0.6,0.9,0.8c0.4,0.2,0.8,0.3,1.3,0.3c0.5,0,0.9-0.1,1.3-0.3
		c0.3-0.2,0.6-0.5,0.8-0.8c0.2-0.3,0.4-0.7,0.5-1.1c0.1-0.4,0.1-0.8,0.1-1.3C46.9,66.3,46.9,65.9,46.8,65.5z"/>
	<path class="st1" d="M52.1,58.9v4.6h0c0.2-0.5,0.6-0.9,1.1-1.1c0.5-0.2,1.1-0.3,1.7-0.3c0.7,0,1.3,0.1,1.8,0.4
		c0.5,0.3,0.9,0.6,1.3,1c0.3,0.4,0.6,0.9,0.8,1.5c0.2,0.6,0.3,1.2,0.3,1.8c0,0.6-0.1,1.2-0.3,1.8c-0.2,0.6-0.4,1.1-0.8,1.5
		c-0.3,0.4-0.8,0.8-1.3,1c-0.5,0.2-1.1,0.4-1.8,0.4c-0.2,0-0.5,0-0.7-0.1c-0.3,0-0.5-0.1-0.8-0.2c-0.3-0.1-0.5-0.2-0.8-0.4
		c-0.2-0.2-0.4-0.4-0.6-0.7h0v1.2h-1.5V58.9H52.1z M57.4,65.5c-0.1-0.4-0.3-0.8-0.5-1.1c-0.2-0.3-0.5-0.6-0.9-0.7
		c-0.4-0.2-0.8-0.3-1.2-0.3c-0.5,0-0.9,0.1-1.3,0.3c-0.3,0.2-0.6,0.5-0.9,0.8c-0.2,0.3-0.4,0.7-0.5,1.1C52.1,66,52,66.4,52,66.8
		c0,0.4,0.1,0.9,0.2,1.3c0.1,0.4,0.3,0.8,0.5,1.1c0.2,0.3,0.5,0.6,0.9,0.8c0.4,0.2,0.8,0.3,1.3,0.3c0.5,0,0.9-0.1,1.3-0.3
		c0.3-0.2,0.6-0.5,0.8-0.8c0.2-0.3,0.4-0.7,0.5-1.1c0.1-0.4,0.1-0.8,0.1-1.3C57.5,66.3,57.5,65.9,57.4,65.5z"/>
	<path class="st1" d="M69.1,71.3c-0.3,0.2-0.6,0.2-1.1,0.2c-0.4,0-0.7-0.1-0.9-0.3c-0.2-0.2-0.3-0.6-0.3-1.1
		c-0.4,0.5-0.9,0.8-1.4,1.1c-0.5,0.2-1.1,0.3-1.7,0.3c-0.4,0-0.8,0-1.2-0.1c-0.4-0.1-0.7-0.2-0.9-0.4c-0.3-0.2-0.5-0.5-0.6-0.8
		c-0.2-0.3-0.2-0.7-0.2-1.2c0-0.5,0.1-0.9,0.3-1.3c0.2-0.3,0.4-0.6,0.7-0.8c0.3-0.2,0.6-0.4,1-0.5c0.4-0.1,0.7-0.2,1.1-0.3
		c0.4-0.1,0.8-0.1,1.2-0.2c0.4,0,0.7-0.1,1-0.2c0.3-0.1,0.5-0.2,0.7-0.3c0.2-0.1,0.2-0.4,0.2-0.6c0-0.3-0.1-0.6-0.2-0.8
		c-0.1-0.2-0.3-0.3-0.5-0.5c-0.2-0.1-0.4-0.2-0.6-0.2c-0.2,0-0.5-0.1-0.7-0.1c-0.6,0-1.1,0.1-1.6,0.4c-0.4,0.2-0.6,0.7-0.7,1.3H61
		c0-0.6,0.1-1,0.3-1.4c0.2-0.4,0.5-0.7,0.8-0.9c0.3-0.2,0.7-0.4,1.2-0.5c0.4-0.1,0.9-0.2,1.4-0.2c0.4,0,0.8,0,1.2,0.1
		c0.4,0.1,0.8,0.2,1.1,0.4c0.3,0.2,0.6,0.4,0.8,0.8c0.2,0.3,0.3,0.7,0.3,1.3v4.6c0,0.3,0,0.6,0.1,0.8c0,0.2,0.2,0.2,0.4,0.2
		c0.1,0,0.3,0,0.5-0.1V71.3z M66.7,66.7c-0.2,0.1-0.4,0.2-0.7,0.3c-0.3,0.1-0.6,0.1-0.9,0.2c-0.3,0-0.7,0.1-1,0.1
		c-0.3,0.1-0.6,0.1-0.9,0.3c-0.3,0.1-0.5,0.3-0.7,0.5c-0.2,0.2-0.3,0.5-0.3,0.9c0,0.2,0,0.4,0.1,0.6c0.1,0.2,0.2,0.3,0.4,0.4
		c0.2,0.1,0.3,0.2,0.5,0.2c0.2,0,0.4,0.1,0.7,0.1c0.5,0,0.9-0.1,1.3-0.2c0.3-0.1,0.6-0.3,0.9-0.5c0.2-0.2,0.4-0.4,0.5-0.7
		c0.1-0.2,0.2-0.5,0.2-0.7V66.7z"/>
	<path class="st1" d="M72.3,62.3v1.2h0c0.2-0.5,0.6-0.9,1.1-1.1c0.5-0.2,1.1-0.3,1.7-0.3c0.7,0,1.3,0.1,1.8,0.4
		c0.5,0.3,0.9,0.6,1.3,1c0.3,0.4,0.6,0.9,0.8,1.5c0.2,0.6,0.3,1.2,0.3,1.8c0,0.6-0.1,1.2-0.3,1.8c-0.2,0.6-0.4,1.1-0.8,1.5
		c-0.3,0.4-0.8,0.8-1.3,1c-0.5,0.2-1.1,0.4-1.8,0.4c-0.2,0-0.5,0-0.7-0.1c-0.3,0-0.5-0.1-0.8-0.2c-0.3-0.1-0.5-0.2-0.8-0.4
		c-0.2-0.2-0.4-0.4-0.6-0.7h0v4.6h-1.5V62.3H72.3z M77.7,65.5c-0.1-0.4-0.3-0.8-0.5-1.1c-0.2-0.3-0.5-0.6-0.9-0.7
		c-0.4-0.2-0.8-0.3-1.2-0.3c-0.5,0-0.9,0.1-1.3,0.3s-0.6,0.5-0.9,0.8c-0.2,0.3-0.4,0.7-0.5,1.1c-0.1,0.4-0.1,0.8-0.1,1.2
		c0,0.4,0.1,0.9,0.2,1.3c0.1,0.4,0.3,0.8,0.5,1.1c0.2,0.3,0.5,0.6,0.9,0.8c0.4,0.2,0.8,0.3,1.3,0.3c0.5,0,0.9-0.1,1.3-0.3
		c0.3-0.2,0.6-0.5,0.8-0.8c0.2-0.3,0.4-0.7,0.5-1.1c0.1-0.4,0.1-0.8,0.1-1.3C77.8,66.3,77.8,65.9,77.7,65.5z"/>
	<path class="st1" d="M88.3,71.5c-0.4,0-0.7-0.1-0.9-0.3c-0.2-0.2-0.3-0.6-0.3-1.1c-0.4,0.5-0.9,0.8-1.4,1.1
		c-0.5,0.2-1.1,0.3-1.7,0.3c-0.4,0-0.8,0-1.1-0.1c-0.4-0.1-0.7-0.2-0.9-0.4s-0.5-0.5-0.6-0.8C81,69.8,81,69.5,81,69
		c0-0.5,0.1-0.9,0.3-1.3c0.2-0.3,0.4-0.6,0.7-0.8s0.6-0.4,1-0.5c0.4-0.1,0.7-0.2,1.1-0.3c0.4-0.1,0.8-0.1,1.2-0.2
		c0.4,0,0.7-0.1,1-0.2c0.3-0.1,0.5-0.2,0.7-0.3c0.2-0.1,0.2-0.4,0.2-0.6c0-0.3-0.1-0.6-0.2-0.8c-0.1-0.2-0.3-0.3-0.5-0.5
		c-0.2-0.1-0.4-0.2-0.6-0.2c-0.2,0-0.5-0.1-0.7-0.1c-0.6,0-1.1,0.1-1.6,0.4c-0.4,0.2-0.6,0.7-0.7,1.3h-1.5c0-0.6,0.1-1,0.3-1.4
		c0.2-0.4,0.5-0.7,0.8-0.9c0.3-0.2,0.7-0.4,1.2-0.5c0.5-0.1,0.9-0.2,1.4-0.2c0.4,0,0.8,0,1.2,0.1c0.4,0.1,0.8,0.2,1.1,0.4
		c0.3,0.2,0.6,0.4,0.8,0.8c0.2,0.3,0.3,0.7,0.3,1.3v4.6c0,0.3,0,0.6,0.1,0.8c0,0.2,0.2,0.2,0.4,0.2c0.1,0,0.3,0,0.5-0.1v1.1
		C89.2,71.4,88.8,71.5,88.3,71.5z M86.3,67c-0.3,0.1-0.6,0.1-0.9,0.2c-0.3,0-0.7,0.1-1,0.1c-0.3,0.1-0.6,0.1-0.9,0.3
		c-0.3,0.1-0.5,0.3-0.7,0.5s-0.3,0.5-0.3,0.9c0,0.2,0,0.4,0.1,0.6c0.1,0.2,0.2,0.3,0.4,0.4c0.2,0.1,0.3,0.2,0.6,0.2
		c0.2,0,0.4,0.1,0.7,0.1c0.5,0,0.9-0.1,1.3-0.2c0.3-0.1,0.6-0.3,0.9-0.5s0.4-0.4,0.5-0.7c0.1-0.2,0.2-0.5,0.2-0.7v-1.5
		C86.8,66.8,86.6,66.9,86.3,67z M83.2,59c0.1-0.2,0.2-0.4,0.4-0.6c0.2-0.2,0.4-0.3,0.6-0.4c0.2-0.1,0.5-0.2,0.8-0.2s0.5,0.1,0.8,0.2
		c0.2,0.1,0.4,0.2,0.6,0.4c0.2,0.2,0.3,0.4,0.4,0.6s0.2,0.5,0.2,0.8c0,0.3-0.1,0.5-0.2,0.8s-0.2,0.4-0.4,0.6
		c-0.2,0.2-0.4,0.3-0.6,0.4c-0.2,0.1-0.5,0.2-0.8,0.2s-0.5-0.1-0.8-0.2c-0.2-0.1-0.4-0.2-0.6-0.4c-0.2-0.2-0.3-0.4-0.4-0.6
		c-0.1-0.2-0.2-0.5-0.2-0.8C83,59.5,83.1,59.3,83.2,59z M84.2,60.6c0.2,0.2,0.5,0.3,0.8,0.3s0.6-0.1,0.8-0.3
		c0.2-0.2,0.3-0.5,0.3-0.8c0-0.3-0.1-0.6-0.3-0.8c-0.2-0.2-0.5-0.3-0.8-0.3s-0.6,0.1-0.8,0.3c-0.2,0.2-0.3,0.5-0.3,0.8
		C83.8,60.1,83.9,60.4,84.2,60.6z"/>
	<path class="st1" d="M91.2,60.7v-1.8h1.5v1.8H91.2z M92.7,62.3v9h-1.5v-9H92.7z"/>
	<path class="st1" d="M96.4,69.3c0.1,0.2,0.3,0.4,0.5,0.5c0.2,0.1,0.5,0.2,0.8,0.3c0.3,0.1,0.6,0.1,0.9,0.1c0.2,0,0.5,0,0.7-0.1
		c0.3,0,0.5-0.1,0.7-0.2c0.2-0.1,0.4-0.2,0.5-0.4c0.1-0.2,0.2-0.4,0.2-0.7c0-0.4-0.1-0.7-0.4-0.9c-0.3-0.2-0.7-0.4-1.1-0.5
		c-0.4-0.1-0.9-0.2-1.4-0.3c-0.5-0.1-1-0.2-1.4-0.4s-0.8-0.4-1.1-0.8c-0.3-0.3-0.4-0.8-0.4-1.4c0-0.5,0.1-0.8,0.3-1.2
		c0.2-0.3,0.5-0.6,0.8-0.8c0.3-0.2,0.7-0.4,1.1-0.5c0.4-0.1,0.8-0.1,1.2-0.1c0.5,0,1,0,1.4,0.1c0.4,0.1,0.8,0.2,1.1,0.5
		c0.3,0.2,0.6,0.5,0.8,0.9c0.2,0.4,0.3,0.8,0.3,1.4h-1.5c0-0.3-0.1-0.5-0.2-0.7c-0.1-0.2-0.3-0.3-0.5-0.5c-0.2-0.1-0.4-0.2-0.7-0.3
		c-0.2-0.1-0.5-0.1-0.7-0.1c-0.2,0-0.4,0-0.7,0.1c-0.2,0-0.4,0.1-0.6,0.2c-0.2,0.1-0.3,0.2-0.5,0.3c-0.1,0.1-0.2,0.3-0.2,0.6
		c0,0.3,0.1,0.5,0.3,0.6c0.2,0.2,0.4,0.3,0.7,0.4c0.3,0.1,0.6,0.2,0.9,0.3c0.3,0.1,0.7,0.2,1,0.2c0.4,0.1,0.7,0.2,1.1,0.3
		c0.4,0.1,0.7,0.3,0.9,0.5c0.3,0.2,0.5,0.4,0.7,0.7c0.2,0.3,0.3,0.6,0.3,1.1c0,0.5-0.1,1-0.3,1.4c-0.2,0.4-0.5,0.6-0.9,0.9
		c-0.4,0.2-0.8,0.4-1.2,0.5c-0.5,0.1-0.9,0.1-1.4,0.1c-0.5,0-1-0.1-1.4-0.2c-0.5-0.1-0.9-0.3-1.2-0.5c-0.3-0.2-0.6-0.6-0.8-0.9
		c-0.2-0.4-0.3-0.9-0.3-1.4h1.5C96.2,68.8,96.3,69.1,96.4,69.3z"/>
	<path class="st1" d="M104.1,65c0.2-0.6,0.5-1.1,0.8-1.5c0.4-0.4,0.8-0.8,1.4-1c0.5-0.2,1.2-0.4,1.9-0.4c0.7,0,1.3,0.1,1.9,0.4
		c0.5,0.2,1,0.6,1.4,1c0.4,0.4,0.6,0.9,0.8,1.5c0.2,0.6,0.3,1.2,0.3,1.9s-0.1,1.3-0.3,1.8c-0.2,0.6-0.5,1.1-0.8,1.5
		c-0.4,0.4-0.8,0.8-1.4,1c-0.5,0.2-1.2,0.4-1.9,0.4c-0.7,0-1.3-0.1-1.9-0.4c-0.5-0.2-1-0.6-1.4-1c-0.4-0.4-0.6-0.9-0.8-1.5
		c-0.2-0.6-0.3-1.2-0.3-1.8S103.9,65.6,104.1,65z M105.6,68.3c0.1,0.4,0.3,0.8,0.6,1.1s0.6,0.5,0.9,0.7c0.3,0.2,0.7,0.2,1.1,0.2
		c0.4,0,0.7-0.1,1.1-0.2c0.3-0.2,0.6-0.4,0.9-0.7c0.3-0.3,0.5-0.6,0.6-1.1c0.1-0.4,0.2-0.9,0.2-1.5c0-0.5-0.1-1-0.2-1.5
		c-0.1-0.4-0.3-0.8-0.6-1.1c-0.3-0.3-0.6-0.5-0.9-0.7c-0.3-0.2-0.7-0.2-1.1-0.2c-0.4,0-0.7,0.1-1.1,0.2c-0.3,0.2-0.6,0.4-0.9,0.7
		s-0.5,0.6-0.6,1.1c-0.1,0.4-0.2,0.9-0.2,1.5C105.4,67.4,105.4,67.9,105.6,68.3z"/>
	<path class="st1" d="M118.4,62.3v1.3h-1.8v5.6c0,0.2,0,0.3,0,0.4c0,0.1,0.1,0.2,0.2,0.2c0.1,0.1,0.2,0.1,0.3,0.1c0.1,0,0.3,0,0.6,0
		h0.7v1.3h-1.1c-0.4,0-0.7,0-1-0.1c-0.3-0.1-0.5-0.1-0.7-0.3c-0.2-0.1-0.3-0.3-0.4-0.6c-0.1-0.3-0.1-0.6-0.1-1v-5.7h-1.5v-1.3h1.5
		v-2.7h1.5v2.7H118.4z"/>
	<path class="st1" d="M120.1,65c0.2-0.6,0.5-1.1,0.8-1.5c0.4-0.4,0.8-0.8,1.4-1c0.5-0.2,1.2-0.4,1.9-0.4c0.7,0,1.3,0.1,1.9,0.4
		s1,0.6,1.4,1c0.4,0.4,0.6,0.9,0.8,1.5c0.2,0.6,0.3,1.2,0.3,1.9s-0.1,1.3-0.3,1.8c-0.2,0.6-0.5,1.1-0.8,1.5c-0.4,0.4-0.8,0.8-1.4,1
		c-0.5,0.2-1.2,0.4-1.9,0.4c-0.7,0-1.3-0.1-1.9-0.4c-0.5-0.2-1-0.6-1.4-1c-0.4-0.4-0.6-0.9-0.8-1.5c-0.2-0.6-0.3-1.2-0.3-1.8
		S120,65.6,120.1,65z M121.7,68.3c0.1,0.4,0.3,0.8,0.6,1.1c0.3,0.3,0.6,0.5,0.9,0.7c0.3,0.2,0.7,0.2,1.1,0.2c0.4,0,0.7-0.1,1.1-0.2
		c0.3-0.2,0.6-0.4,0.9-0.7c0.3-0.3,0.5-0.6,0.6-1.1c0.1-0.4,0.2-0.9,0.2-1.5c0-0.5-0.1-1-0.2-1.5c-0.1-0.4-0.3-0.8-0.6-1.1
		c-0.3-0.3-0.6-0.5-0.9-0.7c-0.3-0.2-0.7-0.2-1.1-0.2c-0.4,0-0.7,0.1-1.1,0.2c-0.3,0.2-0.6,0.4-0.9,0.7c-0.3,0.3-0.5,0.6-0.6,1.1
		c-0.1,0.4-0.2,0.9-0.2,1.5C121.4,67.4,121.5,67.9,121.7,68.3z"/>
	<path class="st1" d="M132.2,62.3v1.2h0c0.2-0.5,0.6-0.9,1.1-1.1c0.5-0.2,1.1-0.3,1.7-0.3c0.7,0,1.3,0.1,1.8,0.4
		c0.5,0.3,0.9,0.6,1.3,1c0.3,0.4,0.6,0.9,0.8,1.5c0.2,0.6,0.3,1.2,0.3,1.8c0,0.6-0.1,1.2-0.3,1.8c-0.2,0.6-0.4,1.1-0.8,1.5
		c-0.3,0.4-0.8,0.8-1.3,1c-0.5,0.2-1.1,0.4-1.8,0.4c-0.2,0-0.5,0-0.7-0.1c-0.3,0-0.5-0.1-0.8-0.2c-0.3-0.1-0.5-0.2-0.8-0.4
		c-0.2-0.2-0.4-0.4-0.6-0.7h0v4.6h-1.5V62.3H132.2z M137.5,65.5c-0.1-0.4-0.3-0.8-0.5-1.1c-0.2-0.3-0.5-0.6-0.9-0.7
		c-0.4-0.2-0.8-0.3-1.2-0.3c-0.5,0-0.9,0.1-1.3,0.3c-0.3,0.2-0.6,0.5-0.9,0.8c-0.2,0.3-0.4,0.7-0.5,1.1c-0.1,0.4-0.1,0.8-0.1,1.2
		c0,0.4,0.1,0.9,0.2,1.3c0.1,0.4,0.3,0.8,0.5,1.1c0.2,0.3,0.5,0.6,0.9,0.8c0.4,0.2,0.8,0.3,1.3,0.3c0.5,0,0.9-0.1,1.3-0.3
		c0.3-0.2,0.6-0.5,0.8-0.8c0.2-0.3,0.4-0.7,0.5-1.1c0.1-0.4,0.1-0.8,0.1-1.3C137.7,66.3,137.6,65.9,137.5,65.5z"/>
</g>
</svg>
