<?xml version="1.0" encoding="UTF-8"?>
<svg width="82px" height="25px" viewBox="0 0 82 25" version="1.1" xmlns="http://www.w3.org/2000/svg" xmlns:xlink="http://www.w3.org/1999/xlink">
    <!-- Generator: Sketch 52.2 (67145) - http://www.bohemiancoding.com/sketch -->
    <title>kry-logo</title>
    <desc>Created with Sketch.</desc>
    <defs>
        <polygon id="path-1" points="0.0156687898 0.150033428 24.3549092 0.150033428 24.3549092 24.5477707 0.0156687898 24.5477707"></polygon>
    </defs>
    <g id="kry-logo" stroke="none" stroke-width="1" fill="none" fill-rule="evenodd">
        <g>
            <g id="Group-3">
                <mask id="mask-2" fill="white">
                    <use xlink:href="#path-1"></use>
                </mask>
                <g id="Clip-2"></g>
                <path d="M24.0918089,8.92912102 C24.2672994,10.0583185 24.3547834,11.1995287 24.3529554,12.3423057 C24.3694076,13.4853439 24.2819236,14.6278599 24.0918089,15.7554904 C23.9507898,16.5180382 23.5564586,16.8862548 22.9349299,16.8862548 L16.7196433,16.8862548 L16.7196433,23.132879 C16.7196433,23.7596306 16.3540382,24.1484777 15.5914904,24.2610318 C14.4630764,24.4461847 13.3218662,24.5404586 12.1783057,24.5430701 C11.0337006,24.5710127 9.88961783,24.4762166 8.76512102,24.2610318 C8.00518471,24.1200127 7.66569427,23.7544076 7.66569427,23.132879 L7.66569427,22.7254904 C7.67300637,20.6068089 8.45409554,18.5635987 9.86193631,16.9802675 C10.9900892,15.7398217 12.1469682,14.4416624 12.1469682,12.3527516 C12.1469682,10.2635796 10.9900892,8.95784713 9.86193631,7.69912102 C8.43999363,6.10351592 7.65394268,4.04124204 7.65263694,1.90428025 L7.65263694,1.56478981 C7.65263694,0.917146497 7.99212739,0.548929936 8.75206369,0.407910828 C9.88308917,0.248089172 11.0229936,0.162694268 12.1652484,0.151987261 C13.3085478,0.135535032 14.4508025,0.223019108 15.5784331,0.413133758 C16.3409809,0.577656051 16.7196433,0.935426752 16.7196433,1.56478981 L16.7196433,7.80096815 L22.9427643,7.80096815 C23.5904076,7.80096815 23.9586242,8.16657325 24.0996433,8.92912102 L24.0918089,8.92912102 Z M7.84066242,15.5883567 C7.12799363,16.4331656 6.07322293,16.9126306 4.96805096,16.8940892 L1.38773248,16.8940892 C0.760980892,16.8940892 0.374484076,16.5258726 0.259579618,15.7633248 C0.0859171975,14.6312548 0.00130573248,13.4874331 0.00626751592,12.3423057 C-0.0253312102,11.1984841 0.0624140127,10.0546624 0.267414013,8.92912102 C0.408433121,8.16657325 0.805375796,7.80096815 1.39556688,7.80096815 L4.96805096,7.80096815 C6.06434395,7.78138217 7.11441401,8.24335032 7.84066242,9.0649172 C8.43346497,9.77001274 9.6686879,10.9817325 9.6686879,12.3370828 C9.6686879,13.692172 8.44129936,14.9091146 7.84066242,15.5883567 Z" id="Fill-1" fill="#6ACCBA" mask="url(#mask-2)"></path>
            </g>
            <path d="M44.9783057,22.161414 C43.6725732,22.161414 43.3409172,22.0778471 42.9753121,21.4563185 L37.9821911,13.3866306 C37.0786242,14.3191847 36.1750573,15.2486051 35.2741019,16.123707 L35.2741019,21.3988662 C35.2741019,21.7383567 35.1618089,21.936828 34.9346115,22.0253567 C34.5410637,22.1376497 34.1318471,22.1854395 33.7228917,22.1666369 C33.3034904,22.1924904 32.8827834,22.1449618 32.4798344,22.0253567 C32.2552484,21.942051 32.1664586,21.7433185 32.1664586,21.3988662 L32.1664586,3.17345223 C32.1664586,2.83396178 32.2526369,2.63810191 32.4798344,2.54670064 C32.8746879,2.43545223 33.2844268,2.38792357 33.6941656,2.40568153 C34.1125223,2.38113376 34.5321847,2.42892357 34.9346115,2.54670064 C35.1618089,2.63026752 35.2741019,2.82873885 35.2741019,3.17345223 L35.2741019,12.1986752 C38.0594904,9.38142675 40.5894777,6.32287898 42.834293,3.05854777 C43.1998981,2.52032484 43.6177325,2.40829299 44.9493185,2.40829299 C46.5007898,2.40829299 46.7279873,2.57803822 46.255051,3.28313376 C44.3776688,6.05050318 42.3067771,8.68129299 40.0583057,11.1567006 L46.4250573,21.2891847 C46.8690064,22.0203949 46.0487452,22.161414 44.9783057,22.161414" id="Fill-4" fill="#0C222A"></path>
            <g id="Group-8" transform="translate(49.617834, 2.350318)" fill="#0C222A">
                <path d="M3.28365605,9.31561783 L7.17735032,9.31561783 C9.63212739,9.31561783 10.9848662,8.07517197 10.9848662,6.07217834 C10.9848662,4.06918471 9.63212739,2.76345223 7.17735032,2.76345223 L3.28365605,2.76345223 L3.28365605,9.31561783 Z M12.9643567,19.8110955 C11.7787516,19.8110955 11.2405287,19.7533822 10.9065223,19.1843439 L6.50620382,12.0184841 L3.28365605,12.0184841 L3.28365605,19.0485478 C3.28365605,19.3880382 3.17136306,19.5865096 2.94677707,19.6750382 C2.55218471,19.7875924 2.14218471,19.8353822 1.73244586,19.8163185 C1.31382803,19.8419108 0.893904459,19.7943822 0.492,19.6750382 C0.264802548,19.5917325 0.178624204,19.393 0.178624204,19.0485478 L0.178624204,1.21746497 C0.178624204,0.434025478 0.572955414,0.0605859873 1.33550318,0.0605859873 L7.23219108,0.0605859873 C11.6873503,0.0605859873 14.1421274,2.29077707 14.1421274,6.06695541 C14.1421274,9.20071338 12.2514268,11.0598153 9.62690446,11.7077197 L14.2570318,18.8735796 C14.7714904,19.6123631 13.9802166,19.8110955 12.9643567,19.8110955 Z" id="Fill-5"></path>
                <path d="M32.1507898,0.992878981 C29.4427006,5.986 27.1655032,9.68122293 25.5777325,12.1098854 L25.5777325,19.0485478 C25.5777325,19.3880382 25.462828,19.5865096 25.238242,19.6750382 C24.8436497,19.7875924 24.4336497,19.8353822 24.0239108,19.8163185 C23.605293,19.8419108 23.1856306,19.7943822 22.783465,19.6750382 C22.558879,19.5917325 22.469828,19.393 22.469828,19.0485478 L22.469828,12.1986752 C20.902949,9.73867516 18.5241656,6.07217834 15.8448025,0.992878981 C15.4504713,0.230070064 15.6176051,0.0605859873 17.1975414,0.0605859873 C18.5526306,0.0605859873 18.9472229,0.201605096 19.2579873,0.823133758 C20.6373631,3.71768153 22.2402803,6.5004586 24.0526369,9.14587261 C25.8049299,6.47329936 27.3877389,3.69365605 28.7924459,0.823133758 C29.1058217,0.196382166 29.4975414,0.0605859873 30.8293885,0.0605859873 C32.438051,0.0605859873 32.5738471,0.201605096 32.1507898,0.992878981" id="Fill-7"></path>
            </g>
        </g>
    </g>
</svg>