<svg id="Lager_1" data-name="Lager 1" xmlns="http://www.w3.org/2000/svg" viewBox="0 0 493.48 265.49"><defs><style>.cls-1{fill:none;}.cls-2{fill:#fcbf00;}</style></defs><title>Rityta 2</title><path class="cls-1" d="M257.16,94.71l-.08-.08A.6.6,0,0,0,257.16,94.71Z"/><path class="cls-1" d="M288.6,84.51c-.48,0-.72.19-.52.58C287.9,84.73,288.13,84.55,288.6,84.51Z"/><path class="cls-1" d="M235.24,74.19c-3.66-.54-24.67-3.2-24.05-3.27-.75.08-6.18-.7-5.83-.56-1-.46-3.53,13.64-3.22,14.5,7,2.73,12.19,7.66,16.44,15.54,3.55-5.61,9.49-10.61,17.64-10l0,0c.29,0,.55.17.82-.19a10.36,10.36,0,0,0,.77-2.26,0,0,0,0,0,0,0c.77-4.27,3-12,3.25-12.84C238.37,74.81,234.56,74.1,235.24,74.19Z"/><path class="cls-1" d="M294.93,86.5h0c-6.06-1.5-35.78-5.66-34.87-5.35-.69-.23-2.85,6-3.89,9.68a5.08,5.08,0,0,0,.14,2.58c.1.2.2.39.29.53a5.68,5.68,0,0,1,.4.58c5.68,5,11.77,10,14.12,16.56,5.52-5.21,13.53-10,21-10.36.27-.49,2.15-9.61,3.16-12.83h0v0l.06-.18A1.36,1.36,0,0,0,294.93,86.5Z"/><path class="cls-2" d="M307.35,70.14c4.22-.22,9.19-5.16,9.12-10.49s-3.37-9.07-7.89-9.53a9.4,9.4,0,0,0-10.62,9C297.89,65.05,301.27,70.1,307.35,70.14Z"/><path class="cls-2" d="M198.2,53.38c4.88.29,9.34-2,9.82-6.35.17-5.56-4.58-9.5-9.8-9.36-5,.33-9.82,4.67-10.6,10.41C187.51,52.05,192.16,53.91,198.2,53.38Z"/><path class="cls-2" d="M254.64,61.91c5.81.57,8.45-1.34,9.36-4.18,2.1-6.39-1.83-11-7.11-12.15-4.81-1.34-7.78.81-9.58,5C245.48,55,249.69,61.43,254.64,61.91Z"/><path class="cls-2" d="M336.61,118.8c4.87-9.79-13-15.14-23.13-19.4-1-.33.51-14.3.78-14-.27-.3,23.38-5.32,22.67-5.79.45.23,2.79-5,1.42-6-.57-.77-57.18-.42-70,.61-.67,0-1.34,0-2-.05-.5,0-1-.07-1.47-.07l-2.38-.36,0,0C251.09,70.87,221,63.8,215.63,62.6a9.12,9.12,0,0,0-3.7-.06c-4.73.79-49.71,4.88-49.43,4.81-.94.22-1.51,6.57,0,7,.59.92,23-3.4,22.58-3.58.33.14-.63,8.86-.53,12.61h0c0,.57,0,1.12,0,1.69-12.55,3.23-19.85,20.44-22.24,30.79.12,1.26,7.65-1,8-1.69,2.9-9.4,11.1-23.63,21.58-22.06,11.55,1.4,19.09,8.63,19.07,18.58a.69.69,0,0,0,.57.49c.95.69,5.65,2.33,7.54,1.72a10.13,10.13,0,0,0,1.37-3.13c5.19-7.7,13.87-13.31,24.92-11.35,10.09,2.38,19.07,11.92,19.44,22.26a.41.41,0,0,0,.25.31s-.07-.07-.07-.06h0a6.75,6.75,0,0,0,2.84.66c.28.07.64,0,1.09.08,0,0,0,0,0,0a0,0,0,0,0,0,0,38.71,38.71,0,0,0,5.39,0c.67,0,1.11-.31,1.14-.47,4.54-9.08,15.79-15.86,27.58-15.25,8,1,21.72,3.22,25.66,13.43C328.72,120.48,335.84,119.93,336.61,118.8ZM237.79,88a0,0,0,0,1,0,0A10.36,10.36,0,0,1,237,90.2c-.27.36-.53.19-.82.19l0,0c-8.15-.64-14.09,4.36-17.64,10-4.25-7.88-9.42-12.81-16.44-15.54-.31-.86,2.26-15,3.22-14.5-.35-.14,5.08.64,5.83.56-.62.07,20.39,2.73,24.05,3.27-.68-.09,3.13.62,5.8.92C240.83,76,238.56,83.68,237.79,88Zm50.81-3.44c-.47,0-.7.22-.52.58C287.88,84.7,288.12,84.52,288.6,84.51ZM257.08,94.63l.08.08A.6.6,0,0,1,257.08,94.63Zm15.29,25.3c-.06.18.29.52.75.83C272.66,120.48,272.29,120.13,272.37,119.93Zm22.95-32.07v0h0c-1,3.22-2.89,12.34-3.16,12.83-7.51.35-15.52,5.15-21,10.36-2.35-6.57-8.44-11.59-14.12-16.56a5.68,5.68,0,0,0-.4-.58c-.09-.14-.19-.33-.29-.53a5.08,5.08,0,0,1-.14-2.58c1-3.68,3.2-9.91,3.89-9.68-.91-.31,28.81,3.85,34.87,5.35h0a1.36,1.36,0,0,1,.45,1.18Z"/><path d="M40.33,183.64,43.15,172l5.29-24.2,2.32-11.18q-9.34,0-16.42.34c.51-2,.91-3.83,1.21-5.38q9.69,0,20.91,0l12.21,0h6.49c-.57,2.26-1,4.05-1.21,5.38q-5.86-.34-13-.34H57.79L54,153.47l-5,23.8-1.13,6.37-3.65-.08Z"/><path d="M102.35,177.57q-.82,2.1-1.86,5.34a57,57,0,0,1-6.57,1.24,45.42,45.42,0,0,1-5.42.33,27.45,27.45,0,0,1-8.37-1.15,11.58,11.58,0,0,1-5.8-4,13.66,13.66,0,0,1-2.75-6.5,24.47,24.47,0,0,1,.19-7.75,29.38,29.38,0,0,1,4-10.56,22.33,22.33,0,0,1,7.9-7.65,22.87,22.87,0,0,1,11.58-2.78,19.88,19.88,0,0,1,6.46,1,10.29,10.29,0,0,1,4.72,3.07,11.14,11.14,0,0,1,2.35,5.1,17.75,17.75,0,0,1,0,6.62,17.47,17.47,0,0,1-.7,2.67H79q-.52,2.1-.72,3.21a15.25,15.25,0,0,0,.37,7.38,8.83,8.83,0,0,0,4.07,5.11A14.13,14.13,0,0,0,89.94,180,41.66,41.66,0,0,0,102.35,177.57ZM79.83,159.4h22.75a22.75,22.75,0,0,0,.35-3.74,9.72,9.72,0,0,0-.5-2.77,6.31,6.31,0,0,0-1.53-2.48,6.91,6.91,0,0,0-2.69-1.6,11.45,11.45,0,0,0-3.67-.55,14.91,14.91,0,0,0-4.25.61,14.48,14.48,0,0,0-3.77,1.68,13.94,13.94,0,0,0-3,2.5,15.17,15.17,0,0,0-2.06,2.76A31.57,31.57,0,0,0,79.83,159.4Z"/><path d="M119.3,151.12q.65-1.68,1.6-5a73.34,73.34,0,0,1,8.25-1.62,51.45,51.45,0,0,1,6.66-.44,29.62,29.62,0,0,1,6.32.63,11,11,0,0,1,4.62,2,5.37,5.37,0,0,1,2.06,3.24,11.31,11.31,0,0,1,0,3.93c-.31,1.76-1,4.7-2,8.84s-1.87,8-2.63,11.47-1.38,6.64-1.86,9.39c-1.37,0-2.49-.08-3.35-.08s-2,0-3.49.08l2.65-10.42,2.75-12.33c-1,.69-1.77,1.17-2.26,1.45a13.35,13.35,0,0,1-1.65.78c-.6.25-1.26.47-2,.69s-2.09.59-4.13,1.13-3.5.94-4.36,1.22a28.34,28.34,0,0,0-4.46,1.68,15.6,15.6,0,0,0-2.89,1.83,8.07,8.07,0,0,0-1.8,2,7.7,7.7,0,0,0-.94,2.56,4.93,4.93,0,0,0,.58,3.59,5,5,0,0,0,2.7,2.12,13.85,13.85,0,0,0,4.35.59,27.32,27.32,0,0,0,3.39-.23,30.86,30.86,0,0,0,4.9-1.15,48.74,48.74,0,0,0-2,4.55c-1.92.35-3.48.57-4.66.66s-2.3.14-3.35.14a20.28,20.28,0,0,1-8-1.22,6.85,6.85,0,0,1-3.73-3.73,9.69,9.69,0,0,1-.49-5.43,10.59,10.59,0,0,1,1.07-3.17,12.68,12.68,0,0,1,1.86-2.64,15.29,15.29,0,0,1,2.92-2.36,21.53,21.53,0,0,1,3.74-2c1.27-.51,2.74-1,4.41-1.51s4.31-1.16,8-2c1.16-.25,2.16-.52,3-.78s1.58-.53,2.23-.79a8.78,8.78,0,0,0,1.76-.89,8.67,8.67,0,0,0,1.49-1.26,7,7,0,0,0,1.1-1.51,5.2,5.2,0,0,0,.54-1.53,4,4,0,0,0-.66-3.2,5.21,5.21,0,0,0-2.86-1.87,16.51,16.51,0,0,0-4.54-.54,36.11,36.11,0,0,0-5.17.4,39.61,39.61,0,0,0-4.67,1Q122.33,150,119.3,151.12Z"/><path d="M152.58,183.64,154,178.1q.42-1.75,1.28-5.53l5-23.25c.36-1.9.63-3.35.8-4.35,1.19,0,2.28,0,3.28,0s2.13,0,3.17,0l-1.59,7.1a37.65,37.65,0,0,1,2.95-3.39,14.46,14.46,0,0,1,3.18-2.33,17.36,17.36,0,0,1,4.2-1.66,18.38,18.38,0,0,1,4.66-.59,12.82,12.82,0,0,1,3.18.38,11,11,0,0,1,2.77,1.07,8.38,8.38,0,0,1,2,1.56,6,6,0,0,1,1.23,1.91,13.7,13.7,0,0,1,.68,3,17.74,17.74,0,0,1,6.9-6.15,19.15,19.15,0,0,1,8.12-1.75A15.21,15.21,0,0,1,211,145a7.84,7.84,0,0,1,3.66,2.52,7,7,0,0,1,1.43,3.42,12.24,12.24,0,0,1-.11,3.57c-.21,1.22-.63,3.05-1.23,5.49s-1.47,6.17-2.58,11.17-2,9.16-2.58,12.5c-1.34,0-2.4-.08-3.16-.08s-2,0-3.64.08q1.32-5.16,2.7-11.22l2.16-9.47c.53-2.29,1-4.26,1.24-5.91a10.2,10.2,0,0,0,.15-3.48,4.91,4.91,0,0,0-1.07-2.24,5.17,5.17,0,0,0-2.24-1.51,9.37,9.37,0,0,0-3.3-.52,11.74,11.74,0,0,0-2.89.34,12.09,12.09,0,0,0-2.54,1,12.38,12.38,0,0,0-2.57,1.8,13,13,0,0,0-2.09,2.34,16.53,16.53,0,0,0-1.75,3.17,37.25,37.25,0,0,0-1.79,5.63c-.59,2.37-1.28,5.48-2.06,9.35l-2.19,10.69c-1.47,0-2.57-.08-3.31-.08s-1.85,0-3.49.08q1.22-4.74,2.32-9.74l2.09-9.23q.94-4.28,1.47-7.29a11.89,11.89,0,0,0,.2-3.3,4.8,4.8,0,0,0-1-2.48,5.39,5.39,0,0,0-2.23-1.72,8,8,0,0,0-3.18-.59,11,11,0,0,0-3.74.66,13.25,13.25,0,0,0-3.52,2,14.54,14.54,0,0,0-3,3.19,20.65,20.65,0,0,0-2.42,5A101.89,101.89,0,0,0,162,170.78q-1.67,7.62-2.58,12.86c-1.63,0-2.74-.08-3.35-.08S154.24,183.59,152.58,183.64Z"/><path d="M220.52,183.64,224,169.29l5.8-26.83,1.15-5.84q.42-2.22.93-5.08,8.61,0,17.66,0l12.18,0h3.89q-.74,2.66-1.29,5.34l-3.36-.19c-.83-.05-2.27-.09-4.31-.11s-4.07,0-6.08,0q-9,0-12.58.11l-3.84,17.87c3.9.07,7.41.11,10.51.11q5.09,0,13.35-.15-.74,2.67-1.27,5.27l-13.11-.12q-3.85,0-10.76.15l-4,18.86,4,0q10.8,0,14.35-.08t8.33-.34q-.76,2.82-1.29,5.38-9.19-.07-15.52-.08Z"/><path d="M263.68,183.64q6-23.94,8.72-38.67l3.43,0c.84,0,1.95,0,3.33,0l-1.85,7.64c.83-1.07,1.48-1.89,2-2.46a16,16,0,0,1,1.85-1.82,16.34,16.34,0,0,1,2.57-1.77,15.72,15.72,0,0,1,3.29-1.38,27.55,27.55,0,0,1,3.72-.82,26.91,26.91,0,0,1,3.65-.26,23,23,0,0,1,6.2.8,9.3,9.3,0,0,1,4.56,2.61,7.22,7.22,0,0,1,1.91,4.07,16.32,16.32,0,0,1-.18,4.84c-.06.34-.19,1-.38,1.91s-.46,2.18-.8,3.71l-3.58,16c-.32,1.52-.68,3.39-1.1,5.61-1.14,0-2.22-.08-3.23-.08-1.25,0-2.43,0-3.53.08.79-3.08,1.51-6,2.14-8.9l2.07-8.89c.69-3,1.18-5.35,1.45-6.91a10.1,10.1,0,0,0-.2-5.36,5.79,5.79,0,0,0-3.12-3.09,12.78,12.78,0,0,0-5.47-1.09,15.33,15.33,0,0,0-8,2.1,16.35,16.35,0,0,0-5.49,5.54,30.06,30.06,0,0,0-2.9,7.55q-1.64,6-4.17,19c-1.41,0-2.51-.08-3.29-.08S265.29,183.59,263.68,183.64Z"/><path d="M311.48,194.82a57.72,57.72,0,0,0,8.07,2.06,37.91,37.91,0,0,0,6.09.54,20.64,20.64,0,0,0,6-.88,14.18,14.18,0,0,0,4.22-2.06,10.52,10.52,0,0,0,2.5-2.67,22.9,22.9,0,0,0,2.38-5.54q.83-2.72,2.44-10.8c-.82,1.14-1.53,2.07-2.15,2.79a17.46,17.46,0,0,1-2.39,2.19,18.09,18.09,0,0,1-3.3,2,19.43,19.43,0,0,1-4.13,1.4,21.62,21.62,0,0,1-4.67.51,20.14,20.14,0,0,1-6.34-1,10.94,10.94,0,0,1-7.49-8.82,19.86,19.86,0,0,1,0-7.17,30.13,30.13,0,0,1,3.58-9.81A26.21,26.21,0,0,1,332,145.39,37.93,37.93,0,0,1,342,144.1a81.23,81.23,0,0,1,14.34,1.56l-1.25,4.7-4.92,21.41c-.08.43-.6,3-1.57,7.78l-1.62,7.9a28.72,28.72,0,0,1-1.47,4.43,18.17,18.17,0,0,1-1.75,3,14,14,0,0,1-2.13,2.37,15.63,15.63,0,0,1-2.68,2,15.8,15.8,0,0,1-3.11,1.41,26.34,26.34,0,0,1-4.62,1.11,33.78,33.78,0,0,1-5.26.42,69,69,0,0,1-7.28-.38,59.61,59.61,0,0,1-7.82-1.45l.26-2.1C311.21,197.71,311.32,196.58,311.48,194.82Zm37.28-45a39.29,39.29,0,0,0-7.83-.84,27.89,27.89,0,0,0-7.07.88,18.32,18.32,0,0,0-6.41,3.21,20.07,20.07,0,0,0-5.2,6,23.34,23.34,0,0,0-2.84,7.67,15.71,15.71,0,0,0,.16,6.76,7.4,7.4,0,0,0,3.37,4.59,11.64,11.64,0,0,0,6.14,1.55,14.58,14.58,0,0,0,5.7-1.09,15.2,15.2,0,0,0,4.88-3.34,19.64,19.64,0,0,0,3.84-5.34,33,33,0,0,0,2.23-6.34Q346.62,160.16,348.76,149.78Z"/><path d="M358.38,183.64l2.35-9.62,3.64-16.41L366.9,145l3.51,0,3.45,0q-1.49,6-3,12.47t-3.07,14.21q-1.57,7.71-2.33,12c-1.59,0-2.74-.08-3.42-.08S360.19,183.59,358.38,183.64Zm10-47c.49-2.39.85-4.19,1.07-5.42,1.39.05,2.62.08,3.68.08,1.35,0,2.58,0,3.68-.08q-.28,1.19-1.18,5.42l-3.55,0Z"/><path d="M375.55,183.64q6-23.94,8.72-38.67l3.43,0c.84,0,1.95,0,3.33,0l-1.85,7.64c.82-1.07,1.48-1.89,2-2.46a15.27,15.27,0,0,1,1.85-1.82,16.71,16.71,0,0,1,2.56-1.77,15.81,15.81,0,0,1,3.3-1.38,27.41,27.41,0,0,1,3.71-.82,27.06,27.06,0,0,1,3.66-.26,23.1,23.1,0,0,1,6.2.8,9.3,9.3,0,0,1,4.56,2.61,7.29,7.29,0,0,1,1.91,4.07,16.66,16.66,0,0,1-.18,4.84c-.06.34-.19,1-.38,1.91s-.46,2.18-.8,3.71L414,178q-.48,2.28-1.1,5.61c-1.14,0-2.22-.08-3.24-.08-1.25,0-2.42,0-3.53.08.8-3.08,1.52-6,2.15-8.9l2.07-8.89q1-4.57,1.45-6.91a10.1,10.1,0,0,0-.2-5.36,5.77,5.77,0,0,0-3.13-3.09A12.7,12.7,0,0,0,403,149.4a15.31,15.31,0,0,0-8,2.1A16.35,16.35,0,0,0,389.5,157a30.06,30.06,0,0,0-2.9,7.55q-1.64,6-4.17,19c-1.41,0-2.51-.08-3.29-.08S377.15,183.59,375.55,183.64Z"/><path d="M455.63,177.57q-.84,2.1-1.86,5.34a56.75,56.75,0,0,1-6.58,1.24,45.3,45.3,0,0,1-5.42.33,27.38,27.38,0,0,1-8.36-1.15,11.61,11.61,0,0,1-5.81-4,13.64,13.64,0,0,1-2.74-6.5,24.17,24.17,0,0,1,.18-7.75,29.58,29.58,0,0,1,4-10.56,22.22,22.22,0,0,1,7.89-7.65,22.87,22.87,0,0,1,11.58-2.78,19.94,19.94,0,0,1,6.47,1,10.35,10.35,0,0,1,4.72,3.07,11.14,11.14,0,0,1,2.35,5.1,18,18,0,0,1,0,6.62,16.39,16.39,0,0,1-.7,2.67H432.24q-.53,2.1-.72,3.21a15.25,15.25,0,0,0,.38,7.38,8.81,8.81,0,0,0,4.06,5.11,14.13,14.13,0,0,0,7.25,1.74A41.77,41.77,0,0,0,455.63,177.57ZM433.1,159.4h22.75a21.9,21.9,0,0,0,.36-3.74,9.41,9.41,0,0,0-.51-2.77,6.09,6.09,0,0,0-1.53-2.48,6.84,6.84,0,0,0-2.69-1.6,11.34,11.34,0,0,0-3.66-.55,14.86,14.86,0,0,0-4.25.61,14.48,14.48,0,0,0-3.77,1.68,14.25,14.25,0,0,0-3,2.5,15.08,15.08,0,0,0-2.05,2.76A31.38,31.38,0,0,0,433.1,159.4Z"/></svg>