<?xml version="1.0" encoding="UTF-8" standalone="no"?>
<svg
   xmlns:dc="http://purl.org/dc/elements/1.1/"
   xmlns:cc="http://creativecommons.org/ns#"
   xmlns:rdf="http://www.w3.org/1999/02/22-rdf-syntax-ns#"
   xmlns:svg="http://www.w3.org/2000/svg"
   xmlns="http://www.w3.org/2000/svg"
   viewBox="0 0 273.02499 362.14999"
   height="362.14999"
   width="273.02499"
   xml:space="preserve"
   version="1.1"
   id="svg2"><metadata
     id="metadata8"><rdf:RDF><cc:Work
         rdf:about=""><dc:format>image/svg+xml</dc:format><dc:type
           rdf:resource="http://purl.org/dc/dcmitype/StillImage" /></cc:Work></rdf:RDF></metadata><defs
     id="defs6" /><g
     transform="matrix(1.25,0,0,-1.25,0,362.15)"
     id="g10"><g
       transform="scale(0.1,0.1)"
       id="g12"><path
         id="path14"
         style="fill:#ffffff;fill-opacity:1;fill-rule:nonzero;stroke:none"
         d="m 0,1377.59 0,884.57 273.574,-881.51 189.821,1330.5 83.648,86.08 0.109,-1945.429 -93.613,98.371 L 452.5,2097.68 285.906,1118.08 70.3867,1838.8 70.2969,1310.78 0,1377.59" /><path
         id="path16"
         style="fill:#ffffff;fill-opacity:1;fill-rule:nonzero;stroke:none"
         d="m 692.184,2886.47 c 0,0 377.136,24.21 448.636,0 71.54,-24.21 256.46,-379.58 284.06,-444.03 27.56,-64.41 41.11,-284.01 -2.29,-363.39 -43.41,-79.42 -164.51,-142.19 -164.51,-142.19 0,0 130.67,-140.83 170.67,-205.86 40.01,-65.02 6.17,-548.93 0.68,-632.51 -5.47,-83.58 -61.78,-313.24 -121.1,-342.869 -59.37,-29.633 -616.146,0 -616.146,0 l 0,2033.599 149.996,32.26 -63.961,-1969.679 c 0,0 424.971,-3.52 477.141,22.078 52.16,25.59 103.23,237.461 103.23,237.461 0,0 9.34,502.04 -24.55,574.16 -33.89,72.05 -182.9,260.63 -182.9,260.63 0,0 125.49,126.13 168.16,177.14 42.58,51.07 39.47,210.17 23.34,291.5 -16.1,81.34 -181.3,364.28 -234.27,382.46 -52.98,18.22 -416.186,-8.01 -416.186,-8.01 l 0,97.25" /><path
         id="path18"
         style="fill:#ffffff;fill-opacity:1;fill-rule:nonzero;stroke:none"
         d="m 1555.68,2872.23 c 0,0 517.23,-505.02 587.45,-610.35 70.14,-105.35 36.77,-738.74 0,-877.66 -36.84,-138.91 -577.52,-589.392 -577.52,-589.392 l -9.93,1948.252 139.15,-121.37 -29.57,-1585.11 c 0,0 351.74,251.47 407.48,377.65 55.69,126.18 42.84,744.18 -0.51,820.7 -43.41,76.53 -516.55,473.69 -516.55,473.69 l 0,163.59" /><g
         transform="scale(10,10)"
         id="g20"><text
           id="text22"
           style="font-variant:normal;font-weight:normal;font-size:14.75669956px;font-family:Oswald;-inkscape-font-specification:Oswald-Regular;writing-mode:lr-tb;fill:#ffffff;fill-opacity:1;fill-rule:nonzero;stroke:none"
           transform="matrix(1,0,0,-1,19.5074,5.53984)"><tspan
             id="tspan24"
             y="0"
             x="0 10.610067 13.605678 19.807812 22.803423 30.963879 33.959488 37.870014 40.865623 48.48008 51.475693 59.414795 68.401627 76.665375 79.663666 87.647041 90.644119 98.253494 101.25057 109.55135 112.54843 120.48886 123.48594 131.46251 134.45958 143.2213 146.21837 154.38243 157.3795 164.98888 167.98596 176.62563">M E D I A S B R A N S C H D A G </tspan></text>
<text
           id="text26"
           style="font-variant:normal;font-weight:bold;font-size:26.56209946px;font-family:Oswald;-inkscape-font-specification:Oswald-Bold;writing-mode:lr-tb;fill:#ffffff;fill-opacity:1;fill-rule:nonzero;stroke:none"
           transform="matrix(1,0,0,-1,73.9566,30.61094)"><tspan
             id="tspan28"
             y="0"
             x="0 13.838854 19.156725 33.903828 39.221218 47.988796 53.306187">2 0 1 6</tspan></text>
</g></g></g></svg>