<?xml version="1.0" encoding="UTF-8" standalone="no"?>
<svg
   xmlns:dc="http://purl.org/dc/elements/1.1/"
   xmlns:cc="http://creativecommons.org/ns#"
   xmlns:rdf="http://www.w3.org/1999/02/22-rdf-syntax-ns#"
   xmlns:svg="http://www.w3.org/2000/svg"
   xmlns="http://www.w3.org/2000/svg"
   viewBox="0 0 73.025002 72.512497"
   height="72.512497"
   width="73.025002"
   xml:space="preserve"
   version="1.1"
   id="svg2"><metadata
     id="metadata8"><rdf:RDF><cc:Work
         rdf:about=""><dc:format>image/svg+xml</dc:format><dc:type
           rdf:resource="http://purl.org/dc/dcmitype/StillImage" /></cc:Work></rdf:RDF></metadata><defs
     id="defs6" /><g
     transform="matrix(1.25,0,0,-1.25,0,72.5125)"
     id="g10"><g
       transform="scale(0.1,0.1)"
       id="g12"><path
         id="path14"
         style="fill:#e5c51c;fill-opacity:1;fill-rule:nonzero;stroke:none"
         d="m 0,170.996 0,238.145 87.1484,-299.11 58.1016,444.942 15.98,15.371 0,-560.58619 L 142.129,28.7109 142.355,417.559 88.6094,82.3828 18.9414,295.156 18.9219,153 0,170.996" /><path
         id="path16"
         style="fill:#e5c51c;fill-opacity:1;fill-rule:nonzero;stroke:none"
         d="m 186.344,577.207 c 0,0 101.527,6.516 120.781,0 19.258,-6.512 69.043,-102.195 76.473,-119.539 7.422,-17.336 11.066,-76.457 -0.625,-97.832 -11.68,-21.387 -44.297,-38.273 -44.297,-38.273 0,0 35.195,-37.918 45.957,-55.43 10.762,-17.508 1.66,-147.781 0.195,-170.2814 -1.484,-22.5 -16.64,-84.336 -32.617,-92.30472 -15.977,-7.98047 -165.867,0 -165.867,0 l 0,554.57812 19.336,2.207 -12.168,-550.039 c 0,0 131.074,5.4414 145.117,12.3359 14.051,6.8945 27.117,76.6797 27.117,76.6797 0,0 9.57,138.9924 0.442,158.3984 -9.133,19.395 -56.29,66.356 -56.29,66.356 0,0 42.84,31.828 54.305,45.566 11.477,13.742 0.606,81.535 0.606,81.535 0,0 -53.731,102.07 -67.989,106.961 -14.257,4.902 -110.476,0 -110.476,0 l 0,19.082" /><path
         id="path18"
         style="fill:#e5c51c;fill-opacity:1;fill-rule:nonzero;stroke:none"
         d="m 409,577.207 c 0,0 155.594,-149.383 167.957,-168.144 12.344,-18.75 6.621,-217.235 0,-236.297 C 570.316,153.691 409,3.54688 409,3.54688 l 0,547.05112 10.43,-7.766 -0.235,-485.5468 c 0,0 129.422,112.7458 138.809,123.5668 9.394,10.82 7.625,213.211 -0.129,220.957 C 550.133,409.551 409,550.598 409,550.598 l 0,26.609" /></g></g></svg>