<?xml version="1.0" encoding="UTF-8" standalone="no"?>
<svg
   xmlns:dc="http://purl.org/dc/elements/1.1/"
   xmlns:cc="http://creativecommons.org/ns#"
   xmlns:rdf="http://www.w3.org/1999/02/22-rdf-syntax-ns#"
   xmlns:svg="http://www.w3.org/2000/svg"
   xmlns="http://www.w3.org/2000/svg"
   viewBox="0 0 92.212502 117.175"
   height="117.175"
   width="92.212502"
   xml:space="preserve"
   version="1.1"
   id="svg2"><metadata
     id="metadata8"><rdf:RDF><cc:Work
         rdf:about=""><dc:format>image/svg+xml</dc:format><dc:type
           rdf:resource="http://purl.org/dc/dcmitype/StillImage" /></cc:Work></rdf:RDF></metadata><defs
     id="defs6" /><g
     transform="matrix(1.25,0,0,-1.25,0,117.175)"
     id="g10"><g
       transform="scale(0.1,0.1)"
       id="g12"><path
         id="path14"
         style="fill:#434546;fill-opacity:1;fill-rule:nonzero;stroke:none"
         d="m 9.5625,428.801 0,296.043 108.3325,-371.836 72.234,553.125 19.859,19.105 0,-696.886 -23.742,23.562 0.277,483.395 L 119.711,318.645 33.1055,583.145 33.082,406.426 9.5625,428.801" /><path
         id="path16"
         style="fill:#434546;fill-opacity:1;fill-rule:nonzero;stroke:none"
         d="m 241.211,933.773 c 0,0 126.211,8.098 150.144,0 23.942,-8.093 85.833,-127.046 95.067,-148.605 9.223,-21.551 13.758,-95.047 -0.77,-121.617 -14.515,-26.586 -55.066,-47.578 -55.066,-47.578 0,0 43.738,-47.141 57.129,-68.907 13.383,-21.761 2.07,-183.714 0.234,-211.683 -1.832,-27.973 -20.679,-104.848 -40.539,-114.746 -19.855,-9.922 -206.199,0 -206.199,0 l 0,689.418 24.039,2.742 -15.129,-683.774 c 0,0 162.945,6.758 180.402,15.332 17.461,8.575 33.715,95.325 33.715,95.325 0,0 11.883,172.793 0.543,196.914 -11.351,24.105 -69.976,82.488 -69.976,82.488 0,0 53.254,39.563 67.519,56.645 14.258,17.082 0.739,101.359 0.739,101.359 0,0 -66.79,126.883 -84.512,132.969 -17.727,6.093 -137.34,0 -137.34,0 l 0,23.718" /><path
         id="path18"
         style="fill:#434546;fill-opacity:1;fill-rule:nonzero;stroke:none"
         d="m 518.004,933.773 c 0,0 193.422,-185.707 208.793,-209.027 15.351,-23.305 8.23,-270.058 0,-293.75 -8.25,-23.711 -208.793,-210.359 -208.793,-210.359 l 0,680.054 12.965,-9.652 -0.293,-603.598 c 0,0 160.894,140.157 172.554,153.606 11.68,13.457 9.485,265.051 -0.156,274.68 -9.629,9.625 -185.07,184.964 -185.07,184.964 l 0,33.082" /><path
         id="path20"
         style="fill:#434546;fill-opacity:1;fill-rule:nonzero;stroke:none"
         d="m 273.344,0.546875 0,7.773435 13.629,19.42189 c 0.16,0.2187 0.515,0.7148 1.058,1.4687 0.547,0.7618 0.914,1.2774 1.094,1.5508 0.184,0.2617 0.5,0.7539 0.941,1.4571 0.442,0.6914 0.754,1.2265 0.926,1.5976 0.176,0.3828 0.403,0.918 0.703,1.5938 0.293,0.6914 0.496,1.3086 0.618,1.8476 0.125,0.5352 0.23,1.1719 0.332,1.8828 0.105,0.711 0.152,1.4453 0.152,2.1992 0,2.1563 -0.496,4.004 -1.504,5.5079 -0.996,1.5039 -2.441,2.2539 -4.32,2.2539 -1.114,0 -2.067,-0.2618 -2.852,-0.8203 -0.793,-0.5391 -1.391,-1.3008 -1.812,-2.2735 -0.414,-0.9687 -0.707,-2.0039 -0.895,-3.0781 -0.18,-1.082 -0.269,-2.2656 -0.269,-3.5352 l 0,-1.9453 -7.77,0 0,1.9453 c 0,5.0977 1.094,9.0508 3.273,11.875 2.192,2.8008 5.633,4.2071 10.325,4.2071 4.414,0 7.785,-1.2383 10.105,-3.7071 2.324,-2.4843 3.488,-5.9687 3.488,-10.4297 0,-1.6835 -0.14,-3.2539 -0.433,-4.707 -0.297,-1.4687 -0.77,-2.8437 -1.399,-4.1836 -0.644,-1.3359 -1.222,-2.4375 -1.761,-3.3086 -0.535,-0.8789 -1.282,-1.9843 -2.231,-3.3398 l -13.597,-17.48049 19.421,0 0,-7.773435 -27.222,0" /><path
         id="path22"
         style="fill:#434546;fill-opacity:1;fill-rule:nonzero;stroke:none"
         d="m 343.906,6.37891 c 3.887,0 5.828,3.23828 5.828,9.70699 l 0,23.3086 c 0,1.0938 -0.043,2.0586 -0.121,2.9297 -0.078,0.8594 -0.25,1.7305 -0.496,2.6094 -0.254,0.8867 -0.594,1.6094 -1.008,2.207 -0.414,0.586 -0.968,1.0508 -1.683,1.4219 -0.707,0.3633 -1.547,0.5391 -2.52,0.5391 -0.968,0 -1.804,-0.1758 -2.519,-0.5391 -0.707,-0.3711 -1.266,-0.8359 -1.68,-1.4219 -0.422,-0.5976 -0.754,-1.3203 -1.008,-2.207 -0.246,-0.8789 -0.418,-1.75 -0.496,-2.6094 -0.078,-0.8711 -0.121,-1.8359 -0.121,-2.9297 l 0,-23.3086 c 0,-1.2734 0.082,-2.4531 0.254,-3.5195 0.176,-1.0742 0.469,-2.0898 0.887,-3.06249 0.41,-0.96875 1.011,-1.73047 1.8,-2.29688 0.793,-0.55859 1.75,-0.82812 2.883,-0.82812 z M 343.906,0 c -2.953,0 -5.468,0.691406 -7.539,2.10156 -2.074,1.38282 -3.601,3.28125 -4.586,5.65235 -0.98,2.38279 -1.468,5.14449 -1.468,8.33199 l 0,23.3086 c 0,5 1.132,8.9258 3.398,11.7891 2.266,2.8594 5.664,4.293 10.195,4.293 4.512,0 7.907,-1.4336 10.188,-4.3047 2.269,-2.8828 3.41,-6.7969 3.41,-11.7774 l 0,-23.3086 c 0,-4.8867 -1.156,-8.78121 -3.473,-11.69918 C 351.715,1.45313 348.34,0 343.906,0" /><path
         id="path24"
         style="fill:#434546;fill-opacity:1;fill-rule:nonzero;stroke:none"
         d="m 393.438,0.546875 0,42.734425 -5.825,0 0,5.8203 c 3.903,1.3945 6.492,3.3398 7.77,5.832 l 5.828,0 0,-54.386725 -7.773,0" /><path
         id="path26"
         style="fill:#434546;fill-opacity:1;fill-rule:nonzero;stroke:none"
         d="m 444.488,7.19531 c 0.789,-0.55468 1.742,-0.8164 2.856,-0.8164 1.109,0 2.058,0.26172 2.851,0.8164 0.785,0.53907 1.387,1.30078 1.809,2.27735 0.414,0.96484 0.711,2.00394 0.891,3.07814 0.179,1.082 0.273,2.2617 0.273,3.5351 0,0.7618 0,1.3477 0,1.7461 0,0.3907 -0.016,0.9453 -0.047,1.6797 -0.023,0.7227 -0.07,1.2969 -0.125,1.6797 -0.047,0.4102 -0.121,0.8984 -0.203,1.5117 -0.098,0.6055 -0.215,1.0742 -0.352,1.4063 -0.14,0.3437 -0.316,0.7265 -0.539,1.1953 -0.203,0.4492 -0.453,0.7969 -0.734,1.043 -0.289,0.2343 -0.609,0.4765 -0.973,0.7226 -0.367,0.2422 -0.793,0.4102 -1.273,0.5274 -0.488,0.0976 -1.016,0.1445 -1.578,0.1445 -2.508,0 -4.453,-1.2969 -5.828,-3.8867 l 0,-7.7696 c 0,-1.3007 0.089,-2.4726 0.269,-3.5468 0.184,-1.0743 0.481,-2.1016 0.895,-3.06644 0.418,-0.97657 1.019,-1.73828 1.808,-2.27735 z M 447.344,0 c -1.864,0 -3.555,0.3125 -5.071,0.9375 -1.515,0.625 -2.8,1.49609 -3.839,2.57813 -1.039,1.09375 -1.918,2.41406 -2.637,3.93359 -0.723,1.53516 -1.246,3.17578 -1.567,4.94528 -0.324,1.7774 -0.484,3.6524 -0.484,5.6328 l 0,17.4805 c 0,2.2266 0.133,4.2891 0.395,6.1797 0.257,1.8984 0.714,3.7031 1.363,5.4297 0.648,1.7305 1.476,3.2031 2.488,4.4141 1.016,1.2109 2.317,2.1796 3.899,2.8945 1.589,0.7031 3.406,1.0508 5.453,1.0508 4.371,0 7.722,-1.2383 10.074,-3.7071 2.348,-2.4843 3.52,-5.9687 3.52,-10.4297 l -7.77,0 c 0,2.586 -0.418,4.5274 -1.266,5.8282 -0.832,1.3008 -2.355,1.9336 -4.558,1.9336 -3.887,0 -5.828,-3.875 -5.828,-11.6524 l 0,-7.7695 c 1.496,2.5859 4.086,3.8828 7.765,3.8828 2.188,0 4.059,-0.3711 5.602,-1.1406 1.555,-0.75 2.754,-1.8555 3.613,-3.3008 0.859,-1.4453 1.484,-3.0664 1.863,-4.875 0.383,-1.7969 0.579,-3.875 0.579,-6.2188 0,-2.5507 -0.254,-4.8828 -0.758,-6.9921 -0.5,-2.10942 -1.289,-4.01567 -2.336,-5.69145 -1.051,-1.68359 -2.473,-2.99219 -4.25,-3.9375 C 451.816,0.46875 449.727,0 447.344,0" /><path
         id="path28"
         style="fill:#434546;fill-opacity:1;fill-rule:nonzero;stroke:none"
         d="m 0,97.4102 0,54.3868 10.7422,0 7.7109,-41.641 7.7071,41.641 10.7461,0 0,-54.3868 -7.7696,0 0,42.9098 -7.7695,-42.9098 -5.832,0 -7.76567,42.9098 0,-42.9098 -7.76953,0" /><path
         id="path30"
         style="fill:#434546;fill-opacity:1;fill-rule:nonzero;stroke:none"
         d="m 57.3008,97.4102 0,54.3868 21.3672,0 0,-5.828 -13.5977,0 0,-17.485 9.711,0 0,-5.82 -9.711,0 0,-19.422 13.5977,0 0,-5.8318 -21.3672,0" /><path
         id="path32"
         style="fill:#434546;fill-opacity:1;fill-rule:nonzero;stroke:none"
         d="m 103.828,103.242 4.277,0 c 1.274,0 2.368,0.117 3.282,0.352 0.91,0.222 1.648,0.652 2.211,1.269 0.566,0.625 1.015,1.2 1.34,1.758 0.32,0.567 0.55,1.426 0.675,2.59 0.133,1.18 0.215,2.144 0.231,2.898 0.019,0.774 0.035,1.946 0.035,3.536 0,0.539 0,0.925 0,1.191 l 0,17.48 c 0,0.997 -0.012,1.786 -0.02,2.364 -0.007,0.586 -0.039,1.281 -0.089,2.082 -0.051,0.797 -0.125,1.433 -0.227,1.89 -0.105,0.469 -0.246,0.996 -0.426,1.567 -0.179,0.586 -0.41,1.035 -0.679,1.344 -0.278,0.332 -0.61,0.675 -1.008,1.027 -0.387,0.351 -0.852,0.613 -1.36,0.793 -0.523,0.164 -1.125,0.308 -1.804,0.418 -0.692,0.105 -1.461,0.168 -2.313,0.168 l -4.125,0 0,-42.727 z m -7.7694,-5.8318 0,54.3868 12.0464,0 c 5.688,0 9.7,-1.16 12.036,-3.496 2.336,-2.317 3.507,-6.336 3.507,-12.039 l 0,-21.367 c 0,-5.981 -1.191,-10.383 -3.566,-13.223 -2.379,-2.8439 -6.391,-4.2618 -12.035,-4.2618 l -11.9884,0" /><path
         id="path34"
         style="fill:#434546;fill-opacity:1;fill-rule:nonzero;stroke:none"
         d="m 143.434,97.4102 7.76563,0 0,54.3867 -7.76563,0 0,-54.3867 z" /><path
         id="path36"
         style="fill:#434546;fill-opacity:1;fill-rule:nonzero;stroke:none"
         d="m 180.398,116.836 7.77,0 -3.883,23.309 -3.887,-23.309 z m -11.652,-19.4258 11.652,54.3868 7.77,0 11.656,-54.3868 -7.769,0 -2.914,13.5978 -9.711,0 -2.914,-13.5978 -7.77,0" /><path
         id="path38"
         style="fill:#434546;fill-opacity:1;fill-rule:nonzero;stroke:none"
         d="m 230.996,96.8633 c -4.902,0 -8.637,1.4375 -11.211,4.3087 -2.59,2.883 -4.027,6.797 -4.332,11.777 l 7.77,1.946 c 0.386,-7.778 2.976,-11.653 7.773,-11.653 3.883,0 5.824,1.942 5.824,5.821 0,1.152 -0.156,2.226 -0.468,3.21 -0.313,0.981 -0.793,1.875 -1.446,2.688 -0.648,0.828 -1.23,1.484 -1.758,1.98 -0.527,0.5 -1.246,1.106 -2.152,1.836 l -9.719,7.766 c -1.773,1.395 -3.195,3.176 -4.261,5.332 -1.059,2.148 -1.59,4.602 -1.59,7.363 0,4.004 1.246,7.196 3.734,9.551 2.485,2.383 5.781,3.555 9.895,3.555 4.414,0 7.914,-1.074 10.515,-3.235 2.598,-2.156 4.2,-5.203 4.809,-9.148 0.059,-0.422 0.133,-1.008 0.211,-1.758 l -7.77,-1.941 c -0.019,0.34 -0.074,0.855 -0.148,1.551 -0.348,2.46 -1.121,4.445 -2.32,5.925 -1.207,1.496 -2.973,2.231 -5.297,2.231 -1.867,0 -3.297,-0.52 -4.313,-1.567 -1.012,-1.043 -1.519,-2.488 -1.519,-4.351 0,-3.047 1.293,-5.617 3.886,-7.68 l 9.711,-7.762 c 5.176,-4.187 7.77,-9.211 7.77,-15.031 0,-3.98 -1.231,-7.09 -3.684,-9.351 -2.465,-2.2309 -5.765,-3.3637 -9.91,-3.3637" /><path
         id="path40"
         style="fill:#434546;fill-opacity:1;fill-rule:nonzero;stroke:none"
         d="m 295.914,103.242 3.883,0 c 3.355,0 5.816,0.774 7.375,2.317 1.558,1.55 2.34,4.019 2.34,7.39 0,3.379 -0.782,5.84 -2.34,7.395 -1.559,1.543 -4.02,2.32 -7.375,2.32 l -3.883,0 0,-19.422 z m 0,25.242 3.883,0 c 6.476,0 9.715,3.243 9.715,9.719 0,1.067 -0.137,2.012 -0.395,2.844 -0.265,0.808 -0.578,1.504 -0.941,2.039 -0.363,0.559 -0.918,1.008 -1.653,1.379 -0.742,0.379 -1.418,0.672 -2.019,0.879 -0.609,0.191 -1.477,0.34 -2.594,0.437 -1.129,0.078 -2.066,0.137 -2.808,0.164 -0.747,0.012 -1.813,0.024 -3.188,0.024 l 0,-17.485 z m -7.769,-31.0738 0,54.3868 11.652,0 c 2.508,0 4.754,-0.266 6.734,-0.789 1.989,-0.52 3.719,-1.32 5.211,-2.395 1.481,-1.074 2.629,-2.5 3.422,-4.25 0.805,-1.765 1.203,-3.816 1.203,-6.16 0,-3.398 -0.715,-5.984 -2.152,-7.754 -1.442,-1.777 -3.652,-3.078 -6.649,-3.906 3.235,-1.066 5.664,-2.648 7.289,-4.719 1.622,-2.078 2.426,-5.027 2.426,-8.875 0,-4.797 -1.39,-8.586 -4.176,-11.355 -2.785,-2.7854 -6.574,-4.1838 -11.367,-4.1838 l -13.593,0" /><path
         id="path42"
         style="fill:#434546;fill-opacity:1;fill-rule:nonzero;stroke:none"
         d="m 343.32,128.484 1.946,0 c 3.23,0 5.664,0.688 7.277,2.051 1.621,1.367 2.434,3.598 2.434,6.692 0,3.093 -0.813,5.332 -2.434,6.687 -1.613,1.379 -4.047,2.055 -7.277,2.055 l -1.946,0 0,-17.485 z m -7.769,-31.0738 0,54.3868 9.715,0 c 5.781,0 10.144,-1.113 13.078,-3.367 2.929,-2.239 4.398,-5.981 4.398,-11.203 0,-3.243 -0.574,-5.95 -1.726,-8.125 -1.157,-2.188 -2.84,-3.68 -5.071,-4.493 l 8.743,-27.1988 -7.711,0 -7.832,25.2538 -5.825,0 0,-25.2538 -7.769,0" /><path
         id="path44"
         style="fill:#434546;fill-opacity:1;fill-rule:nonzero;stroke:none"
         d="m 390.059,116.836 7.769,0 -3.883,23.309 -3.886,-23.309 z m -11.657,-19.4258 11.657,54.3868 7.769,0 11.652,-54.3868 -7.765,0 -2.914,13.5978 -9.715,0 -2.914,-13.5978 -7.77,0" /><path
         id="path46"
         style="fill:#434546;fill-opacity:1;fill-rule:nonzero;stroke:none"
         d="m 426.48,97.4102 0,54.3868 5.825,0 13.597,-33.621 0,33.621 7.77,0 0,-54.3868 -5.524,0 -13.902,36.1758 0,-36.1758 -7.766,0" /><path
         id="path48"
         style="fill:#434546;fill-opacity:1;fill-rule:nonzero;stroke:none"
         d="m 488.242,96.8633 c -4.902,0 -8.637,1.4375 -11.211,4.3087 -2.59,2.883 -4.023,6.797 -4.332,11.777 l 7.77,1.946 c 0.386,-7.778 2.976,-11.653 7.773,-11.653 3.883,0 5.824,1.942 5.824,5.821 0,1.152 -0.156,2.226 -0.461,3.21 -0.32,0.981 -0.796,1.875 -1.449,2.688 -0.648,0.828 -1.234,1.484 -1.761,1.98 -0.528,0.5 -1.247,1.106 -2.153,1.836 l -9.711,7.766 c -1.785,1.395 -3.199,3.176 -4.269,5.332 -1.059,2.148 -1.59,4.602 -1.59,7.363 0,4.004 1.246,7.196 3.734,9.551 2.485,2.383 5.782,3.555 9.895,3.555 4.414,0 7.914,-1.074 10.515,-3.235 2.598,-2.156 4.204,-5.203 4.809,-9.148 0.059,-0.422 0.133,-1.008 0.211,-1.758 l -7.77,-1.941 c -0.011,0.34 -0.074,0.855 -0.148,1.551 -0.348,2.46 -1.121,4.445 -2.32,5.925 -1.207,1.496 -2.977,2.231 -5.297,2.231 -1.867,0 -3.297,-0.52 -4.313,-1.567 -1.011,-1.043 -1.519,-2.488 -1.519,-4.351 0,-3.047 1.293,-5.617 3.886,-7.68 l 9.711,-7.762 c 5.18,-4.187 7.77,-9.211 7.77,-15.031 0,-3.98 -1.231,-7.09 -3.684,-9.351 -2.464,-2.2309 -5.765,-3.3637 -9.91,-3.3637" /><path
         id="path50"
         style="fill:#434546;fill-opacity:1;fill-rule:nonzero;stroke:none"
         d="m 534.102,96.8633 c -2.286,0 -4.297,0.332 -6.043,0.9687 -1.743,0.6446 -3.164,1.543 -4.282,2.688 -1.105,1.14 -2.007,2.578 -2.718,4.285 -0.688,1.711 -1.18,3.535 -1.465,5.476 -0.285,1.946 -0.422,4.145 -0.422,6.574 l 0,15.516 c 0,2.453 0.137,4.641 0.422,6.582 0.285,1.945 0.777,3.781 1.465,5.488 0.711,1.711 1.613,3.137 2.718,4.258 1.118,1.137 2.539,2.031 4.282,2.68 1.746,0.641 3.757,0.965 6.043,0.965 2.531,0 4.714,-0.371 6.55,-1.121 1.848,-0.746 3.313,-1.848 4.426,-3.313 1.094,-1.457 1.926,-3.144 2.481,-5.066 0.554,-1.926 0.886,-4.172 0.988,-6.731 0.016,-0.39 0.027,-0.984 0.027,-1.797 l -7.761,0 0,1.731 c -0.02,1.07 -0.071,1.98 -0.129,2.754 -0.059,0.75 -0.164,1.543 -0.332,2.344 -0.164,0.808 -0.403,1.492 -0.711,2.019 -0.317,0.535 -0.703,1.035 -1.184,1.484 -0.477,0.457 -1.074,0.79 -1.809,1.004 -0.73,0.207 -1.582,0.317 -2.546,0.317 -1.258,0 -2.332,-0.207 -3.235,-0.61 -0.894,-0.398 -1.609,-0.918 -2.105,-1.558 -0.508,-0.637 -0.903,-1.496 -1.164,-2.563 -0.285,-1.074 -0.457,-2.129 -0.535,-3.14 -0.083,-1.028 -0.129,-2.289 -0.129,-3.782 l 0,-19.421 c 0,-1.301 0.058,-2.461 0.175,-3.516 0.11,-1.066 0.325,-2.109 0.645,-3.149 0.32,-1.042 0.754,-1.921 1.262,-2.625 0.515,-0.703 1.211,-1.269 2.058,-1.71 0.867,-0.438 1.875,-0.653 3.028,-0.653 1.152,0 2.136,0.215 2.968,0.664 0.84,0.449 1.485,1.004 1.961,1.699 0.481,0.696 0.852,1.563 1.125,2.637 0.274,1.074 0.449,2.117 0.528,3.137 0.078,1.004 0.129,2.176 0.129,3.516 l 0,1.941 7.761,0 0,-1.941 c 0,-2.817 -0.246,-5.286 -0.742,-7.407 -0.488,-2.129 -1.301,-4.011 -2.394,-5.633 -1.102,-1.628 -2.606,-2.8628 -4.493,-3.7105 -1.89,-0.8593 -4.175,-1.2812 -6.843,-1.2812" /><path
         id="path52"
         style="fill:#434546;fill-opacity:1;fill-rule:nonzero;stroke:none"
         d="m 566.367,97.4102 0,54.3868 7.766,0 0,-23.313 13.594,0 0,23.313 7.769,0 0,-54.3868 -7.769,0 0,25.2538 -13.594,0 0,-25.2538 -7.766,0" /><path
         id="path54"
         style="fill:#434546;fill-opacity:1;fill-rule:nonzero;stroke:none"
         d="m 623.66,103.242 4.278,0 c 1.281,0 2.375,0.117 3.285,0.352 0.906,0.222 1.648,0.652 2.215,1.269 0.566,0.625 1.015,1.2 1.335,1.758 0.325,0.567 0.547,1.426 0.676,2.59 0.137,1.18 0.215,2.144 0.235,2.898 0.019,0.774 0.031,1.946 0.031,3.536 0,0.539 0,0.925 0,1.191 l 0,17.48 c 0,0.997 -0.012,1.786 -0.024,2.364 -0.007,0.586 -0.039,1.281 -0.086,2.082 -0.046,0.797 -0.125,1.433 -0.222,1.89 -0.11,0.469 -0.246,0.996 -0.434,1.567 -0.176,0.586 -0.406,1.035 -0.672,1.344 -0.285,0.332 -0.617,0.675 -1.015,1.027 -0.379,0.351 -0.852,0.613 -1.36,0.793 -0.515,0.164 -1.121,0.308 -1.804,0.418 -0.684,0.105 -1.453,0.168 -2.305,0.168 l -4.133,0 0,-42.727 z m -7.762,-5.8318 0,54.3868 12.04,0 c 5.695,0 9.699,-1.16 12.042,-3.496 2.333,-2.317 3.497,-6.336 3.497,-12.039 l 0,-21.367 c 0,-5.981 -1.18,-10.383 -3.555,-13.223 -2.383,-2.8439 -6.399,-4.2618 -12.039,-4.2618 l -11.985,0" /><path
         id="path56"
         style="fill:#434546;fill-opacity:1;fill-rule:nonzero;stroke:none"
         d="m 671.16,116.836 7.766,0 -3.875,23.309 -3.891,-23.309 z m -11.656,-19.4258 11.656,54.3868 7.766,0 11.66,-54.3868 -7.773,0 -2.911,13.5978 -9.714,0 -2.915,-13.5978 -7.769,0" /><path
         id="path58"
         style="fill:#434546;fill-opacity:1;fill-rule:nonzero;stroke:none"
         d="m 722.148,96.8633 c -2.492,0 -4.648,0.3555 -6.484,1.0586 -1.836,0.7109 -3.309,1.6797 -4.473,2.8871 -1.14,1.211 -2.07,2.765 -2.761,4.64 -0.696,1.895 -1.164,3.867 -1.418,5.946 -0.274,2.089 -0.403,4.496 -0.403,7.199 l 0,13.777 c 0,13.32 5.286,19.973 15.84,19.973 2.531,0 4.731,-0.371 6.582,-1.145 1.867,-0.75 3.371,-1.851 4.532,-3.308 1.156,-1.457 2.023,-3.172 2.609,-5.125 0.586,-1.957 0.918,-4.211 1.035,-6.77 0.012,-0.371 0.027,-0.93 0.027,-1.68 l -7.761,0 0,1.641 c -0.032,1.27 -0.098,2.363 -0.215,3.289 -0.11,0.918 -0.305,1.828 -0.606,2.719 -0.285,0.887 -0.683,1.621 -1.203,2.176 -0.496,0.554 -1.16,0.996 -2.011,1.328 -0.836,0.332 -1.833,0.5 -2.989,0.5 -1.57,0 -2.906,-0.285 -3.992,-0.864 -1.074,-0.574 -1.902,-1.414 -2.488,-2.515 -0.571,-1.106 -0.981,-2.324 -1.223,-3.645 -0.242,-1.328 -0.371,-2.871 -0.371,-4.629 l 0,-17.48 c 0,-1.301 0.039,-2.461 0.129,-3.508 0.086,-1.043 0.215,-2.098 0.406,-3.183 0.188,-1.082 0.481,-2.032 0.852,-2.801 0.383,-0.801 0.84,-1.504 1.394,-2.149 0.559,-0.636 1.25,-1.125 2.09,-1.457 0.852,-0.332 1.809,-0.496 2.902,-0.496 1.297,0 2.415,0.254 3.36,0.75 0.969,0.512 1.719,1.164 2.273,1.965 0.547,0.801 0.996,1.809 1.321,3.047 0.324,1.238 0.539,2.461 0.644,3.68 0.109,1.211 0.176,2.597 0.176,4.152 l 0,1.941 -7.774,0 0,5.762 15.54,0 0,-27.1288 -5.825,0 -1.941,5.8318 c -1.524,-4.2498 -4.121,-6.3787 -7.774,-6.3787" /></g></g></svg>