<?xml version="1.0" encoding="UTF-8" standalone="no"?>
<svg
   xmlns:dc="http://purl.org/dc/elements/1.1/"
   xmlns:cc="http://creativecommons.org/ns#"
   xmlns:rdf="http://www.w3.org/1999/02/22-rdf-syntax-ns#"
   xmlns:svg="http://www.w3.org/2000/svg"
   xmlns="http://www.w3.org/2000/svg"
   viewBox="0 0 254.05 250.625"
   height="250.625"
   width="254.05"
   xml:space="preserve"
   version="1.1"
   id="svg2"><metadata
     id="metadata8"><rdf:RDF><cc:Work
         rdf:about=""><dc:format>image/svg+xml</dc:format><dc:type
           rdf:resource="http://purl.org/dc/dcmitype/StillImage" /></cc:Work></rdf:RDF></metadata><defs
     id="defs6" /><g
     transform="matrix(1.25,0,0,-1.25,0,250.625)"
     id="g10"><g
       transform="scale(0.1,0.1)"
       id="g12"><path
         id="path14"
         style="fill:#e5c51c;fill-opacity:1;fill-rule:nonzero;stroke:none"
         d="M 0,591.012 0,1414.11 254.566,593.852 402.984,1809.9 508.969,1911.99 509.133,101.75 422.02,193.289 421,1261.05 265.992,349.531 65.4336,1020.14 65.3867,528.84 0,591.012" /><path
         id="path16"
         style="fill:#e5c51c;fill-opacity:1;fill-rule:nonzero;stroke:none"
         d="m 644.059,1995.04 c 0,0 350.925,22.51 417.441,0 66.56,-22.52 238.63,-353.24 264.33,-413.18 25.63,-59.94 38.24,-264.27 -2.15,-338.13 -40.35,-73.91 -153.09,-132.35 -153.09,-132.35 0,0 121.6,-131.04 158.83,-191.552 37.22,-60.496 5.73,-510.758 0.63,-588.539 -5.08,-77.769 -57.5,-291.4687 -112.68,-319.039 -55.2,-27.5703 -573.311,0 -573.311,0 l 0,1892.3 139.589,30.01 -59.539,-1832.81 c 0,0 395.471,-3.2695 443.961,20.539 48.6,23.82 96.07,220.973 96.07,220.973 0,0 8.75,467.16 -22.8,534.258 -31.54,67.039 -170.24,242.49 -170.24,242.49 0,0 116.82,117.39 156.51,164.86 39.64,47.52 36.69,195.57 21.72,271.24 -15.02,75.69 -168.74,338.98 -217.98,355.88 -49.295,16.95 -387.291,-7.44 -387.291,-7.44 l 0,90.49" /><path
         id="path18"
         style="fill:#e5c51c;fill-opacity:1;fill-rule:nonzero;stroke:none"
         d="m 1447.58,1981.79 c 0,0 481.29,-469.92 546.58,-567.95 65.32,-98.02 34.26,-687.399 0,-816.668 C 1959.93,467.91 1456.75,48.7305 1456.75,48.7305 l -9.17,1812.8795 129.49,-112.96 -27.52,-1474.931 c 0,0 327.29,233.992 379.11,351.402 51.86,117.418 39.91,692.469 -0.48,763.679 -40.34,71.2 -480.6,440.76 -480.6,440.76 l 0,152.23" /></g></g></svg>