<?xml version="1.0" encoding="utf-8"?>
<!-- Generator: Adobe Illustrator 21.0.0, SVG Export Plug-In . SVG Version: 6.00 Build 0)  -->
<svg version="1.1" xmlns="http://www.w3.org/2000/svg" xmlns:xlink="http://www.w3.org/1999/xlink" x="0px" y="0px"
	 viewBox="0 0 1146.5 512.5" style="enable-background:new 0 0 1146.5 512.5;" xml:space="preserve">
<g id="Lager_1">
</g>
<g id="Lager_2">
	<g>
		<g>
			<path d="M117.7,281.7c0-5.6,0-11.1,0-16.6c0-10.1,0.1-20.2,0-30.3c0-3,0.9-5.6,2.8-7.8c0.7-0.8,1.4-1.6,2.1-2.3
				c34.4-34.4,68.9-68.9,103.3-103.3c1.8-1.8,3.8-3.5,5.9-4.8c4.3-2.7,7.6-0.8,7.6,4.3c0,4.3,0,8.7,0,13c0,48.5,0,97,0,145.4
				c0,0.7,0,1.5,0,2.4C198.9,281.7,158.4,281.7,117.7,281.7z"/>
			<path d="M246.4,230.7c40.7,0,81.1,0,121.8,0c0,0.6,0,1.2,0,1.9c0,52.7,0,105.4,0,158.1c0,2.3,0,4.7-2.4,5.9
				c-2.3,1.2-4.4,0-6.3-1.4c-1.6-1.1-3.1-2.4-4.5-3.8c-34.7-34.7-69.4-69.4-104.1-104c-3.1-3.1-4.7-6.4-4.6-10.9
				c0.2-14.6,0.1-29.1,0-43.7C246.4,232.2,246.4,231.6,246.4,230.7z"/>
		</g>
		<g>
			<path d="M805.4,209.1c0-3.6,0-6.7,0-10c6.7,0,13.2,0,19.9,0c0,60,0,119.9,0,180c-7.2,0-14.4,0-21.8,0c0-22.1,0-44,0-66.4
				c-0.5,0.4-0.8,0.6-1,0.9c-21.2,21.2-51.5,17.7-69.9,1.9c-10.8-9.3-17-21.3-19.8-35.1c-3.3-16.8-2.5-33.3,4.7-49
				c8.1-17.9,21.5-29.8,40.9-34c16.7-3.6,31.8,0.3,45.4,10.5C804.2,208.2,804.6,208.5,805.4,209.1z M803.4,259.6
				c0-10.9,0-21.8,0-32.7c0-1.1-0.4-1.8-1.3-2.4c-7.5-4.8-15.5-8-24.4-9c-14.8-1.6-26.8,3.3-35.5,15.5c-5.6,7.8-8,16.8-8.6,26.2
				c-0.7,10.6,0.6,21,5.7,30.5c7,13.1,17.8,20.8,32.9,21.1c12.4,0.2,22.4-5.4,30.5-14.5c0.5-0.5,0.6-1.5,0.6-2.2
				C803.4,281.3,803.4,270.4,803.4,259.6z"/>
			<path d="M542.3,209.1c0-3.6,0-6.7,0-10c6.7,0,13.2,0,20,0c0,0.6,0,1.3,0,2c0,31,0,61.9,0,92.9c0,2,0.1,4,0.4,5.9
				c1.1,6.2,5,9.4,12,10.1c0.6,0.1,1.1,0.1,1.9,0.1c-1.5,5.7-3.1,11.3-4.6,17c-6.4,0-12.5-0.9-17.9-4.3c-5.5-3.4-8.6-8.6-10.3-14.9
				c-1.3,1.6-2.5,3.1-3.8,4.5c-10.9,12.1-24.6,17.3-40.7,15.7c-23-2.2-38.7-14.8-46.9-36c-8.7-22.6-7.7-45.2,4.2-66.6
				c9.3-16.7,23.8-26.4,42.9-28.9c15.3-2,29,2,41.3,11.3C541.1,208.3,541.6,208.6,542.3,209.1z M540.4,259.3c0-10.8,0-21.6,0-32.4
				c0-1.1-0.3-1.8-1.3-2.4c-9-5.8-18.7-9.2-29.4-9.3c-13.8-0.1-24.7,5.5-32.3,17.1c-5,7.6-7.2,16.1-7.9,25.1
				c-0.7,10.2,0.5,20.1,5.1,29.3c6.9,13.8,17.8,21.8,33.5,22.2c12.9,0.3,23.2-5.5,31.6-15c0.5-0.5,0.6-1.5,0.6-2.2
				C540.4,280.9,540.4,270.1,540.4,259.3z"/>
			<path d="M687.8,205.4c-2,5.8-4,11.7-6,17.7c-0.5-0.2-0.8-0.3-1.1-0.5c-11.4-6.3-23.6-8.8-36.5-8c-6.1,0.4-11.9,2-16.7,6.1
				c-4.2,3.6-6.2,8.1-4.7,13.6c0.9,3.4,3.3,5.9,6.3,7.4c5.1,2.6,10.3,5,15.7,7c8.3,3.1,16.7,5.7,24.3,10.1c3.1,1.7,6,3.7,8.8,5.9
				c8.9,7,12.8,16.3,12.6,27.5c-0.4,14.9-8.3,24.6-21.3,30.6c-7.6,3.5-15.6,5-23.9,5.4c-13.3,0.7-26.3-0.9-38.6-6.1
				c-4.2-1.8-8.1-3.9-11.8-6.9c3.1-6.1,6.1-12.1,9.2-18c14.6,11,30.9,14.2,48.5,10.9c3.1-0.6,6.3-1.9,9-3.5
				c7.4-4.5,9.1-14.1,3.6-20.8c-2.2-2.6-5.1-4.8-8-6.5c-6.8-4.1-14.3-6.5-21.7-9.1c-6.6-2.3-13-4.9-18.9-8.7
				c-8.3-5.4-13.7-12.7-15.1-22.7c-2.3-16.5,6-27.7,17.9-34c7.9-4.2,16.5-6.1,25.4-6.5c14.4-0.7,28.3,1.6,41.4,7.9
				c0.5,0.3,1,0.5,1.5,0.8C687.5,205.1,687.6,205.2,687.8,205.4z"/>
			<path d="M950.7,325.6c-7.7,0-15.2,0-22.9,0c0-56.8,0-113.5,0-170.3c7.6,0,15.2,0,22.9,0C950.7,212,950.7,268.7,950.7,325.6z"/>
			<path d="M994.9,155.2c7.7,0,15.3,0,22.9,0c0,56.8,0,113.5,0,170.3c-7.7,0-15.2,0-22.9,0C994.9,268.8,994.9,212.1,994.9,155.2z"/>
			<path d="M886.1,325.6c-7.3,0-14.4,0-21.7,0c0-42.2,0-84.3,0-126.5c7.2,0,14.4,0,21.7,0C886.1,241.2,886.1,283.3,886.1,325.6z"/>
			<path d="M875.8,177.2c-8.6,0.2-15.7-6.6-15.8-15.3c-0.2-9,5.7-15.3,14.5-15.5c8.9-0.2,16,6.4,16.3,15.2
				C890.9,170.8,885,177,875.8,177.2z"/>
		</g>
	</g>
</g>
</svg>
