<?xml version="1.0" encoding="UTF-8" standalone="no"?><!DOCTYPE svg PUBLIC "-//W3C//DTD SVG 1.1//EN" "http://www.w3.org/Graphics/SVG/1.1/DTD/svg11.dtd"><svg width="100%" height="100%" viewBox="0 0 617 72" version="1.1" xmlns="http://www.w3.org/2000/svg" xmlns:xlink="http://www.w3.org/1999/xlink" xml:space="preserve" xmlns:serif="http://www.serif.com/" style="fill-rule:evenodd;clip-rule:evenodd;stroke-linejoin:round;stroke-miterlimit:2;"><g><path d="M42,61.4c-13.8,0 -25.7,-10.4 -25.7,-25.4c0,-14.8 11.7,-25 25,-25c10.6,0 17,4.4 21.2,10.5l-10,6.7c-1.8,-3 -4.8,-6 -11,-6c-7.4,0 -11.8,6 -11.8,14c0,7.7 4.6,13.7 12,13.7c6.5,0 9.6,-3 11.7,-7l10.2,6.6c-4.8,8.5 -11.6,11.9 -21.6,11.9" style="fill:#c62828;fill-rule:nonzero;"/><path d="M62.3,36c0,-14.8 12.3,-25 26.5,-25c14.2,0 26.5,10.3 26.5,25c0,15 -12.3,25.4 -26.5,25.4c-14.2,0 -26.5,-10.4 -26.5,-25.4m39.5,0c0,-7.7 -4.7,-13.7 -13,-13.7c-8.3,0 -13,6 -13,13.8c0,8 4.7,14 13,14c8.3,0 13,-6 13,-14m29.2,0.1l0,24.6l-12.5,0l0,-50c0,-0.4 0.2,-0.8 1,0l31,25.4l0,-24.7l12.5,0l0,50c0,0.6 -0.3,0.8 -1,0l-31,-25.3Zm57.6,25.1c-0.2,0.4 -0.6,0.4 -1,0l-23,-49.8l14,0l10,23l10,-23l13.3,0l-23.4,49.8l0.1,0Zm25,-49.8l34.4,0l0,11l-21,0l0,8.2l17.8,0l0,10.5l-17.8,0l0,8.5l22.4,0l0,11l-35.6,0m52,0.1l-13.2,0l0,-49.3l20,0c12.4,0 19.4,7.5 19.4,17.5c0,6.5 -3,11.7 -9,14.4l10.2,17.6l-14.2,0l-8.7,-15.5l-4.5,0l0,15.3Zm6,-25.5c4.6,0 7,-2.3 7,-6.3c0,-4 -2.4,-6.3 -7,-6.3l-6,0l0,12.6l6,0Z" style="fill:#c62828;fill-rule:nonzero;"/><path d="M292,52.4l9.5,-7.2c2.4,3 5.4,5.4 10.3,5.4c4,0 6.2,-1.2 6.2,-4c0,-2 -1.6,-3 -5,-4l-5.7,-2c-7.3,-2.6 -12.3,-6.9 -12.3,-15.1c0,-9.7 8,-14.7 17,-14.7c8.6,0 13.8,3 16.7,6.4l-7.5,8c-2,-2.2 -4.6,-3.6 -8.6,-3.6c-3.2,0 -4.8,1.4 -4.8,3.4c0,2 1,2.8 3.5,3.6l6.5,2.2c10,3.3 13.2,8 13.2,15c0,9 -5.6,15.5 -18.7,15.5c-11,0 -17.3,-5 -20.4,-9m42.6,-40.8l13.2,0l0,49.3l-13.2,0l0,-49.3Zm16.7,24.5c0,-14.8 12.3,-25 26.5,-25c14.2,0 26.5,10.3 26.5,25c0,15 -12.3,25.4 -26.5,25.4c-14.2,0 -26.5,-10.4 -26.5,-25.4m39.5,0c0,-7.7 -4.7,-13.7 -13,-13.7c-8.3,0 -13,6 -13,13.8c0,8 4.7,14 13,14c8.3,0 13,-6 13,-14m29.1,0.1l0,24.6l-12.4,0l0,-50c0,-0.4 0.2,-0.8 1,0l31,25.4l0,-24.7l12.4,0l0,50c0,0.6 -0.2,0.8 -1,0l-31,-25.3Zm37.9,-24.7l13.3,0l0,49.3l-13.3,0l0,-49.3Zm15.3,40.9l9.5,-7.2c2.4,3 5.4,5.4 10.3,5.4c4,0 6.2,-1.2 6.2,-4c0,-2 -1.6,-3 -5,-4l-5.7,-2c-7.3,-2.6 -12.3,-6.9 -12.3,-15.1c0,-9.7 8,-14.7 16.8,-14.7c8.7,0 14,3 16.8,6.4l-7.5,8c-2,-2.2 -4.5,-3.6 -8.5,-3.6c-3.2,0 -4.8,1.4 -4.8,3.4c0,2 1,2.8 3.5,3.6l6.5,2.2c10,3.3 13.2,8 13.2,15c0,9 -5.7,15.5 -18.8,15.5c-11,0 -17.3,-5 -20.3,-9m50.9,-29.7l-13,0l0,-11l39.2,0l0,11l-13,0l0,38.2l-13.2,0m50.6,-6l-17.2,0l-2.5,6l-13,0l24,-50.3c0.3,-0.5 0.7,-0.5 1,0l24,50.2l-13.7,0l-2.6,-6l0,0.1Zm-13,-9.5l8.8,0l-4.5,-10.3l-4.4,10.3l0.1,0Zm29.6,9.1c0,-4.2 3.4,-7 7.2,-7c3.8,0 7.2,2.8 7.2,7c0,4.2 -3.5,7 -7.2,7c-3.8,0 -7.2,-2.8 -7.2,-7m0.4,-42.9l13.6,0l-1.3,32.5l-10.7,0" style="fill:#c62828;fill-rule:nonzero;"/></g></svg>