<svg width="147" height="57" viewBox="0 0 147 57" xmlns="http://www.w3.org/2000/svg"><title>Logo</title><g fill="none" fill-rule="evenodd"><path d="M32.396 43.457c0 1.422-1.067 2.575-2.382 2.575H2.381C1.066 46.032 0 44.879 0 43.457V13.576C0 12.154 1.066 11 2.38 11h27.634c1.315 0 2.382 1.154 2.382 2.576v29.881" fill="#EC932D"/><path fill="#FFF" d="M13.49 21.815v4.894h5.834v3.716H13.49v7.864H9.858V18.17h12.01v3.645h-8.377m11.837 16.473h3.39V22.941h-3.39z"/><path d="M146.678 44.014c0 1.173-.902 2.124-2.013 2.124h-23.362c-1.112 0-2.013-.95-2.013-2.124V19.355c0-1.173.901-2.125 2.013-2.125h23.362c1.111 0 2.013.952 2.013 2.125v24.659" fill="#6BC7E4"/><path fill="#FFF" d="M123.036 38.295h3.392V26.212h4.677v-3.266h-11.813v3.266h3.744v12.083"/><path d="M115.644 39.835c0 1.746-1.37 3.16-3.061 3.16H77.06c-1.69 0-3.06-1.414-3.06-3.16V3.161C74 1.416 75.37 0 77.06 0h35.523c1.69 0 3.061 1.416 3.061 3.161v36.674" fill="#EC932D"/><path d="M84 20.427c3.581 0 6.485 3.325 6.485 7.425S87.581 35.276 84 35.276c-3.582 0-6.485-3.324-6.485-7.424 0-4.1 2.903-7.425 6.485-7.425zm-.074 18.209c6.441 0 10.8-4.656 10.8-10.795 0-6.166-4.16-10.82-10.6-10.82-4.497 0-7.96 2.251-9.653 5.695v10.328c1.651 3.382 4.998 5.592 9.453 5.592zm24.882-6.836c0 2.178-1.08 3.499-3.086 3.499-2.027 0-3.109-1.32-3.109-3.499v-8.855h-3.39v9.108c0 4.27 2.299 6.49 6.414 6.49 4.117 0 6.562-2.22 6.562-6.49v-9.108h-3.391V31.8" fill="#FFF"/><path d="M84 20.427c-3.582 0-6.485 3.325-6.485 7.425s2.903 7.424 6.485 7.424c3.581 0 6.485-3.324 6.485-7.424 0-4.1-2.904-7.425-6.485-7.425" fill="#EC932D"/><path d="M58.873 26.068c-.606 0-1.08.022-1.624.085v9.045c.648.062 1.08.083 1.854.083 3.343 0 4.827-1.884 4.827-4.752 0-2.786-1.755-4.46-5.057-4.46" fill="#6BC7E4"/><path d="M71.245 53.358c0 1.5-1.173 2.716-2.62 2.716H38.221c-1.446 0-2.62-1.215-2.62-2.716V21.837c0-1.5 1.174-2.717 2.62-2.717h30.404c1.447 0 2.62 1.217 2.62 2.717v31.521" fill="#6BC7E4"/><path fill="#FFF" d="M38.682 30.318l9.372 8.314.354-.063V22.991h-3.39v7.956l-9.416-8.376v15.768h3.08v-8.02m20.421 4.962a16.96 16.96 0 0 1-1.854-.083v-9.045a13.174 13.174 0 0 1 1.624-.085c3.302 0 5.057 1.675 5.057 4.46 0 2.869-1.484 4.753-4.827 4.753zm-.71-12.395c-1.526 0-2.76.062-4.535.252v15.076c1.88.167 2.883.25 4.68.25 6.353 0 9.174-3.413 9.174-7.935 0-4.335-2.968-7.643-9.32-7.643z"/></g></svg>