<?xml version="1.0" encoding="UTF-8" standalone="no"?><!DOCTYPE svg PUBLIC "-//W3C//DTD SVG 1.1//EN" "http://www.w3.org/Graphics/SVG/1.1/DTD/svg11.dtd"><svg width="100%" height="100%" viewBox="0 0 86 84" version="1.1" xmlns="http://www.w3.org/2000/svg" xmlns:xlink="http://www.w3.org/1999/xlink" xml:space="preserve" xmlns:serif="http://www.serif.com/" style="fill-rule:evenodd;clip-rule:evenodd;stroke-linejoin:round;stroke-miterlimit:2;"><g><path d="M85.05,41.85c0,23.1 -19.05,41.85 -42.525,41.85c-23.475,0 -42.525,-18.75 -42.525,-41.85c0,-23.1 19.05,-41.85 42.525,-41.85c23.475,0 42.525,18.75 42.525,41.85Z" style="fill:#0054f0;fill-rule:nonzero;"/><g><path d="M37.05,30.525c-0.075,0.225 0.075,0.45 0.3,0.45l3.6,-0.075c0,0 -4.875,19.5 -5.85,23.475c-1.2,4.95 -3.225,9.975 -4.65,11.775c-1.275,1.575 -2.1,2.1 -3,2.1c-1.2,0 -1.8,-0.9 -2.175,-2.325c-0.225,-1.05 -0.9,-2.475 -2.4,-2.475c-1.575,0 -3.675,1.725 -3.675,3.9c0,2.85 4.8,3.525 6.375,3.525c3.15,0 7.275,-2.025 9.975,-5.175c3.525,-3.975 5.475,-8.925 7.275,-15.9l4.425,-18.975l4.65,0.075c0.375,0 0.525,-0.3 0.6,-0.45l0.6,-1.725c0.075,-0.225 -0.075,-0.45 -0.3,-0.45l-4.8,0c1.125,-4.05 2.85,-9.975 6.15,-13.2c0.3,-0.3 1.125,-0.975 1.875,-0.975c1.275,0 1.65,0.75 2.25,1.95c0.525,1.2 0.45,3.225 2.25,3.225c2.1,0 3.675,-2.325 3.675,-3.9c0,-2.175 -3.75,-3.6 -6.825,-3.6c-3.525,0 -6.975,1.5 -9.45,3.975c-3.525,3.6 -5.175,8.925 -6.3,12.6l-3.6,-0.075c-0.225,0 -0.45,0.225 -0.525,0.375l-0.45,1.875Z" style="fill:#fff;fill-rule:nonzero;"/><path d="M55.725,50.325c-0.075,0.975 -0.6,3.6 -3.525,3.6c-1.725,0 -3,-1.125 -2.85,-3.15c0.075,-2.025 1.5,-3.675 3.525,-3.75c1.35,0.075 3,0.975 2.85,3.3Z" style="fill:#fff;fill-rule:nonzero;"/><path d="M66.15,50.325c-0.075,0.975 -0.6,3.6 -3.525,3.6c-1.725,0 -3,-1.125 -2.85,-3.15c0.075,-2.025 1.5,-3.675 3.525,-3.75c1.275,0.075 2.925,0.975 2.85,3.3Z" style="fill:#fff;fill-rule:nonzero;"/><path d="M76.5,50.325c-0.075,0.975 -0.6,3.6 -3.525,3.6c-1.725,0 -3,-1.125 -2.85,-3.15c0.075,-2.025 1.5,-3.675 3.525,-3.75c1.35,0.075 2.925,0.975 2.85,3.3Z" style="fill:#fff;fill-rule:nonzero;"/><path d="M31.875,15.225c-2.175,0.075 -3.675,1.8 -3.825,3.975c-0.15,2.1 1.125,3.3 3,3.3c3.15,0 3.825,-2.85 3.825,-3.9c0.15,-2.4 -1.5,-3.375 -3,-3.375Z" style="fill:#fff;fill-rule:nonzero;"/><path d="M26.7,43.05l3.3,-8.025c0.675,-1.575 1.5,-3.675 1.5,-5.1c0,-1.8 -1.35,-2.25 -2.325,-2.25c-4.5,0 -9.3,5.25 -11.1,7.35c-0.15,0.15 -0.225,0.45 0.075,0.675l0.825,0.825c0.15,0.15 0.45,0.15 0.6,-0.075c0,0 2.175,-2.4 3,-3c0.225,-0.15 0.525,-0.375 0.75,-0.375c0.3,0 0.45,0.45 0.45,0.675c0,0.75 -0.75,2.55 -1.125,3.45l-3.45,8.775c-1.2,2.925 -1.8,4.5 -1.8,5.775c0,1.5 0.825,2.7 2.925,2.7c4.8,0 10.8,-7.2 10.8,-7.2c0.225,-0.3 0.15,-0.525 0,-0.675l-0.9,-0.825c-0.15,-0.15 -0.45,-0.225 -0.675,0c0,0 -3.225,3.6 -4.35,3.6c-0.525,0 -0.45,-0.6 -0.45,-0.675c0,-0.525 0.3,-1.5 0.525,-1.95l1.425,-3.675Z" style="fill:#fff;fill-rule:nonzero;"/></g></g></svg>