<?xml version="1.0" encoding="UTF-8" standalone="no"?>
<svg
   xmlns:dc="http://purl.org/dc/elements/1.1/"
   xmlns:cc="http://creativecommons.org/ns#"
   xmlns:rdf="http://www.w3.org/1999/02/22-rdf-syntax-ns#"
   xmlns:svg="http://www.w3.org/2000/svg"
   xmlns="http://www.w3.org/2000/svg"
   viewBox="0 0 592.29999 180.83749"
   height="180.83749"
   width="592.29999"
   xml:space="preserve"
   version="1.1"
   id="svg2"><metadata
     id="metadata8"><rdf:RDF><cc:Work
         rdf:about=""><dc:format>image/svg+xml</dc:format><dc:type
           rdf:resource="http://purl.org/dc/dcmitype/StillImage" /></cc:Work></rdf:RDF></metadata><defs
     id="defs6" /><g
     transform="matrix(1.25,0,0,-1.25,0,180.8375)"
     id="g10"><g
       transform="scale(0.1,0.1)"
       id="g12"><path
         id="path14"
         style="fill:#f25c19;fill-opacity:1;fill-rule:nonzero;stroke:none"
         d="m 894.891,389.5 174.339,0 L 841.676,697.199 744.086,596.527 894.891,389.5" /><path
         id="path16"
         style="fill:#f25c19;fill-opacity:1;fill-rule:nonzero;stroke:none"
         d="m 468.875,1049.2 0,-659.7 145.16,0 0,201.68 442.955,458.02 -175.314,0 -267.641,-288.427 0,288.427 -145.16,0" /><path
         id="path18"
         style="fill:#f25c19;fill-opacity:1;fill-rule:nonzero;stroke:none"
         d="M 750.809,1446.7 621.211,1317.1 c 33.336,5.78 67.531,8.94 102.473,8.94 332.156,0 602.356,-270.2 602.356,-602.341 0,-332.121 -270.2,-602.359 -602.356,-602.359 -332.106,0 -602.34,270.238 -602.34,602.359 0,292.851 210.144,537.451 487.547,591.201 l 0,123.29 C 264.219,1383 0,1083.66 0,723.699 0,324.629 324.645,0 723.684,0 c 399.066,0 723.696,324.629 723.696,723.699 0,389.971 -310.05,708.681 -696.571,723.001" /><path
         id="path20"
         style="fill:#f25c19;fill-opacity:1;fill-rule:nonzero;stroke:none"
         d="m 2076.18,604.641 -160.77,220.816 -60.03,-62.23 0,-158.586 -114.11,0 0,518.679 114.11,0 0,-226.718 210.46,226.718 137.8,0 -211.19,-220.086 220.8,-298.593 -137.07,0" /><path
         id="path22"
         style="fill:#f25c19;fill-opacity:1;fill-rule:nonzero;stroke:none"
         d="m 2528.06,989.969 -68.94,-168.215 137.81,0 -68.87,168.215 z m 157.08,-385.332 -47.46,116.347 -219.31,0 -47.41,-116.347 -116.35,0 222.31,522.403 105.19,0 222.31,-522.403 -119.28,0" /><path
         id="path24"
         style="fill:#f25c19;fill-opacity:1;fill-rule:nonzero;stroke:none"
         d="m 3131.39,941.813 c 0,51.105 -35.57,78.557 -92.6,78.557 l -88.21,0 0,-158.604 90.39,0 c 57.09,0 90.42,34.129 90.42,78.554 l 0,1.493 z m -94.1,-181.563 -86.71,0 0,-155.602 -114.08,0 0,518.672 211.89,0 c 123.79,0 198.59,-73.35 198.59,-179.269 l 0,-1.528 c 0,-120.027 -93.34,-182.273 -209.69,-182.273" /><path
         id="path26"
         style="fill:#f25c19;fill-opacity:1;fill-rule:nonzero;stroke:none"
         d="m 3299.69,604.641 0,518.679 114.11,0 0,-414.945 258.58,0 0,-103.734 -372.69,0" /><path
         id="path28"
         style="fill:#f25c19;fill-opacity:1;fill-rule:nonzero;stroke:none"
         d="m 3970.43,989.969 -68.91,-168.215 137.78,0 -68.87,168.215 z m 157.06,-385.332 -47.44,116.347 -219.34,0 -47.39,-116.347 -116.35,0 222.32,522.403 105.21,0 222.26,-522.403 -119.27,0" /><path
         id="path30"
         style="fill:#f25c19;fill-opacity:1;fill-rule:nonzero;stroke:none"
         d="m 4641.24,604.641 -251.11,329.754 0,-329.754 -112.71,0 0,518.679 105.25,0 243.01,-319.347 0,319.347 112.68,0 0,-518.679 -97.12,0" /><path
         id="path32"
         style="fill:#28292e;fill-opacity:1;fill-rule:nonzero;stroke:none"
         d="m 1740.73,282.801 0,173.844 12.9,0 0,-161.965 102.04,0 0,-11.879 -114.94,0" /><path
         id="path34"
         style="fill:#28292e;fill-opacity:1;fill-rule:nonzero;stroke:none"
         d="m 2022.11,369.691 c 0,42.989 -31.29,78.25 -74.26,78.25 -42.96,0 -73.71,-34.711 -73.71,-77.73 l 0,-0.52 c 0,-42.953 31.28,-78.211 74.25,-78.211 42.95,0 73.72,34.758 73.72,77.731 l 0,0.48 z m -74.26,-89.851 c -52.63,0 -87.14,41.961 -87.14,89.371 l 0,0.48 c 0,47.438 35,89.911 87.68,89.911 52.64,0 87.15,-41.93 87.15,-89.391 0.23,-0.231 0.23,-0.231 0,-0.52 0,-47.382 -35.01,-89.851 -87.69,-89.851" /><path
         id="path36"
         style="fill:#28292e;fill-opacity:1;fill-rule:nonzero;stroke:none"
         d="m 2129.68,351.809 0,-69.008 -12.9,0 0,68.789 -74.53,105.055 16.18,0 65.07,-93.395 65.28,93.395 15.42,0 -74.52,-104.836" /><path
         id="path38"
         style="fill:#28292e;fill-opacity:1;fill-rule:nonzero;stroke:none"
         d="m 2271.87,443.691 -45.92,-100.531 91.64,0 -45.72,100.531 z m 73.28,-160.89 -22.12,48.711 -102.55,0 -22.09,-48.711 -13.4,0 80.94,175.109 12.42,0 80.94,-175.109 -14.14,0" /><path
         id="path40"
         style="fill:#28292e;fill-opacity:1;fill-rule:nonzero;stroke:none"
         d="m 2389.64,282.801 0,173.844 12.91,0 0,-161.965 102.06,0 0,-11.879 -114.97,0" /><path
         id="path42"
         style="fill:#28292e;fill-opacity:1;fill-rule:nonzero;stroke:none"
         d="m 2566.35,444.711 0,-161.91 -12.89,0 0,161.91 -60.59,0 0,11.934 134.07,0 0,-11.934 -60.59,0" /><path
         id="path44"
         style="fill:#28292e;fill-opacity:1;fill-rule:nonzero;stroke:none"
         d="m 2730.7,351.809 0,-69.008 -12.92,0 0,68.789 -74.5,105.055 16.15,0 65.03,-93.395 65.33,93.395 15.38,0 -74.47,-104.836" /><path
         id="path46"
         style="fill:#28292e;fill-opacity:1;fill-rule:nonzero;stroke:none"
         d="m 3069.48,282.801 0,151.008 -68.81,-100.118 -1,0 -68.76,100.118 0,-151.008 -12.43,0 0,173.844 12.15,0 69.8,-102.856 69.8,102.856 12.14,0 0,-173.844 -12.89,0" /><path
         id="path48"
         style="fill:#28292e;fill-opacity:1;fill-rule:nonzero;stroke:none"
         d="m 3205.83,443.691 -45.97,-100.531 91.66,0 -45.69,100.531 z m 73.27,-160.89 -22.14,48.711 -102.54,0 -22.1,-48.711 -13.42,0 80.98,175.109 12.41,0 80.94,-175.109 -14.13,0" /><path
         id="path50"
         style="fill:#28292e;fill-opacity:1;fill-rule:nonzero;stroke:none"
         d="m 3458.2,282.801 -122.45,154.449 0,-154.449 -12.46,0 0,173.844 12.24,0 119.93,-151.223 0,151.223 12.37,0 0,-173.844 -9.63,0" /><path
         id="path52"
         style="fill:#28292e;fill-opacity:1;fill-rule:nonzero;stroke:none"
         d="m 3584.73,443.691 -45.98,-100.531 91.66,0 -45.68,100.531 z m 73.27,-160.89 -22.06,48.711 -102.61,0 -22.07,-48.711 -13.44,0 80.96,175.109 12.42,0 80.96,-175.109 -14.16,0" /><path
         id="path54"
         style="fill:#28292e;fill-opacity:1;fill-rule:nonzero;stroke:none"
         d="m 3772.01,279.84 c -54.9,0 -87.4,40.43 -87.4,89.371 l 0,0.48 c 0,46.969 34.01,89.911 85.92,89.911 28.28,0 46.14,-8.403 63.56,-22.864 l -8.46,-9.66 c -13.66,11.961 -29.58,20.863 -55.9,20.863 -42.14,0 -71.73,-35.769 -71.73,-77.73 l 0,-0.52 c 0,-44.902 28.04,-78.453 74.5,-78.453 22.08,0 42.72,9.184 55.37,19.864 l 0,49.898 -58.14,0 0,11.941 70.59,0 0,-67.011 c -15.64,-13.942 -40.04,-26.09 -68.31,-26.09" /><path
         id="path56"
         style="fill:#28292e;fill-opacity:1;fill-rule:nonzero;stroke:none"
         d="m 4210.21,282.801 0,151.008 -68.81,-100.118 -0.94,0 -68.82,100.118 0,-151.008 -12.4,0 0,173.844 12.13,0 69.81,-102.856 69.79,102.856 12.14,0 0,-173.844 -12.9,0" /><path
         id="path58"
         style="fill:#28292e;fill-opacity:1;fill-rule:nonzero;stroke:none"
         d="m 4271.05,282.801 0,173.844 123.66,0 0,-11.934 -110.77,0 0,-68.289 99.63,0 0,-11.871 -99.63,0 0,-69.871 112,0 0,-11.879 -124.89,0" /><path
         id="path60"
         style="fill:#28292e;fill-opacity:1;fill-rule:nonzero;stroke:none"
         d="m 3891.18,282.801 0,173.844 123.64,0 0,-11.934 -110.78,0 0,-68.289 99.61,0 0,-11.871 -99.61,0 0,-69.871 112.02,0 0,-11.879 -124.88,0" /><path
         id="path62"
         style="fill:#28292e;fill-opacity:1;fill-rule:nonzero;stroke:none"
         d="m 4569.58,282.801 -122.47,154.449 0,-154.449 -12.43,0 0,173.844 12.16,0 119.97,-151.223 0,151.223 12.41,0 0,-173.844 -9.64,0" /><path
         id="path64"
         style="fill:#28292e;fill-opacity:1;fill-rule:nonzero;stroke:none"
         d="m 4677.73,444.711 0,-161.91 -12.95,0 0,161.91 -60.56,0 0,11.934 134.14,0 0,-11.934 -60.63,0" /></g></g></svg>