<svg xmlns="http://www.w3.org/2000/svg" xmlns:xlink="http://www.w3.org/1999/xlink" width="200" height="116" viewBox="0 0 200 116">
    <defs>
        <path id="a" d="M69.982.144H.017v114.653h139.93V.144z"/>
    </defs>
    <g fill="none" fill-rule="evenodd">
        <path fill="#232323" d="M104.228 40.63l8.38 8.929V31.256l-8.38 9.374zm-22.756 17.7V22.49l5.739-.005 13.091 13.897 12.468-13.892 5.64-.005v35.843l-5.82-.015-25.379-27.231v27.246h-5.74z"/>
        <g>
            <mask id="b" fill="#fff">
                <use xlink:href="#a"/>
            </mask>
            <path fill="#232323" d="M65.658 74.495h68.694V5.8H65.658v68.695zm-5.657 5.595h79.946V.144H60V80.09zM7.197 114.797l-5.038-7.869v7.87H0v-11.093h2.69l4.616 7.337v-7.337h2.16v11.092h-2.27" mask="url(#b)"/>
        </g>
        <path fill="#232323" d="M21.379 112.959c1.722 0 3.477-1.192 3.477-3.697 0-2.506-1.755-3.696-3.477-3.696-1.708 0-3.462 1.19-3.462 3.696 0 2.505 1.754 3.697 3.462 3.697zm0-9.476c3.022 0 5.716 2.208 5.716 5.794 0 3.572-2.694 5.78-5.716 5.78-3.007 0-5.701-2.208-5.701-5.78 0-3.586 2.694-5.794 5.7-5.794zM37.21 108.683c1.096 0 1.738-.627 1.738-1.535 0-.94-.642-1.55-1.738-1.55h-1.753v3.085h1.753zm-.626 1.862h-1.127v4.274h-2.176V103.72h4.336c2.16 0 3.539 1.487 3.539 3.413 0 1.55-.909 2.723-2.364 3.145l2.379 4.54H38.76l-2.176-4.273zM52.268 112.826c1.816 0 3.335-1.126 3.335-3.538 0-2.411-1.503-3.553-3.319-3.553h-1.738v7.091h1.722zm-3.883 2.005v-11.1h3.977c3.163 0 5.48 2.05 5.48 5.556 0 3.508-2.333 5.544-5.495 5.544h-3.962zM64.538 114.79h2.187v-11.078h-2.187zM119.941 112.97c1.723 0 3.477-1.191 3.477-3.697 0-2.506-1.754-3.696-3.477-3.696-1.708 0-3.462 1.19-3.462 3.696 0 2.506 1.754 3.697 3.462 3.697zm0-9.476c3.022 0 5.716 2.208 5.716 5.794 0 3.572-2.694 5.78-5.716 5.78-3.007 0-5.7-2.208-5.7-5.78 0-3.586 2.693-5.794 5.7-5.794zM136.037 108.675c1.096 0 1.737-.627 1.737-1.535 0-.94-.641-1.55-1.737-1.55h-1.753v3.085h1.753zm-.626 1.862h-1.127v4.274h-2.176v-11.098h4.336c2.16 0 3.538 1.486 3.538 3.412 0 1.55-.908 2.724-2.364 3.146l2.38 4.54h-2.412l-2.175-4.274zM154.388 114.827l-5.037-7.87v7.87h-2.16v-11.092h2.691l4.616 7.336v-7.336h2.16v11.092h-2.27M164.255 114.79h2.187v-11.078h-2.187zM181.236 114.808l-5.038-7.869v7.869h-2.158v-11.092h2.69l4.615 7.336v-7.336h2.16v11.092h-2.27M79.214 115.06c-2.066 0-5.788-1.326-5.788-5.772 0-4.366 3.631-5.795 5.788-5.787 1.985.007 3.514 1.137 4.083 1.705l-1.48 1.428c-.369-.37-1.377-1.15-2.632-1.11-2.834.087-3.523 2.286-3.527 3.745-.005 1.503.876 3.647 3.52 3.72 1.48-.055 2.177-.71 2.683-1.038l1.436 1.42c-.569.568-2.007 1.69-4.083 1.69M98.997 114.83l-.029-7.957 3.751 4.148 3.514-4.154v7.942h2.126v-11.078h-2.361l-3.279 3.954-3.476-3.947H96.94v11.093h2.057M195.683 115.042c-2.067 0-5.788-1.327-5.788-5.773 0-4.366 3.63-5.795 5.788-5.787 1.985.008 3.449 1.093 3.83 1.693l-1.433 1.419c-.432-.608-1.498-1.105-2.427-1.09-2.835.048-3.523 2.288-3.527 3.747-.004 1.502.876 3.646 3.521 3.72 1.208-.046 1.588-.214 2.075-.554v-1.45h-2.016v-2.016h4.031l.028 4.401c-.568.569-2.006 1.69-4.082 1.69"/>
    </g>
</svg>
