<?xml version="1.0" encoding="UTF-8" standalone="no"?><!DOCTYPE svg PUBLIC "-//W3C//DTD SVG 1.1//EN" "http://www.w3.org/Graphics/SVG/1.1/DTD/svg11.dtd"><svg width="100%" height="100%" viewBox="0 0 499 467" version="1.1" xmlns="http://www.w3.org/2000/svg" xmlns:xlink="http://www.w3.org/1999/xlink" xml:space="preserve" xmlns:serif="http://www.serif.com/" style="fill-rule:evenodd;clip-rule:evenodd;stroke-linejoin:round;stroke-miterlimit:2;"><g><path d="M130.482,442.214c15.11,14.9 26.27,6.9 14.22,-9.21c-75.78,-101.34 -132.66,-247.75 -92.11,-270.01c27.33,-15 73.33,58 88.49,52.96c20.52,-6.82 -0.16,-127.96 38.58,-135.12c45.59,-8.42 86.68,166.55 48.48,362.16c-5.97,30.58 11.69,31.33 18.22,4c73.63,-308.3 7.95,-439.71 -64.78,-432.67c-80.72,7.83 -62.32,137.34 -62.32,137.34c0,0 -39.58,-59.16 -88.75,-34.47c-91.92,46.14 48.26,274.04 99.97,325.02Z" style="fill:#fff;fill-rule:nonzero;"/><path d="M283.672,47.164c14.56,-6.15 77.67,-28.67 85.05,-12.56c8.63,18.83 -40.38,34.4 -33.46,59.23c5.66,20.34 105.67,-24.17 116.92,16.89c10.83,39.52 -46.2,52.19 -106.02,72.06c-41.94,13.93 -24.24,61.36 18.43,51.88c72.78,-16.17 156.33,-62.33 128.01,-136.21c-20.91,-54.52 -96.1,-34.56 -96.1,-34.56c0,0 16.43,-21.79 4.83,-43.82c-25.08,-47.63 -107.57,2.67 -123.65,16.26c-6.65,5.61 -0.5,13.57 5.99,10.83Z" style="fill:#fff;fill-rule:nonzero;"/><path d="M319.752,298.774c-11.66,-58.35 179.19,-73.11 179.18,36.66c-0.01,83.78 -179.43,127.52 -210.95,127.52c-11.39,0 -14.7,-7.63 2.83,-11.74c131.78,-30.88 171.34,-73.55 167.11,-104.22c-10.7,-77.75 -125.77,13.82 -138.17,-48.22Z" style="fill:#fff;fill-rule:nonzero;"/></g></svg>