<?xml version="1.0" encoding="UTF-8" standalone="no"?>
<!DOCTYPE svg PUBLIC "-//W3C//DTD SVG 1.1//EN" "http://www.w3.org/Graphics/SVG/1.1/DTD/svg11.dtd">
<svg width="100%" height="100%" viewBox="0 0 839 897" version="1.1" xmlns="http://www.w3.org/2000/svg" xmlns:xlink="http://www.w3.org/1999/xlink" xml:space="preserve" xmlns:serif="http://www.serif.com/" style="fill-rule:evenodd;clip-rule:evenodd;stroke-linecap:round;stroke-linejoin:round;stroke-miterlimit:1.5;">
    <g transform="matrix(1,0,0,1,-449.544,-385.961)">
        <g transform="matrix(0.890602,0,0,0.779395,99.1615,231.601)">
            <path d="M1300.29,1039.32C1300.29,1003.91 1275.14,975.166 1244.15,975.166L484.652,975.166C453.667,975.166 428.511,1003.91 428.511,1039.32L428.511,1243.53C428.511,1278.93 453.667,1307.68 484.652,1307.68L1244.15,1307.68C1275.14,1307.68 1300.29,1278.93 1300.29,1243.53L1300.29,1039.32Z" style="fill:none;stroke:black;stroke-width:74.69px;"/>
        </g>
        <g transform="matrix(1,0,0,1,-15.9465,0)">
            <path d="M560.957,991.641L560.957,749.568" style="fill:none;stroke:black;stroke-width:62.5px;"/>
        </g>
        <path d="M480.794,641.37L647.073,417.211L1090.93,417.211L1257.21,641.37" style="fill:none;stroke:black;stroke-width:62.5px;"/>
        <path d="M480.794,641.37L1257.21,641.37" style="fill:none;stroke:black;stroke-width:62.5px;"/>
        <path d="M480.794,641.37C480.794,641.37 483.157,655.227 487.09,678.297C493.952,718.542 528.602,748.129 569.425,748.602C610.248,749.076 645.574,720.3 653.367,680.224C658.078,656.001 660.923,641.37 660.923,641.37C660.923,641.37 672.252,666.441 687.351,699.855C700.923,729.888 730.715,749.293 763.671,749.565C796.628,749.837 826.736,730.927 840.802,701.122C856.868,667.077 869,641.37 869,641.37" style="fill:none;stroke:black;stroke-width:62.5px;"/>
        <g transform="matrix(-1,0,0,1,1738,0)">
            <path d="M480.794,641.37C480.794,641.37 483.157,655.227 487.09,678.297C493.952,718.542 528.602,748.129 569.425,748.602C610.248,749.076 645.574,720.3 653.367,680.224C658.078,656.001 660.923,641.37 660.923,641.37C660.923,641.37 672.252,666.441 687.351,699.855C700.923,729.888 730.715,749.293 763.671,749.565C796.628,749.837 826.736,730.927 840.802,701.122C856.868,667.077 869,641.37 869,641.37" style="fill:none;stroke:black;stroke-width:62.5px;"/>
        </g>
        <g transform="matrix(-1,0,0,1,1753.95,0)">
            <path d="M560.957,991.641L560.957,749.568" style="fill:none;stroke:black;stroke-width:62.5px;"/>
        </g>
        <path d="M869,417.211L869,641.37" style="fill:none;stroke:black;stroke-width:62.5px;"/>
        <path d="M746.495,417.211L660.923,641.37" style="fill:none;stroke:black;stroke-width:62.5px;"/>
        <g transform="matrix(-1,0,0,1,1738,0)">
            <path d="M746.495,417.211L660.923,641.37" style="fill:none;stroke:black;stroke-width:62.5px;"/>
        </g>
    </g>
</svg>
