<svg id="Layer_1" height="512" viewBox="0 0 512 512" width="512" xmlns="http://www.w3.org/2000/svg" data-name="Layer 1"><path d="m67.527 73.462a181.045 181.045 0 0 0 33 20.154l17.425 59.257a6 6 0 0 0 9.842 2.7l39.235-36.494 25.247 47.229a6 6 0 0 0 4.893 3.158c.134.009.267.013.4.013a6 6 0 0 0 4.869-2.495l31.235-43.4 33.237 41.848a6 6 0 0 0 10.074-1.067l23.689-47.8 38.969 36.406a6 6 0 0 0 9.784-2.474l16.961-50.51 43.249 31.113a6 6 0 0 0 9.426-3.906l11.771-72.2c13.249-6.236 22.824-11.235 27.606-13.8a6 6 0 1 0 -5.678-10.572c-5.229 2.809-16.312 8.589-31.8 15.738-125.761 58.04-211.405 58.855-251.261 54.172-22.47-2.65-43.161-8.222-61.5-16.565a169.377 169.377 0 0 1 -33.347-20.009 6 6 0 0 0 -7.326 9.5zm350.165-12.446-8.915 54.684-41.983-30.2a6 6 0 0 0 -9.192 2.96l-16.581 49.379-38.045-35.539a6 6 0 0 0 -1.373-.952c45.483-11.059 86.65-27.178 116.089-40.332zm-123.63 42.106a5.931 5.931 0 0 0 -.558.894l-23.073 46.552-30.414-38.294a464.912 464.912 0 0 0 54.045-9.152zm-91.95 11.239q12 0 24.035-.859l-27.824 38.66-20.736-38.791q12.185 1.005 24.525.99zm-44.039-3.337-31.344 29.154-11.901-40.478a220.5 220.5 0 0 0 43.245 11.324z"/><path d="m497.078 292.078a6 6 0 0 0 -8.17 2.3 169.248 169.248 0 0 1 -22.861 31.473c-13.621 14.863-30.479 28.087-50.105 39.305-35.044 20.032-114.611 52.967-253.831 48.462-16.523-.527-28.388-1.471-33.99-1.988a6 6 0 0 0 -1.1 11.95c5.282.487 16 1.344 30.811 1.9l39.1 61.836a6 6 0 0 0 5.068 2.784h.057a6 6 0 0 0 5.074-2.89l27.614-45.554 35.379 39.838a6 6 0 0 0 9.971-1.553l21.613-48.759 40.518 34.718a6 6 0 0 0 9.689-2.962l14.192-51.519 45.723 27.716a6 6 0 0 0 9.087-4.6l4.749-53.351 50.394 18.216a6 6 0 0 0 8-6.339l-7.167-61.352a180.851 180.851 0 0 0 22.479-31.463 6 6 0 0 0 -2.294-8.168zm-203.073 126.87-21.1 47.605-34.588-38.947a6 6 0 0 0 -9.617.873l-26.807 44.221-29.612-46.831q6.579.118 13.77.126c30.641 0 69.025-1.871 108.833-8.449a5.993 5.993 0 0 0 -.879 1.402zm48.851 31.686-39.462-33.81a5.978 5.978 0 0 0 -.851-.6 463.818 463.818 0 0 0 53.3-12.731zm66.961-26.756-40.737-24.694a320.272 320.272 0 0 0 44.64-19.146zm20.931-53.619a220.326 220.326 0 0 0 35.371-27.348l4.9 41.907z"/><path d="m120.17 385.49v-11.16h11.16a6 6 0 0 0 0-12h-11.16v-11.15a6 6 0 0 0 -12 0v11.15h-11.15a6 6 0 1 0 0 12h11.15v11.16a6 6 0 0 0 12 0z"/><path d="m445.1 147.07a6 6 0 0 0 6 6h11.16v11.16a6 6 0 1 0 12 0v-11.16h11.16a6 6 0 0 0 0-12h-11.16v-11.15a6 6 0 1 0 -12 0v11.15h-11.16a6 6 0 0 0 -6 6z"/><path d="m142.53 59.9a19.007 19.007 0 1 0 -13.437-5.571 18.857 18.857 0 0 0 13.437 5.571zm-4.947-23.957a7 7 0 1 1 -2.053 4.957 6.972 6.972 0 0 1 2.053-4.957z"/><path d="m123.739 317.944a6 6 0 0 0 10.657-1.488l6.7-20.237 20.462-5.958a5.992 5.992 0 0 0 2.771-1.737l8.155 14.64-9.46 19.092a6 6 0 0 0 6.532 8.552l20.906-4.1 15.246 14.9a6 6 0 0 0 10.15-3.573l2.552-21.158 18.875-9.886a5.984 5.984 0 0 0 2.575-2.649l12.723 15.5-5.9 20.479a6 6 0 0 0 7.953 7.247l19.842-7.77 17.647 11.942a6 6 0 0 0 9.353-5.322l-1.255-21.281 16.812-13.092a5.978 5.978 0 0 0 1.727-2.177l12.958 14.026-4.7 20.783a6 6 0 0 0 8.36 6.775l19.365-8.912 18.319 10.9a6 6 0 0 0 9.026-5.861l-2.5-21.167 16.02-14.059a6 6 0 0 0 -2.786-10.394l-20.895-4.164-8.158-18.995c19.177-.463 33.589-1.562 40.912-2.227a6 6 0 1 0 -1.086-11.951c-19.1 1.736-87.214 6.472-161.925-5.458-44.12-7.044-82.5-18.7-114.061-34.65-38.446-19.424-66.98-45.378-84.809-77.143a6 6 0 1 0 -10.464 5.873 185.135 185.135 0 0 0 39.562 48.444l-16.447 7.181-18.1-11.254a6 6 0 0 0 -9.14 5.678l2.074 21.212-16.294 13.727a6 6 0 0 0 2.577 10.448l20.809 4.581 8.021 19.739a6 6 0 0 0 5.124 3.725q.217.015.435.015a6 6 0 0 0 5.173-2.962l10.795-18.378 21.252-1.524a5.988 5.988 0 0 0 3.875-1.82 6 6 0 0 0 .25 1.329l6.481 20.305-13.048 16.846a6 6 0 0 0 4.711 9.674l21.305.113zm238.408-12.526a6 6 0 0 0 4.341 3.516l12.068 2.4-9.256 8.126a6 6 0 0 0 -2 5.214l1.444 12.222-10.577-6.296a6 6 0 0 0 -5.575-.294l-11.186 5.148 2.716-12a6 6 0 0 0 -1.445-5.395l-8.352-9.042 12.257-1.132a6 6 0 0 0 4.681-3.04l6.024-10.739zm-16.328-26.4q3.155 0 6.186-.027l-9.666 17.234-21.221 1.96a6 6 0 0 0 -5.033 3.789 6 6 0 0 0 -1.222-.481l-20.628-5.375-7.054-19.453c21.365 1.744 41.306 2.354 58.638 2.354zm-61.79 24.156a6 6 0 0 0 4.128 3.761l11.91 3.1-9.7 7.557a6 6 0 0 0 -2.3 5.087l.725 12.3-10.192-6.9a6 6 0 0 0 -5.551-.618l-11.463 4.489 3.407-11.832a6 6 0 0 0 -1.129-5.468l-7.808-9.508 12.305-.417a6 6 0 0 0 4.85-2.763l6.629-10.361zm-44.249-32.156c12.24 1.954 24.3 3.469 36.016 4.628l-11 17.194-21.3.723a6 6 0 0 0 -5.226 3.454 5.9 5.9 0 0 0 -1.245-.789l-19.325-8.973-3.567-20.98q12.492 2.635 25.647 4.743zm-33.38 21.357a6 6 0 0 0 3.389 4.437l11.16 5.188-10.9 5.71a6 6 0 0 0 -3.173 4.6l-1.476 12.213-8.806-8.605a6 6 0 0 0 -5.348-1.6l-12.072 2.369 5.463-11.027a6 6 0 0 0 -.135-5.584l-5.99-10.754 12.176 1.79a6 6 0 0 0 5.27-1.853l8.376-9.02zm-59.51-46.054a397.473 397.473 0 0 0 56.312 17.5l-13.891 14.96-21.088-3.1a6 6 0 0 0 -5.81 2.527c-.11.158-.2.326-.291.491l-15.868-11.651zm-83.969-2.666a6 6 0 0 0 -4.745 2.947l-6.235 10.618-4.633-11.4a6 6 0 0 0 -4.268-3.6l-12.018-2.646 9.405-7.926a6 6 0 0 0 2.1-5.171l-1.2-12.254 10.458 6.5a6 6 0 0 0 5.569.4l11.277-4.923-2.946 11.95a6 6 0 0 0 1.337 5.422l8.167 9.2zm30.934 3.586c-.05.049-.09.1-.139.154a5.984 5.984 0 0 0 -1.478-3.487l-14.146-15.941 4.349-17.6a247.593 247.593 0 0 0 39.759 24.86q6.685 3.378 13.766 6.5l-15.856 11.4-20.06-7.212a6 6 0 0 0 -6.195 1.326zm17.321 25.8-3.742-11.726 11.586 4.166a6 6 0 0 0 5.532-.775l9.989-7.181-.378 12.306a6 6 0 0 0 2.446 5.02l9.918 7.283-11.814 3.44a6 6 0 0 0 -4.019 3.875l-3.87 11.69-6.924-10.174a6 6 0 0 0 -4.929-2.625l-12.3-.066 7.537-9.73a6 6 0 0 0 .968-5.498z"/><path d="m371.578 186.94a19.007 19.007 0 1 0 .008 0zm4.963 23.954a7 7 0 1 1 -9.895-9.905 6.932 6.932 0 0 1 4.937-2.049 7.006 7.006 0 0 1 4.955 11.954z"/><path d="m57.475 414.68a19.009 19.009 0 1 0 13.433 5.563 18.876 18.876 0 0 0 -13.433-5.563zm4.952 23.947a7 7 0 1 1 0-9.894h.005a6.988 6.988 0 0 1 -.005 9.89z"/></svg>