<?xml version="1.0" encoding="UTF-8"?>
<!DOCTYPE svg  PUBLIC '-//W3C//DTD SVG 1.1//EN'  'http://www.w3.org/Graphics/SVG/1.1/DTD/svg11.dtd'>
<svg clip-rule="evenodd" fill-rule="evenodd" stroke-linejoin="round" stroke-miterlimit="2" version="1.1" viewBox="0 0 2200 2200" xml:space="preserve" xmlns="http://www.w3.org/2000/svg">
    <g transform="matrix(1.1 0 0 1.2216 0 -371.13)">
        <path d="m1750 517.89 0.4 1e-3 0.41 1e-3 0.4 1e-3 0.41 2e-3 0.4 3e-3 0.4 4e-3 0.41 4e-3 0.8 0.01 0.41 6e-3 0.8 0.014 0.41 8e-3 0.8 0.018 0.4 0.01 0.41 0.011 0.8 0.022 0.8 0.026 0.8 0.028 0.4 0.015 0.41 0.015 0.4 0.016 0.4 0.017 1.2 0.054 0.8 0.04 0.39 0.02 0.4 0.021 0.4 0.022 1.2 0.069 0.8 0.05 0.39 0.025 0.4 0.026 0.4 0.027 0.4 0.028 0.39 0.028 0.4 0.028 0.4 0.029 0.4 0.03 0.39 0.031 0.4 0.031 0.39 0.032 0.4 0.032 0.4 0.033 0.39 0.034 0.4 0.034 0.39 0.035 0.4 0.035 0.39 0.036 0.4 0.037 0.39 0.037 0.4 0.038 0.39 0.038 0.4 0.039 0.78 0.08 0.4 0.041 0.78 0.084 0.4 0.043 0.39 0.043 0.39 0.044 0.4 0.045 0.39 0.045 0.78 0.092 0.4 0.047 0.78 0.096 0.78 0.098 0.39 0.05 0.78 0.102 0.78 0.104 0.39 0.053 0.78 0.108 0.78 0.11 0.39 0.056 0.78 0.114 0.39 0.058 0.38 0.058 0.78 0.118 0.39 0.061 0.39 0.06 0.38 0.062 0.78 0.124 0.77 0.127 0.77 0.129 0.77 0.132 0.77 0.134 0.77 0.136 0.77 0.139 0.77 0.141 0.77 0.143 0.77 0.146 0.76 0.148 0.77 0.15 0.76 0.153 0.76 0.154 0.77 0.158 0.76 0.159 0.76 0.162 0.76 0.164 0.76 0.167 0.76 0.169 0.75 0.171 0.76 0.173 0.76 0.176 0.75 0.178 0.75 0.18 0.76 0.182 0.75 0.185 0.75 0.187 0.75 0.189 0.75 0.192 0.75 0.194 0.75 0.196 0.74 0.198 0.75 0.201 0.74 0.203 0.75 0.205 0.74 0.207 0.74 0.209 0.74 0.212 0.74 0.214 0.74 0.216 0.74 0.218 0.74 0.221 0.73 0.223 0.74 0.225 0.73 0.227 0.74 0.229 0.73 0.232 0.73 0.234 0.73 0.235 0.73 0.239 0.73 0.24 0.73 0.242 0.72 0.245 0.73 0.247 0.72 0.249 0.73 0.251 0.72 0.253 0.72 0.255 0.72 0.258 0.72 0.259 0.72 0.262 0.72 0.264 0.71 0.266 0.72 0.268 0.71 0.271 0.72 0.272 0.71 0.275 0.71 0.276 0.71 0.279 0.71 0.281 0.71 0.283 0.7 0.285 0.71 0.287 0.7 0.289 0.71 0.292 0.7 0.293 0.7 0.296 0.7 0.297 0.7 0.3 0.7 0.301 0.7 0.304 0.69 0.306 0.7 0.308 0.69 0.31 0.69 0.312 0.7 0.314 0.69 0.316 0.69 0.318 0.68 0.32 0.69 0.322 0.69 0.324 0.68 0.326 0.68 0.328 0.69 0.33 0.68 0.332 0.68 0.335 0.68 0.336 0.68 0.338 0.67 0.34 0.68 0.342 0.67 0.344 0.68 0.346 0.67 0.348 0.67 0.35 0.67 0.352 0.67 0.354 0.66 0.356 0.67 0.358 0.66 0.36 0.67 0.362 0.66 0.364 0.66 0.365 0.66 0.368 0.66 0.369 0.66 0.372 0.65 0.373 0.66 0.375 0.65 0.378 0.66 0.379 0.65 0.381 0.65 0.383 0.64 0.385 0.65 0.387 0.65 0.388 0.64 0.391 0.65 0.392 0.64 0.394 0.64 0.397 0.64 0.398 0.64 0.4 0.64 0.401 0.63 0.404 0.64 0.406 0.63 0.407 0.63 0.409 0.63 0.411 0.63 0.413 0.63 0.415 0.63 0.417 0.62 0.418 0.63 0.42 1.24 0.846 0.62 0.426 0.62 0.428 0.62 0.429 0.61 0.431 0.62 0.433 0.61 0.435 0.61 0.437 0.61 0.438 0.61 0.44 0.61 0.442 0.61 0.444 0.6 0.445 0.61 0.447 1.2 0.9 0.6 0.453 0.6 0.454 0.59 0.456 0.6 0.458 0.59 0.46 0.6 0.461 0.59 0.463 0.59 0.465 0.59 0.466 0.58 0.468 0.59 0.47 0.58 0.472 0.58 0.473 0.58 0.475 0.58 0.477 0.58 0.479 0.58 0.48 0.57 0.482 0.58 0.483 0.57 0.486 0.57 0.487 0.57 0.488 0.57 0.491 0.56 0.491 0.57 0.494 0.56 0.495 0.56 0.497 0.56 0.499 0.56 0.5 0.56 0.502 0.55 0.504 0.56 0.505 0.55 0.507 0.55 0.508 1.1 1.022 0.55 0.514 0.54 0.515 0.55 0.516 0.54 0.518 0.54 0.52 0.54 0.522 0.53 0.523 0.54 0.524 0.53 0.526 0.54 0.528 0.53 0.53 0.53 0.531 0.52 0.532 0.53 0.534 0.52 0.536 0.53 0.537 0.52 0.539 0.52 0.54 0.52 0.542 0.51 0.544 0.52 0.545 0.51 0.546 0.51 0.548 0.51 0.55 0.51 0.551 0.51 0.553 0.51 0.554 0.5 0.556 0.5 0.557 0.5 0.559 0.5 0.56 0.5 0.562 0.49 0.563 0.5 0.565 0.49 0.566 0.49 0.568 0.49 0.569 0.48 0.571 0.49 0.572 0.48 0.573 0.96 1.152 0.48 0.578 0.48 0.58 0.47 0.581 0.48 0.582 0.47 0.584 0.47 0.585 0.47 0.587 0.46 0.588 0.47 0.59 0.46 0.591 0.46 0.592 0.46 0.594 0.46 0.595 0.46 0.597 0.45 0.598 0.45 0.599 0.45 0.601 0.9 1.206 0.45 0.605 0.44 0.607 0.44 0.608 0.44 0.609 0.88 1.222 0.86 1.228 0.43 0.617 0.44 0.617 0.42 0.619 0.43 0.62 0.42 0.621 0.42 0.623 0.42 0.624 0.84 1.252 0.41 0.628 0.42 0.63 0.41 0.631 0.41 0.632 0.41 0.633 0.8 1.27 0.41 0.638 0.4 0.638 0.39 0.64 0.4 0.641 0.39 0.643 0.4 0.643 0.39 0.645 0.39 0.646 0.38 0.648 0.39 0.649 0.38 0.65 0.38 0.651 0.38 0.652 0.38 0.654 0.37 0.655 0.38 0.656 0.37 0.658 0.74 1.318 0.36 0.662 0.37 0.662 0.72 1.328 0.35 0.666 0.36 0.668 0.35 0.668 0.36 0.67 0.35 0.67 0.34 0.672 0.35 0.673 0.34 0.675 0.35 0.675 0.34 0.677 0.34 0.678 0.33 0.679 0.33 0.68 0.34 0.682 0.33 0.682 0.32 0.684 0.33 0.684 0.33 0.686 0.64 1.376 0.32 0.689 0.31 0.691 0.32 0.691 0.31 0.693 0.31 0.694 0.31 0.695 0.3 0.696 0.31 0.697 0.3 0.698 0.3 0.7 0.29 0.7 0.3 0.702 0.29 0.702 0.29 0.704 0.29 0.705 0.29 0.706 0.29 0.707 0.28 0.708 0.28 0.709 0.28 0.71 0.28 0.711 0.27 0.712 0.27 0.713 0.54 1.43 0.27 0.717 0.26 0.717 0.26 0.718 0.52 1.44 0.25 0.722 0.26 0.722 0.25 0.724 0.25 0.725 0.24 0.725 0.25 0.727 0.24 0.727 0.48 1.458 0.24 0.731 0.23 0.731 0.46 1.466 0.23 0.734 0.44 1.472 0.23 0.737 0.21 0.738 0.22 0.74 0.21 0.74 0.22 0.741 0.21 0.742 0.2 0.743 0.21 0.744 0.2 0.744 0.2 0.746 0.4 1.494 0.19 0.748 0.38 1.5 0.19 0.751 0.18 0.752 0.18 0.753 0.19 0.754 0.17 0.755 0.18 0.755 0.17 0.756 0.34 1.516 0.17 0.759 0.16 0.76 0.32 1.522 0.32 1.526 0.15 0.764 0.15 0.765 0.15 0.766 0.14 0.766 0.15 0.768 0.14 0.768 0.14 0.769 0.13 0.77 0.14 0.771 0.13 0.771 0.13 0.773 0.12 0.773 0.13 0.774 0.12 0.774 0.24 1.552 0.11 0.777 0.11 0.778 0.12 0.779 0.1 0.779 0.11 0.78 0.1 0.781 0.2 1.564 0.09 0.783 0.1 0.784 0.18 1.57 0.08 0.786 0.09 0.787 0.08 0.787 0.08 0.789 0.07 0.789 0.08 0.789 0.14 1.582 0.06 0.792 0.07 0.792 0.06 0.793 0.06 0.794 0.06 0.795 0.05 0.795 0.05 0.796 0.1 1.594 0.08 1.596 0.12 2.4 0.03 0.801 0.03 0.802 0.02 0.803 0.03 0.803 0.04 1.608 0.01 0.805 0.02 0.806 0.01 0.806 0.01 0.807 0.01 0.808v0.808 0.808 982.11 0.81 0.81l-0.01 0.8-0.02 1.62-0.02 0.8-0.01 0.81-0.02 0.8-0.02 0.81-0.03 0.8-0.02 0.8-0.03 0.8-0.03 0.81-0.12 2.4-0.04 0.79-0.04 0.8-0.1 1.6-0.05 0.79-0.05 0.8-0.06 0.79-0.06 0.8-0.06 0.79-0.07 0.79-0.06 0.79-0.14 1.58-0.08 0.79-0.07 0.79-0.16 1.58-0.09 0.78-0.08 0.79-0.09 0.79-0.09 0.78-0.1 0.79-0.09 0.78-0.3 2.34-0.11 0.78-0.1 0.78-0.12 0.78-0.22 1.56-0.12 0.77-0.12 0.78-0.12 0.77-0.13 0.78-0.12 0.77-0.26 1.54-0.14 0.77-0.13 0.77-0.28 1.54-0.15 0.77-0.14 0.77-0.15 0.76-0.15 0.77-0.15 0.76-0.16 0.76-0.16 0.77-0.48 2.28-0.34 1.52-0.17 0.75-0.17 0.76-0.18 0.76-0.17 0.75-0.19 0.75-0.18 0.76-0.18 0.75-0.76 3-0.2 0.75-0.2 0.74-0.2 0.75-0.2 0.74-0.21 0.75-0.2 0.74-0.21 0.74-0.22 0.74-0.21 0.74-0.22 0.74-0.21 0.74-0.23 0.74-0.22 0.73-0.22 0.74-0.23 0.73-0.23 0.74-0.46 1.46-0.96 2.92-0.25 0.72-0.24 0.73-0.25 0.72-0.25 0.73-0.26 0.72-0.25 0.72-1.04 2.88-0.27 0.71-0.27 0.72-0.27 0.71-0.27 0.72-0.27 0.71-1.12 2.84-0.29 0.7-0.29 0.71-0.29 0.7-0.29 0.71-0.29 0.7-0.3 0.7-0.29 0.7-0.6 1.4-0.31 0.7-0.3 0.69-0.31 0.7-0.62 1.38-0.32 0.7-0.31 0.69-0.32 0.69-0.32 0.68-0.32 0.69-0.33 0.69-0.33 0.68-0.32 0.68-0.33 0.69-0.34 0.68-0.66 1.36-0.34 0.68-0.34 0.67-0.35 0.68-0.34 0.67-0.35 0.68-0.34 0.67-0.35 0.67-0.36 0.67-0.35 0.67-0.36 0.66-0.35 0.67-0.36 0.66-0.36 0.67-0.37 0.66-0.36 0.66-1.11 1.98-0.38 0.65-0.37 0.66-0.38 0.65-0.38 0.66-0.76 1.3-0.39 0.64-0.38 0.65-0.39 0.65-0.39 0.64-0.4 0.65-0.39 0.64-0.4 0.64-0.39 0.64-0.4 0.64-0.41 0.64-0.4 0.63-0.4 0.64-1.23 1.89-0.42 0.63-0.41 0.63-0.42 0.63-0.42 0.62-0.42 0.63-0.84 1.24-0.43 0.62-0.42 0.62-0.44 0.62-0.43 0.61-0.43 0.62-0.43 0.61-2.2 3.05-0.45 0.6-0.45 0.61-1.8 2.4-0.46 0.59-0.46 0.6-0.46 0.59-0.46 0.6-0.46 0.59-0.47 0.59-0.46 0.59-0.47 0.58-0.47 0.59-0.47 0.58-0.48 0.58-0.47 0.58-1.44 1.74-0.48 0.57-0.48 0.58-0.49 0.57-0.48 0.57-0.98 1.14-0.49 0.56-0.5 0.57-0.49 0.56-2 2.24-0.5 0.55-0.51 0.56-2.55 2.75-0.52 0.54-0.51 0.55-1.56 1.62-0.53 0.53-0.52 0.54-0.53 0.53-0.52 0.54-1.06 1.06-0.54 0.52-0.53 0.53-0.54 0.52-0.53 0.53-1.62 1.56-0.55 0.51-0.54 0.52-2.75 2.55-0.56 0.51-0.55 0.5-2.24 2-0.56 0.49-0.57 0.5-0.56 0.49-1.14 0.98-0.57 0.48-0.57 0.49-0.58 0.48-0.57 0.48-1.74 1.44-0.58 0.47-0.58 0.48-0.58 0.47-0.59 0.47-0.58 0.47-0.59 0.46-0.59 0.47-0.59 0.46-0.6 0.46-0.59 0.46-0.6 0.46-0.59 0.46-2.4 1.8-0.61 0.45-0.6 0.45-3.05 2.2-0.61 0.43-0.62 0.43-0.61 0.43-0.62 0.44-0.62 0.42-0.62 0.43-1.24 0.84-0.63 0.42-0.62 0.42-0.63 0.42-0.63 0.41-0.63 0.42-1.89 1.23-0.64 0.4-0.63 0.4-0.64 0.41-0.64 0.4-0.64 0.39-0.64 0.4-0.64 0.39-0.65 0.4-0.64 0.39-0.65 0.39-0.65 0.38-0.64 0.39-1.3 0.76-0.66 0.38-0.65 0.38-0.66 0.37-0.65 0.38-1.98 1.11-0.66 0.36-0.66 0.37-0.67 0.36-0.66 0.36-0.67 0.35-0.66 0.36-0.67 0.35-0.67 0.36-0.67 0.35-0.67 0.34-0.68 0.35-0.67 0.34-0.68 0.35-0.67 0.34-0.68 0.34-1.36 0.66-0.68 0.34-0.69 0.33-0.68 0.32-0.68 0.33-0.69 0.33-0.69 0.32-0.68 0.32-0.69 0.32-0.69 0.31-0.7 0.32-1.38 0.62-0.7 0.31-0.69 0.3-0.7 0.31-1.4 0.6-0.7 0.29-0.7 0.3-0.7 0.29-0.71 0.29-0.7 0.29-0.71 0.29-0.7 0.29-2.84 1.12-0.71 0.27-0.72 0.27-0.71 0.27-0.72 0.27-0.71 0.27-2.88 1.04-0.72 0.25-0.72 0.26-0.73 0.25-0.72 0.25-0.73 0.24-0.72 0.25-2.92 0.96-1.46 0.46-0.74 0.23-0.73 0.23-0.74 0.22-0.73 0.22-0.74 0.23-0.74 0.21-0.74 0.22-0.74 0.21-0.74 0.22-0.74 0.21-0.74 0.2-0.75 0.21-0.74 0.2-0.75 0.2-0.74 0.2-0.75 0.2-3 0.76-0.75 0.18-0.76 0.18-0.75 0.19-0.75 0.17-0.76 0.18-0.76 0.17-0.75 0.17-1.52 0.34-2.28 0.48-0.77 0.16-0.76 0.16-0.76 0.15-0.77 0.15-0.76 0.15-0.77 0.14-0.77 0.15-1.54 0.28-0.77 0.13-0.77 0.14-1.54 0.26-0.77 0.12-0.39 0.07-0.39 0.06-0.38 0.06-1.56 0.24-0.38 0.06-0.39 0.06-0.39 0.05-0.39 0.06-0.39 0.05-0.78 0.12-0.78 0.1-0.39 0.06-3.12 0.4-0.39 0.04-0.4 0.05-0.78 0.1-0.39 0.04-0.4 0.04-0.39 0.05-0.39 0.04-0.4 0.04-0.39 0.05-0.39 0.04-0.4 0.04-0.78 0.08-0.4 0.04-0.39 0.04-0.4 0.03-0.39 0.04-0.4 0.04-0.39 0.03-0.4 0.04-0.39 0.04-0.4 0.03-0.39 0.03-0.4 0.03-0.4 0.04-0.39 0.03-0.4 0.03-0.39 0.03-1.2 0.09-0.39 0.03-0.4 0.02-0.8 0.06-0.39 0.02-0.4 0.03-0.4 0.02-0.4 0.03-1.6 0.08-0.39 0.02-2.4 0.12-0.4 0.01-0.41 0.02-0.4 0.01-0.4 0.02-1.2 0.03-0.4 0.02-0.4 0.01-0.41 0.01-1.2 0.03h-0.41l-0.8 0.02h-0.41l-0.4 0.01h-0.4l-0.41 0.01h-0.4l-0.4 0.01h-0.41-0.4-0.41-0.4-1500-0.404-0.405-0.404-0.404l-0.404-0.01h-0.403l-0.404-0.01h-0.403l-0.403-0.01h-0.403l-0.806-0.02h-0.403l-0.804-0.02-0.403-0.01-0.402-0.01-0.401-0.01-0.402-0.02-0.402-0.01-0.802-0.02-0.401-0.02-0.401-0.01-0.401-0.02-0.4-0.01-0.401-0.02-1.2-0.06-0.399-0.02-0.4-0.02-0.399-0.02-0.4-0.02-0.798-0.04-0.398-0.02-0.399-0.03-0.398-0.02-0.398-0.03-0.398-0.02-0.796-0.06-0.398-0.02-1.985-0.15-0.396-0.03-0.397-0.03-0.396-0.04-0.792-0.06-0.395-0.03-0.396-0.04-0.395-0.04-0.395-0.03-0.79-0.08-0.394-0.03-0.395-0.04-1.576-0.16-0.393-0.04-0.393-0.05-0.394-0.04-0.392-0.04-0.393-0.05-0.393-0.04-0.392-0.04-1.176-0.15-0.392-0.04-0.391-0.05-0.392-0.05-0.782-0.1-0.39-0.05-0.391-0.05-0.39-0.05-0.391-0.05-0.389-0.06-0.78-0.1-0.778-0.12-0.389-0.05-0.389-0.06-0.389-0.05-0.388-0.06-0.389-0.06-0.388-0.06-0.387-0.06-0.388-0.06-0.387-0.06-0.388-0.06-0.387-0.06-0.387-0.07-0.773-0.12-1.544-0.26-0.77-0.14-0.77-0.13-0.769-0.14-0.768-0.14-0.768-0.15-0.767-0.14-1.53-0.3-0.764-0.15-0.764-0.16-1.524-0.32-1.52-0.32-1.518-0.34-0.757-0.17-0.756-0.17-0.756-0.18-0.755-0.17-0.753-0.19-0.753-0.18-0.752-0.18-1.502-0.38-0.749-0.19-0.748-0.19-0.748-0.2-1.492-0.4-0.745-0.2-0.744-0.21-0.743-0.2-0.742-0.21-0.741-0.22-0.74-0.21-0.739-0.22-0.738-0.21-0.737-0.23-0.737-0.22-0.735-0.22-1.468-0.46-1.464-0.46-1.46-0.48-1.456-0.48-0.726-0.25-0.726-0.24-1.448-0.5-0.722-0.26-0.722-0.25-1.44-0.52-1.436-0.52-1.432-0.54-0.714-0.27-0.713-0.27-0.712-0.27-0.712-0.28-0.71-0.28-0.709-0.28-0.708-0.28-0.707-0.29-0.706-0.29-1.408-0.58-0.703-0.29-0.701-0.3-0.701-0.29-0.699-0.3-0.698-0.3-0.698-0.31-0.696-0.3-0.695-0.31-1.386-0.62-0.692-0.32-0.69-0.31-0.69-0.32-0.688-0.32-0.687-0.32-0.686-0.33-0.685-0.33-0.683-0.32-0.683-0.33-0.681-0.34-0.68-0.33-0.679-0.33-0.678-0.34-0.677-0.34-0.676-0.35-0.674-0.34-0.673-0.35-0.672-0.34-0.671-0.35-0.669-0.36-0.669-0.35-0.667-0.36-0.666-0.35-0.665-0.36-0.663-0.36-0.663-0.37-0.661-0.36-0.66-0.37-0.659-0.37-0.657-0.37-0.656-0.38-0.655-0.37-0.654-0.38-1.304-0.76-0.65-0.38-0.648-0.39-0.648-0.38-0.646-0.39-0.645-0.39-0.644-0.4-0.642-0.39-0.641-0.4-0.64-0.39-0.639-0.4-0.637-0.41-0.636-0.4-0.634-0.4-0.634-0.41-0.632-0.41-0.631-0.41-0.629-0.42-0.628-0.41-0.627-0.42-0.625-0.42-0.624-0.42-0.623-0.42-0.622-0.42-0.62-0.43-0.618-0.42-0.618-0.44-0.616-0.43-0.615-0.43-0.613-0.43-0.612-0.44-1.22-0.88-1.214-0.88-0.605-0.45-0.604-0.45-0.602-0.45-0.601-0.45-0.599-0.45-0.598-0.45-0.597-0.46-0.595-0.46-0.594-0.46-0.593-0.46-0.591-0.46-0.589-0.47-0.589-0.46-1.172-0.94-0.583-0.47-0.583-0.48-0.581-0.47-0.579-0.48-0.578-0.48-0.577-0.48-0.575-0.48-0.574-0.48-0.572-0.49-0.57-0.48-0.57-0.49-1.134-0.98-0.564-0.5-0.564-0.49-1.122-1-1.116-1-0.555-0.5-0.555-0.51-0.552-0.51-0.551-0.51-0.55-0.51-0.548-0.51-0.547-0.51-0.545-0.52-0.543-0.51-0.542-0.52-0.54-0.52-0.539-0.52-0.537-0.53-0.536-0.52-0.534-0.53-0.533-0.52-0.531-0.53-0.529-0.53-0.528-0.54-0.526-0.53-0.525-0.54-0.523-0.53-0.521-0.54-0.52-0.54-0.518-0.54-0.517-0.55-0.515-0.54-0.513-0.55-0.512-0.55-0.51-0.55-0.508-0.55-0.507-0.55-0.506-0.56-0.503-0.55-0.502-0.56-0.5-0.56-0.499-0.56-0.497-0.56-0.495-0.56-0.494-0.57-0.492-0.56-0.49-0.57-0.489-0.57-0.487-0.57-0.485-0.57-0.484-0.58-0.481-0.57-0.481-0.58-0.478-0.58-0.477-0.58-0.475-0.58-0.473-0.58-0.472-0.58-0.47-0.59-0.468-0.58-0.467-0.59-0.928-1.18-0.461-0.6-0.459-0.59-0.458-0.6-0.456-0.59-0.455-0.6-0.452-0.6-0.451-0.6-0.449-0.6-0.447-0.61-0.446-0.6-0.443-0.61-0.442-0.61-0.44-0.61-0.439-0.61-0.436-0.61-0.435-0.61-0.433-0.62-0.431-0.61-0.43-0.62-0.427-0.62-0.426-0.62-0.424-0.62-0.422-0.62-0.42-0.63-0.419-0.62-0.416-0.63-0.415-0.63-0.413-0.63-0.411-0.63-0.409-0.63-0.408-0.63-0.405-0.64-0.404-0.63-0.402-0.64-0.4-0.64-0.398-0.64-0.396-0.64-0.394-0.64-0.393-0.65-0.39-0.64-0.389-0.65-0.387-0.65-0.384-0.64-0.383-0.65-0.381-0.65-0.38-0.66-0.377-0.65-0.375-0.66-0.374-0.65-0.371-0.66-0.37-0.66-0.367-0.66-0.366-0.66-0.364-0.66-0.361-0.67-0.36-0.66-0.358-0.67-0.356-0.66-0.354-0.67-0.352-0.67-0.35-0.67-0.348-0.67-0.346-0.68-0.344-0.67-0.342-0.68-0.341-0.67-0.338-0.68-0.336-0.68-0.334-0.68-0.332-0.68-0.33-0.69-0.328-0.68-0.327-0.68-0.324-0.69-0.322-0.69-0.32-0.68-0.318-0.69-0.316-0.69-0.314-0.7-0.312-0.69-0.31-0.69-0.307-0.7-0.306-0.69-0.304-0.7-0.302-0.7-0.299-0.7-0.298-0.7-0.295-0.7-0.294-0.7-0.291-0.71-0.289-0.7-0.287-0.71-0.285-0.7-0.283-0.71-0.281-0.71-0.279-0.71-0.277-0.71-0.274-0.71-0.273-0.72-0.27-0.71-0.268-0.72-0.266-0.71-0.264-0.72-0.262-0.72-0.26-0.72-0.257-0.72-0.255-0.72-0.254-0.72-0.251-0.73-0.249-0.72-0.246-0.73-0.245-0.72-0.243-0.73-0.24-0.73-0.238-0.73-0.236-0.73-0.234-0.73-0.231-0.73-0.229-0.74-0.228-0.73-0.225-0.74-0.222-0.73-0.221-0.74-0.218-0.74-0.216-0.74-0.214-0.74-0.212-0.74-0.21-0.74-0.207-0.74-0.205-0.75-0.203-0.74-0.2-0.75-0.198-0.74-0.197-0.75-0.193-0.75-0.192-0.75-0.189-0.75-0.187-0.75-0.185-0.75-0.182-0.76-0.181-0.75-0.178-0.75-0.175-0.76-0.174-0.76-0.171-0.75-0.168-0.76-0.167-0.76-0.164-0.76-0.162-0.76-0.16-0.76-0.157-0.77-0.155-0.76-0.152-0.76-0.151-0.77-0.148-0.76-0.145-0.77-0.144-0.77-0.141-0.77-0.138-0.77-0.137-0.77-0.133-0.77-0.132-0.77-0.129-0.77-0.127-0.77-0.125-0.78-0.122-0.77-0.119-0.78-0.118-0.77-0.115-0.78-0.112-0.78-0.111-0.78-0.107-0.78-0.106-0.78-0.103-0.78-0.1-0.78-0.099-0.78-0.095-0.78-0.094-0.79-0.091-0.78-0.088-0.79-0.086-0.79-0.084-0.78-0.081-0.79-0.079-0.79-0.076-0.79-0.074-0.79-0.072-0.79-0.069-0.79-0.066-0.79-0.064-0.79-0.062-0.79-0.059-0.8-0.057-0.79-0.054-0.8-0.052-0.79-0.049-0.8-0.047-0.8-0.044-0.8-0.042-0.79-0.039-0.8-0.037-0.8-0.034-0.8-0.032-0.81-0.029-0.8-0.027-0.8-0.024-0.8-0.021-0.81-0.019-0.8-0.017-0.81-0.014-0.8-0.012-0.81-8e-3 -0.81-7e-3 -0.8-4e-3 -0.81-1e-3 -0.81v-982.11l1e-3 -0.808 4e-3 -0.808 7e-3 -0.808 8e-3 -0.807 0.012-0.806 0.014-0.806 0.017-0.805 0.019-0.804 0.021-0.804 0.024-0.803 0.027-0.803 0.029-0.802 0.032-0.801 0.034-0.8 0.037-0.8 0.039-0.8 0.042-0.798 0.044-0.798 0.047-0.797 0.049-0.797 0.052-0.796 0.054-0.795 0.057-0.795 0.059-0.794 0.062-0.793 0.064-0.792 0.066-0.792 0.069-0.791 0.072-0.791 0.074-0.789 0.076-0.789 0.079-0.789 0.081-0.787 0.084-0.787 0.086-0.786 0.088-0.785 0.091-0.785 0.094-0.784 0.095-0.783 0.099-0.782 0.1-0.782 0.103-0.781 0.106-0.78 0.107-0.779 0.111-0.779 0.112-0.778 0.115-0.777 0.118-0.776 0.119-0.776 0.122-0.774 0.125-0.774 0.127-0.773 0.129-0.773 0.132-0.771 0.133-0.771 0.137-0.77 0.138-0.769 0.141-0.768 0.144-0.768 0.145-0.766 0.148-0.766 0.151-0.765 0.152-0.764 0.155-0.763 0.157-0.763 0.16-0.761 0.162-0.761 0.164-0.76 0.167-0.759 0.168-0.758 0.171-0.758 0.174-0.756 0.175-0.755 0.178-0.755 0.181-0.754 0.182-0.753 0.185-0.752 0.187-0.751 0.189-0.75 0.192-0.75 0.193-0.748 0.197-0.747 0.198-0.747 0.2-0.746 0.203-0.744 0.205-0.744 0.207-0.743 0.21-0.742 0.212-0.741 0.214-0.74 0.216-0.74 0.218-0.738 0.221-0.737 0.222-0.736 0.225-0.736 0.228-0.734 0.229-0.733 0.231-0.733 0.234-0.731 0.236-0.731 0.238-0.729 0.24-0.729 0.243-0.727 0.245-0.727 0.246-0.725 0.249-0.725 0.251-0.724 0.254-0.722 0.255-0.722 0.257-0.72 0.26-0.72 0.262-0.718 0.264-0.717 0.266-0.717 0.268-0.715 0.27-0.715 0.273-0.713 0.274-0.712 0.277-0.711 0.279-0.71 0.281-0.709 0.283-0.708 0.285-0.707 0.287-0.706 0.289-0.705 0.291-0.704 0.294-0.702 0.295-0.702 0.298-0.7 0.299-0.7 0.302-0.698 0.304-0.697 0.306-0.696 0.307-0.695 0.31-0.694 0.312-0.693 0.314-0.691 0.316-0.691 0.318-0.689 0.32-0.688 0.322-0.688 0.324-0.686 0.327-0.684 0.328-0.684 0.33-0.682 0.332-0.682 0.334-0.68 0.336-0.679 0.338-0.678 0.341-0.677 0.342-0.675 0.344-0.675 0.346-0.673 0.348-0.672 0.35-0.67 0.352-0.67 0.354-0.668 0.356-0.668 0.358-0.666 0.36-0.664 0.361-0.664 0.364-0.662 0.366-0.662 0.367-0.659 0.37-0.659 0.371-0.658 0.374-0.656 0.375-0.655 0.377-0.654 0.38-0.652 0.381-0.651 0.383-0.65 0.384-0.649 0.387-0.648 0.389-0.646 0.39-0.645 0.393-0.643 0.394-0.643 0.396-0.641 0.398-0.64 0.4-0.638 0.402-0.638 0.404-0.635 0.405-0.635 0.408-0.633 0.409-0.632 0.411-0.631 0.413-0.63 0.415-0.628 0.416-0.626 0.419-0.626 0.42-0.624 0.422-0.623 0.424-0.621 0.426-0.62 0.427-0.619 0.43-0.617 0.431-0.617 0.433-0.614 0.435-0.614 0.436-0.611 0.439-0.611 0.44-0.609 0.442-0.608 0.443-0.607 0.446-0.605 0.447-0.603 0.449-0.603 0.451-0.601 0.452-0.599 0.455-0.598 0.456-0.597 0.458-0.595 0.459-0.594 0.461-0.592 0.464-0.591 0.464-0.59 0.467-0.588 0.468-0.587 0.47-0.585 0.472-0.584 0.473-0.582 0.475-0.581 0.477-0.58 0.478-0.578 0.962-1.152 0.484-0.573 0.485-0.572 0.487-0.571 0.489-0.569 0.49-0.568 0.492-0.566 0.494-0.565 0.495-0.563 0.497-0.562 0.499-0.56 0.5-0.559 0.502-0.557 0.503-0.556 0.506-0.554 0.507-0.553 0.508-0.551 0.51-0.55 0.512-0.548 0.513-0.546 0.515-0.545 0.517-0.544 0.518-0.542 0.52-0.54 0.521-0.539 0.523-0.537 0.525-0.536 0.526-0.534 0.528-0.532 0.529-0.531 0.531-0.53 0.533-0.528 0.534-0.526 0.536-0.524 0.537-0.523 0.539-0.522 0.54-0.52 0.542-0.518 0.543-0.516 0.545-0.515 0.547-0.514 0.548-0.511 0.55-0.511 0.551-0.508 0.552-0.507 0.555-0.505 0.555-0.504 0.558-0.502 0.558-0.5 0.561-0.499 0.561-0.497 0.564-0.495 0.564-0.494 1.134-0.982 0.57-0.488 0.57-0.487 0.572-0.486 0.574-0.483 0.575-0.482 0.577-0.48 0.578-0.479 0.579-0.477 0.581-0.475 0.583-0.473 0.583-0.472 0.586-0.47 0.586-0.468 0.589-0.466 0.589-0.465 0.591-0.463 0.593-0.461 0.594-0.46 0.595-0.458 0.597-0.456 0.598-0.454 0.599-0.453 0.601-0.45 0.602-0.45 0.604-0.447 0.605-0.445 0.607-0.444 0.607-0.442 0.61-0.44 0.61-0.438 0.612-0.437 0.613-0.435 0.615-0.433 0.616-0.431 0.618-0.429 0.618-0.428 0.62-0.426 0.622-0.423 0.623-0.423 0.624-0.42 0.625-0.418 0.627-0.417 0.628-0.415 0.629-0.413 0.631-0.411 0.632-0.409 0.634-0.407 0.634-0.406 0.636-0.404 0.637-0.401 0.639-0.4 0.64-0.398 0.641-0.397 0.642-0.394 0.644-0.392 0.645-0.391 0.646-0.388 0.648-0.387 0.648-0.385 0.65-0.383 0.652-0.381 0.652-0.379 0.654-0.378 0.655-0.375 0.656-0.373 0.657-0.372 0.659-0.369 0.66-0.368 0.661-0.365 0.663-0.364 0.663-0.362 0.665-0.36 0.666-0.358 0.667-0.356 0.669-0.354 0.669-0.352 0.671-0.35 0.672-0.348 0.673-0.346 0.674-0.344 0.676-0.342 0.677-0.34 0.678-0.338 0.679-0.336 0.68-0.335 0.681-0.332 0.683-0.33 0.683-0.328 0.685-0.326 0.686-0.324 0.687-0.322 0.688-0.32 0.69-0.318 0.69-0.316 0.692-0.314 0.693-0.312 0.693-0.31 0.695-0.308 0.696-0.306 0.698-0.304 0.698-0.301 0.699-0.3 0.701-0.297 0.701-0.296 0.703-0.293 0.704-0.292 0.704-0.289 0.706-0.287 0.707-0.285 0.708-0.283 0.709-0.281 0.71-0.279 0.712-0.276 0.712-0.275 0.713-0.272 0.714-0.271 0.716-0.268 0.716-0.266 0.718-0.264 0.718-0.262 0.72-0.259 0.72-0.258 0.722-0.255 0.722-0.253 0.724-0.251 0.724-0.249 0.726-0.247 0.726-0.245 0.728-0.242 0.728-0.24 0.73-0.239 0.73-0.235 0.732-0.234 0.732-0.232 0.734-0.229 0.734-0.227 0.735-0.225 0.737-0.223 0.737-0.221 0.738-0.218 0.739-0.216 0.74-0.214 0.741-0.212 0.742-0.209 0.743-0.207 0.744-0.205 0.745-0.203 0.746-0.201 0.746-0.198 0.748-0.196 0.748-0.194 0.749-0.192 0.751-0.189 0.751-0.187 0.752-0.185 0.753-0.182 0.753-0.18 0.755-0.178 0.756-0.176 0.756-0.173 0.757-0.171 0.759-0.169 0.759-0.167 0.76-0.164 0.76-0.162 0.762-0.159 0.762-0.158 0.764-0.154 0.764-0.153 0.765-0.15 0.765-0.148 0.767-0.146 0.768-0.143 0.768-0.141 0.769-0.139 0.77-0.136 0.77-0.134 0.772-0.132 0.772-0.129 0.773-0.127 0.774-0.124 0.388-0.062 0.387-0.06 0.388-0.061 0.387-0.059 0.388-0.059 0.389-0.058 0.388-0.058 0.778-0.114 0.389-0.056 0.778-0.11 0.78-0.108 0.389-0.053 0.391-0.052 0.39-0.052 0.391-0.051 0.39-0.051 0.391-0.05 0.391-0.049 0.392-0.049 0.391-0.048 0.392-0.048 0.392-0.047 0.784-0.092 0.392-0.045 0.393-0.045 0.393-0.044 0.392-0.043 0.394-0.043 0.786-0.084 0.394-0.041 0.788-0.08 0.394-0.039 0.395-0.038 0.394-0.038 0.79-0.074 0.395-0.036 0.395-0.035 0.396-0.035 0.395-0.034 0.396-0.034 0.396-0.033 0.396-0.032 0.397-0.032 0.396-0.031 0.397-0.031 0.397-0.03 0.397-0.029 0.794-0.056 0.398-0.028 0.398-0.027 0.398-0.026 1.194-0.075 0.399-0.023 0.398-0.023 0.399-0.023 0.399-0.022 0.4-0.021 0.399-0.02 0.4-0.02 0.399-0.02 1.2-0.054 0.401-0.017 0.4-0.016 0.802-0.03 0.802-0.028 0.401-0.013 0.402-0.013 0.402-0.011 0.401-0.011 0.402-0.011 0.403-0.01 0.804-0.018 0.403-8e-3 0.806-0.014 0.403-6e-3 0.806-0.01 0.807-8e-3 0.404-3e-3 0.404-2e-3 0.404-1e-3 0.809-2e-3h1500zm-1499.9 163.72-0.161 1e-3h-0.086-0.092l-0.079 1e-3h-0.085l-0.09 1e-3 -0.078 1e-3 -0.084 1e-3 -0.166 2e-3 -0.082 2e-3 -0.082 1e-3 -0.089 2e-3 -0.081 2e-3 -0.081 1e-3 -0.087 3e-3 -0.16 4e-3 -0.086 2e-3 -0.079 3e-3 -0.079 2e-3 -0.091 3e-3 -0.156 6e-3 -0.09 4e-3 -0.154 6e-3 -0.083 4e-3 -0.082 3e-3 -0.082 4e-3 -0.081 4e-3 -0.082 4e-3 -0.081 4e-3 -0.08 5e-3 -0.16 8e-3 -0.08 5e-3 -0.079 5e-3 -0.085 5e-3 -0.079 5e-3 -0.078 5e-3 -0.084 5e-3 -0.078 6e-3 -0.154 0.01-0.082 6e-3 -0.083 6e-3 -0.076 6e-3 -0.075 6e-3 -0.082 6e-3 -0.081 7e-3 -0.081 6e-3 -0.08 7e-3 -0.074 6e-3 -0.16 0.014-0.073 7e-3 -0.085 8e-3 -0.079 7e-3 -0.072 7e-3 -0.084 8e-3 -0.078 7e-3 -0.231 0.024-0.083 8e-3 -0.152 0.016-0.076 9e-3 -0.162 0.018-0.068 8e-3 -0.081 9e-3 -0.08 9e-3 -0.075 9e-3 -0.079 9e-3 -0.079 0.01-0.152 0.019-0.079 0.01-0.078 0.01-0.072 9e-3 -0.084 0.011-0.077 0.01-0.071 0.01-0.077 0.01-0.077 0.011-0.082 0.011-0.077 0.011-0.069 0.01-0.081 0.012-0.082 0.012-0.15 0.022-0.148 0.022-0.08 0.013-0.08 0.012-0.073 0.011-0.073 0.012-0.079 0.013-0.229 0.037-0.156 0.026-0.302 0.052-0.152 0.027-0.152 0.028-0.306 0.056-0.151 0.029-0.154 0.03-0.15 0.029-0.151 0.03-0.154 0.032-0.153 0.031-0.152 0.032-0.148 0.031-0.153 0.034-0.155 0.034-0.151 0.033-0.151 0.034-0.304 0.07-0.151 0.036-0.156 0.037-0.152 0.037-0.151 0.037-0.153 0.038-0.15 0.038-0.154 0.04-0.153 0.039-0.15 0.04-0.156 0.041-0.151 0.041-0.153 0.041-0.156 0.043-0.152 0.043-0.151 0.042-0.153 0.044-0.31 0.09-0.153 0.045-0.154 0.046-0.155 0.047-0.151 0.047-0.154 0.047-0.159 0.05-0.152 0.048-0.154 0.049-0.157 0.051-0.153 0.05-0.158 0.052-0.154 0.051-0.153 0.052-0.159 0.054-0.155 0.053-0.154 0.054-0.16 0.056-0.156 0.055-0.155 0.055-0.158 0.057-0.156 0.057-0.159 0.058-0.155 0.058-0.157 0.059-0.16 0.06-0.156 0.06-0.158 0.061-0.161 0.063-0.159 0.062-0.156 0.062-0.159 0.063-0.32 0.13-0.159 0.065-0.159 0.066-0.161 0.067-0.159 0.067-0.16 0.068-0.162 0.07-0.16 0.069-0.163 0.071-0.16 0.07-0.16 0.071-0.162 0.072-0.164 0.074-0.163 0.074-0.159 0.073-0.163 0.075-0.164 0.076-0.16 0.075-0.165 0.078-0.164 0.079-0.164 0.078-0.163 0.079-0.162 0.079-0.164 0.081-0.167 0.082-0.328 0.164-0.165 0.084-0.164 0.084-0.166 0.085-0.166 0.086-0.167 0.087-0.164 0.086-0.334 0.178-0.33 0.178-0.169 0.092-0.168 0.093-0.165 0.091-0.167 0.093-0.169 0.094-0.169 0.096-0.166 0.094-0.168 0.097-0.17 0.098-0.166 0.096-0.17 0.1-0.167 0.098-0.169 0.1-0.34 0.204-0.169 0.103-0.168 0.102-0.17 0.104-0.171 0.106-0.169 0.105-0.17 0.106-0.172 0.109-0.17 0.108-0.167 0.107-0.172 0.11-0.173 0.112-0.17 0.111-0.17 0.112-0.17 0.111-0.171 0.114-0.172 0.116-0.172 0.115-0.171 0.117-0.173 0.117-0.17 0.117-0.17 0.118-0.174 0.121-0.173 0.12-0.172 0.121-0.169 0.121-0.174 0.123-0.172 0.124-0.17 0.123-0.174 0.127-0.173 0.126-0.172 0.127-0.174 0.129-0.171 0.127-0.171 0.128-0.174 0.132-0.173 0.131-0.173 0.133-0.171 0.131-0.171 0.132-0.176 0.137-0.173 0.135-0.171 0.136-0.174 0.137-0.172 0.138-0.173 0.138-0.173 0.141-0.173 0.14-0.172 0.141-0.171 0.141-0.174 0.143-0.174 0.145-0.171 0.144-0.172 0.144-0.172 0.146-0.173 0.148-0.174 0.149-0.344 0.298-0.171 0.15-0.172 0.151-0.173 0.154-0.172 0.152-0.172 0.154-0.342 0.31-0.174 0.158-0.171 0.157-0.17 0.156-0.171 0.159-0.173 0.162-0.169 0.159-0.172 0.162-0.172 0.164-0.169 0.161-0.17 0.164-0.172 0.166-0.34 0.332-0.17 0.167-0.17 0.169-0.337 0.337-0.171 0.173-0.17 0.173-0.168 0.171-0.168 0.172-0.168 0.174-0.169 0.176-0.17 0.177-0.168 0.177-0.166 0.175-0.168 0.179-0.168 0.181-0.167 0.179-0.332 0.362-0.166 0.182-0.167 0.184-0.166 0.184-0.166 0.185-0.166 0.187-0.165 0.186-0.165 0.188-0.164 0.188-0.163 0.188-0.166 0.191-0.163 0.19-0.163 0.191-0.164 0.194-0.163 0.193-0.163 0.195-0.161 0.193-0.162 0.196-0.162 0.197-0.161 0.197-0.161 0.198-0.161 0.199-0.32 0.4-0.161 0.203-0.316 0.402-0.16 0.205-0.159 0.205-0.158 0.206-0.157 0.205-0.157 0.207-0.157 0.208-0.156 0.208-0.156 0.209-0.156 0.21-0.155 0.211-0.154 0.211-0.155 0.213-0.154 0.214-0.154 0.213-0.153 0.216-0.153 0.215-0.152 0.217-0.152 0.216-0.152 0.218-0.15 0.218-0.151 0.219-0.3 0.442-0.15 0.223-0.148 0.221-0.149 0.224-0.148 0.224-0.147 0.224-0.146 0.225-0.147 0.226-0.292 0.456-0.145 0.228-0.145 0.23-0.143 0.229-0.144 0.231-0.286 0.464-0.141 0.232-0.142 0.234-0.141 0.235-0.14 0.234-0.14 0.237-0.14 0.236-0.138 0.237-0.139 0.239-0.137 0.238-0.138 0.24-0.137 0.24-0.135 0.24-0.136 0.242-0.135 0.242-0.135 0.244-0.134 0.244-0.132 0.243-0.266 0.492-0.131 0.246-0.131 0.247-0.13 0.249-0.13 0.248-0.129 0.25-0.128 0.249-0.128 0.251-0.128 0.252-0.127 0.252-0.126 0.253-0.125 0.252-0.125 0.255-0.125 0.256-0.123 0.254-0.123 0.257-0.122 0.256-0.122 0.258-0.121 0.258-0.12 0.259-0.12 0.26-0.119 0.26-0.119 0.261-0.117 0.261-0.117 0.262-0.117 0.264-0.116 0.263-0.115 0.264-0.114 0.266-0.114 0.265-0.113 0.265-0.113 0.268-0.111 0.267-0.111 0.268-0.22 0.538-0.109 0.27-0.108 0.271-0.107 0.271-0.107 0.272-0.212 0.546-0.208 0.548-0.103 0.275-0.204 0.552-0.101 0.278-0.1 0.277-0.1 0.278-0.196 0.558-0.097 0.28-0.097 0.281-0.096 0.282-0.095 0.281-0.094 0.283-0.093 0.283-0.093 0.284-0.092 0.284-0.091 0.285-0.09 0.286-0.089 0.286-0.089 0.287-0.088 0.287-0.087 0.288-0.087 0.289-0.085 0.289-0.085 0.29-0.084 0.29-0.083 0.291-0.164 0.584-0.081 0.293-0.079 0.293-0.079 0.294-0.079 0.295-0.077 0.295-0.077 0.296-0.075 0.296-0.075 0.297-0.074 0.297-0.074 0.298-0.144 0.598-0.14 0.6-0.069 0.301-0.068 0.302-0.067 0.302-0.067 0.303-0.065 0.303-0.065 0.304-0.064 0.304-0.063 0.306-0.062 0.305-0.061 0.306-0.12 0.614-0.058 0.309-0.058 0.308-0.056 0.308-0.056 0.311-0.055 0.31-0.054 0.31-0.053 0.312-0.052 0.312-0.052 0.313-0.05 0.312-0.098 0.628-0.048 0.315-0.046 0.315-0.046 0.316-0.045 0.317-0.044 0.317-0.043 0.318-0.042 0.317-0.041 0.319-0.04 0.32-0.039 0.32-0.038 0.32-0.037 0.321-0.072 0.644-0.034 0.323-0.033 0.323-0.033 0.324-0.062 0.65-0.058 0.652-0.027 0.326-0.052 0.656-0.024 0.328-0.024 0.329-0.044 0.66-0.04 0.662-0.018 0.332-0.034 0.666-0.015 0.334-0.014 0.334-0.014 0.335-0.012 0.335-0.011 0.336-0.01 0.337-9e-3 0.337-8e-3 0.338-7e-3 0.338-6e-3 0.339-5e-3 0.339-4e-3 0.341-2e-3 0.34-2e-3 0.341-1e-3 0.459v981.87l1e-3 0.46 4e-3 0.68 4e-3 0.34 5e-3 0.34 6e-3 0.34 7e-3 0.34 8e-3 0.34 9e-3 0.34 0.01 0.33 0.011 0.34 0.012 0.33 0.014 0.34 0.014 0.33 0.015 0.34 0.034 0.66 0.018 0.33 0.02 0.33 0.02 0.34 0.044 0.66 0.024 0.33 0.024 0.32 0.052 0.66 0.027 0.33 0.029 0.32 0.029 0.33 0.031 0.32 0.031 0.33 0.033 0.32 0.033 0.33 0.034 0.32 0.035 0.32 0.074 0.64 0.038 0.32 0.039 0.32 0.041 0.32 0.04 0.32 0.042 0.32 0.043 0.32 0.044 0.31 0.045 0.32 0.046 0.32 0.046 0.31 0.048 0.32 0.098 0.62 0.05 0.32 0.104 0.62 0.053 0.31 0.054 0.31 0.055 0.31 0.112 0.62 0.116 0.62 0.06 0.31 0.06 0.3 0.061 0.31 0.062 0.31 0.063 0.3 0.064 0.3 0.065 0.31 0.065 0.3 0.067 0.31 0.067 0.3 0.068 0.3 0.069 0.3 0.14 0.6 0.144 0.6 0.074 0.29 0.074 0.3 0.075 0.3 0.076 0.3 0.076 0.29 0.077 0.3 0.078 0.29 0.08 0.29 0.08 0.3 0.08 0.29 0.081 0.29 0.083 0.3 0.083 0.29 0.084 0.29 0.17 0.58 0.087 0.29 0.087 0.28 0.087 0.29 0.09 0.29 0.089 0.28 0.09 0.29 0.091 0.28 0.093 0.29 0.092 0.28 0.093 0.28 0.094 0.29 0.095 0.28 0.192 0.56 0.196 0.56 0.198 0.56 0.099 0.27 0.306 0.84 0.103 0.27 0.104 0.27 0.104 0.28 0.105 0.27 0.214 0.54 0.107 0.28 0.109 0.27 0.108 0.27 0.109 0.26 0.112 0.28 0.111 0.27 0.111 0.26 0.112 0.27 0.113 0.26 0.113 0.27 0.115 0.26 0.116 0.27 0.115 0.26 0.117 0.26 0.117 0.27 0.117 0.26 0.119 0.26 0.118 0.26 0.119 0.26 0.122 0.26 0.123 0.26 0.121 0.26 0.12 0.25 0.123 0.26 0.126 0.26 0.122 0.25 0.126 0.25 0.126 0.26 0.125 0.25 0.127 0.25 0.126 0.25 0.13 0.25 0.13 0.26 0.126 0.24 0.13 0.25 0.132 0.25 0.131 0.25 0.129 0.24 0.133 0.25 0.135 0.25 0.264 0.48 0.136 0.24 0.136 0.25 0.27 0.48 0.138 0.24 0.137 0.24 0.135 0.23 0.141 0.25 0.139 0.23 0.137 0.24 0.143 0.24 0.278 0.46 0.145 0.24 0.141 0.23 0.142 0.23 0.145 0.24 0.142 0.23 0.144 0.22 0.144 0.23 0.145 0.23 0.146 0.23 0.143 0.22 0.147 0.23 0.151 0.23 0.146 0.22 0.146 0.23 0.15 0.22 0.151 0.23 0.148 0.22 0.298 0.44 0.151 0.22 0.151 0.21 0.151 0.22 0.306 0.44 0.154 0.21 0.151 0.21 0.155 0.22 0.152 0.21 0.153 0.21 0.157 0.22 0.155 0.21 0.158 0.21 0.156 0.21 0.152 0.2 0.157 0.21 0.162 0.21 0.158 0.21 0.151 0.2 0.16 0.2 0.161 0.21 0.156 0.2 0.162 0.21 0.163 0.2 0.159 0.2 0.155 0.19 0.165 0.21 0.161 0.2 0.157 0.19 0.166 0.2 0.163 0.2 0.159 0.19 0.164 0.19 0.322 0.38 0.171 0.2 0.162 0.19 0.158 0.18 0.168 0.2 0.169 0.19 0.16 0.18 0.165 0.19 0.166 0.19 0.162 0.18 0.167 0.18 0.169 0.19 0.168 0.18 0.169 0.19 0.165 0.18 0.165 0.17 0.166 0.18 0.334 0.36 0.168 0.17 0.173 0.19 0.169 0.17 0.165 0.17 0.164 0.17 0.171 0.17 0.177 0.18 0.167 0.17 0.161 0.16 0.174 0.18 0.174 0.17 0.169 0.17 0.169 0.16 0.171 0.17 0.17 0.16 0.165 0.16 0.172 0.17 0.178 0.17 0.168 0.15 0.168 0.16 0.174 0.16 0.168 0.16 0.176 0.16 0.17 0.16 0.17 0.15 0.177 0.16 0.166 0.15 0.172 0.16 0.346 0.3 0.174 0.16 0.168 0.14 0.175 0.16 0.169 0.14 0.17 0.15 0.176 0.15 0.178 0.15 0.171 0.14 0.165 0.14 0.179 0.15 0.173 0.14 0.167 0.14 0.173 0.14 0.175 0.14 0.175 0.15 0.176 0.14 0.169 0.13 0.17 0.14 0.17 0.13 0.178 0.14 0.172 0.13 0.171 0.14 0.18 0.14 0.166 0.12 0.173 0.13 0.174 0.14 0.167 0.12 0.175 0.13 0.176 0.13 0.168 0.13 0.177 0.12 0.17 0.13 0.17 0.12 0.178 0.13 0.164 0.11 0.171 0.13 0.18 0.12 0.173 0.13 0.166 0.11 0.348 0.24 0.167 0.11 0.175 0.12 0.168 0.11 0.168 0.12 0.177 0.12 0.34 0.22 0.179 0.12 0.162 0.1 0.172 0.11 0.171 0.11 0.164 0.1 0.174 0.12 0.174 0.1 0.174 0.11 0.166 0.1 0.166 0.11 0.334 0.2 0.177 0.11 0.17 0.1 0.16 0.09 0.179 0.11 0.17 0.1 0.161 0.09 0.172 0.1 0.162 0.09 0.172 0.1 0.174 0.1 0.155 0.09 0.165 0.09 0.174 0.09 0.175 0.1 0.167 0.09 0.157 0.09 0.168 0.09 0.167 0.09 0.16 0.08 0.338 0.18 0.171 0.09 0.161 0.08 0.162 0.08 0.172 0.09 0.162 0.08 0.163 0.08 0.165 0.08 0.164 0.08 0.154 0.08 0.166 0.08 0.176 0.08 0.157 0.08 0.157 0.07 0.168 0.08 0.169 0.08 0.158 0.07 0.159 0.08 0.171 0.07 0.161 0.07 0.15 0.07 0.161 0.07 0.174 0.08 0.152 0.07 0.152 0.06 0.165 0.07 0.176 0.08 0.164 0.07 0.135 0.05 0.177 0.08 0.314 0.12 0.157 0.07 0.159 0.06 0.181 0.07 0.137 0.06 0.139 0.05 0.183 0.07 0.162 0.06 0.14 0.06 0.162 0.06 0.328 0.12 0.143 0.05 0.166 0.06 0.167 0.06 0.144 0.05 0.145 0.05 0.169 0.06 0.146 0.05 0.147 0.05 0.342 0.12 0.15 0.05 0.127 0.04 0.174 0.05 0.174 0.06 0.129 0.04 0.153 0.05 0.154 0.04 0.155 0.05 0.178 0.05 0.133 0.04 0.156 0.05 0.158 0.05 0.135 0.04 0.182 0.05 0.16 0.04 0.113 0.03 0.162 0.05 0.186 0.05 0.139 0.04 0.141 0.03 0.141 0.04 0.165 0.04 0.166 0.05 0.144 0.03 0.144 0.04 0.145 0.04 0.17 0.04 0.147 0.03 0.148 0.04 0.173 0.04 0.149 0.03 0.127 0.03 0.151 0.03 0.176 0.04 0.153 0.03 0.13 0.03 0.155 0.04 0.156 0.03 0.157 0.03 0.316 0.06 0.136 0.03 0.136 0.02 0.186 0.04 0.138 0.02 0.139 0.03 0.165 0.03 0.166 0.03 0.142 0.02 0.144 0.03 0.245 0.03 0.069 0.02 0.146 0.02 0.222 0.03 0.074 0.02 0.074 0.01 0.076 0.01 0.125 0.02 0.075 0.01h0.026l0.152 0.02 0.127 0.02 0.077 0.01h0.027l0.077 0.01 0.128 0.02 0.078 0.01h0.028l0.237 0.03 0.13 0.02 0.079 0.01h0.03l0.081 0.01 0.08 0.01 0.162 0.02h0.032l0.081 0.01 0.133 0.02h0.082l0.083 0.01 0.033 0.01h0.083l0.252 0.03 0.17 0.02h0.035l0.085 0.01h0.086l0.086 0.01 0.087 0.01 0.086 0.01h0.088l0.087 0.01h0.038l0.088 0.01h0.088l0.178 0.02h0.039l0.09 0.01h0.09l0.091 0.01h0.04l0.091 0.01 0.142 0.01h0.041 0.042l0.093 0.01h0.092l0.094 0.01h0.093l0.094 0.01h0.044 0.044l0.145 0.01h0.095 0.046l0.045 0.01h0.097 0.147l0.046 0.01h0.047 0.098 0.098l0.099 0.01h0.048 0.099 0.1 0.049l0.101 0.01h0.05 0.101 0.101 0.052 0.102 0.102l0.103 0.01h0.053 0.054 0.104 0.104 0.105 0.155 1499.8 0.16 0.1 0.1 0.11 0.05 0.06l0.1-0.01h0.1 0.1 0.05 0.1 0.11 0.05l0.1-0.01h0.05 0.1 0.09 0.05l0.1-0.01h0.1 0.1 0.05l0.04-0.01h0.15 0.1l0.04-0.01h0.04 0.1l0.14-0.01h0.05 0.05l0.09-0.01h0.09l0.09-0.01h0.1l0.09-0.01h0.04 0.04l0.15-0.01 0.09-0.01h0.04l0.09-0.01h0.09l0.09-0.01h0.04l0.09-0.01 0.08-0.01h0.09l0.09-0.01h0.04l0.08-0.01h0.09l0.18-0.02 0.08-0.01h0.09l0.08-0.01 0.04-0.01h0.08l0.09-0.01 0.08-0.01 0.09-0.01 0.08-0.01h0.08l0.03-0.01 0.09-0.01h0.08l0.13-0.02 0.08-0.01h0.04l0.32-0.04h0.03l0.08-0.01 0.13-0.02 0.24-0.03h0.03l0.07-0.01 0.13-0.02 0.08-0.01h0.03l0.07-0.01 0.13-0.02 0.08-0.01 0.07-0.01h0.02l0.08-0.01 0.13-0.02 0.07-0.01 0.08-0.02 0.14-0.02 0.08-0.01 0.14-0.02 0.08-0.01 0.07-0.02 0.24-0.03 0.14-0.03 0.15-0.02 0.16-0.03 0.17-0.03 0.14-0.03 0.14-0.02 0.18-0.04 0.14-0.02 0.13-0.03 0.48-0.09 0.15-0.03 0.16-0.04 0.13-0.03 0.15-0.03 0.18-0.04 0.15-0.03 0.12-0.03 0.15-0.03 0.18-0.04 0.14-0.04 0.15-0.03 0.17-0.04 0.15-0.04 0.14-0.04 0.15-0.03 0.16-0.05 0.17-0.04 0.14-0.04 0.14-0.03 0.14-0.04 0.18-0.05 0.17-0.05 0.11-0.03 0.16-0.04 0.18-0.05 0.14-0.04 0.15-0.05 0.16-0.05 0.13-0.04 0.18-0.05 0.16-0.05 0.15-0.04 0.15-0.05 0.13-0.04 0.17-0.06 0.18-0.05 0.13-0.05 0.15-0.04 0.34-0.12 0.14-0.05 0.15-0.05 0.17-0.06 0.14-0.05 0.15-0.05 0.17-0.06 0.16-0.06 0.14-0.05 0.17-0.06 0.32-0.12 0.14-0.06 0.17-0.06 0.18-0.07 0.14-0.05 0.14-0.06 0.18-0.07 0.15-0.06 0.16-0.07 0.32-0.12 0.17-0.08 0.14-0.05 0.16-0.07 0.18-0.08 0.17-0.07 0.14-0.06 0.16-0.07 0.17-0.08 0.16-0.07 0.15-0.07 0.17-0.07 0.16-0.07 0.16-0.08 0.16-0.07 0.34-0.16 0.16-0.07 0.15-0.08 0.18-0.08 0.48-0.24 0.17-0.08 0.5-0.25 0.15-0.08 0.17-0.09 0.17-0.08 0.16-0.09 0.18-0.09 0.16-0.09 0.17-0.08 0.48-0.27 0.18-0.1 0.19-0.1 0.15-0.08 0.15-0.09 0.18-0.1 0.16-0.09 0.18-0.1 0.17-0.1 0.15-0.09 0.18-0.1 0.18-0.11 0.15-0.09 0.18-0.1 0.17-0.11 0.16-0.09 0.18-0.12 0.16-0.1 0.16-0.09 0.19-0.12 0.16-0.1 0.19-0.12 0.16-0.1 0.17-0.11 0.16-0.11 0.16-0.1 0.19-0.12 0.17-0.11 0.17-0.12 0.18-0.11 0.16-0.12 0.17-0.11 0.18-0.12 0.17-0.11 0.17-0.12 0.16-0.11 0.17-0.12 0.18-0.13 0.18-0.12 0.18-0.13 0.15-0.11 0.36-0.26 0.16-0.11 0.17-0.13 0.36-0.26 0.68-0.52 0.18-0.13 0.17-0.13 0.17-0.14 0.17-0.13 0.18-0.13 0.16-0.14 0.18-0.14 0.17-0.14 0.17-0.13 0.17-0.14 0.19-0.15 0.18-0.14 0.15-0.13 0.36-0.3 0.16-0.14 0.18-0.15 0.17-0.14 0.18-0.15 0.17-0.15 0.16-0.14 0.18-0.16 0.18-0.15 0.17-0.15 0.16-0.15 0.17-0.14 0.18-0.17 0.17-0.15 0.18-0.16 0.16-0.15 0.17-0.15 0.18-0.17 0.34-0.32 0.17-0.15 0.16-0.16 0.2-0.18 0.15-0.16 0.17-0.15 0.34-0.34 0.17-0.16 0.35-0.35 0.16-0.15 0.17-0.17 0.17-0.18 0.18-0.18 0.16-0.17 0.17-0.17 0.17-0.18 0.16-0.17 0.35-0.35 0.17-0.19 0.15-0.16 0.17-0.18 0.18-0.19 0.15-0.16 0.17-0.2 0.18-0.19 0.16-0.17 0.16-0.18 0.17-0.2 0.17-0.18 0.16-0.19 0.32-0.36 0.18-0.21 0.16-0.18 0.15-0.18 0.19-0.22 0.15-0.17 0.16-0.2 0.17-0.2 0.15-0.18 0.17-0.2 0.17-0.21 0.16-0.19 0.15-0.19 0.32-0.4 0.17-0.21 0.15-0.2 0.16-0.2 0.15-0.19 0.17-0.22 0.16-0.2 0.15-0.19 0.16-0.22 0.32-0.42 0.15-0.2 0.15-0.21 0.17-0.22 0.16-0.21 0.14-0.2 0.16-0.21 0.15-0.22 0.16-0.21 0.15-0.22 0.16-0.22 0.15-0.22 0.15-0.2 0.15-0.23 0.16-0.22 0.14-0.21 0.15-0.23 0.15-0.21 0.15-0.22 0.16-0.24 0.13-0.2 0.45-0.69 0.16-0.24 0.13-0.21 0.15-0.23 0.14-0.22 0.14-0.23 0.15-0.22 0.15-0.25 0.14-0.23 0.13-0.21 0.15-0.25 0.15-0.24 0.14-0.24 0.14-0.23 0.13-0.22 0.28-0.48 0.15-0.25 0.13-0.24 0.13-0.22 0.28-0.5 0.13-0.23 0.28-0.5 0.13-0.23 0.26-0.48 0.14-0.26 0.13-0.25 0.13-0.24 0.13-0.25 0.13-0.24 0.12-0.24 0.14-0.27 0.13-0.25 0.12-0.25 0.13-0.25 0.12-0.25 0.14-0.27 0.12-0.24 0.12-0.25 0.12-0.26 0.13-0.26 0.12-0.26 0.11-0.24 0.13-0.27 0.12-0.26 0.12-0.27 0.12-0.24 0.24-0.54 0.11-0.25 0.12-0.27 0.11-0.26 0.12-0.25 0.12-0.28 0.11-0.28 0.22-0.52 0.12-0.28 0.11-0.26 0.1-0.25 0.12-0.28 0.11-0.29 0.1-0.25 0.11-0.27 0.11-0.29 0.11-0.27 0.1-0.25 0.1-0.28 0.11-0.27 0.2-0.56 0.11-0.28 0.1-0.29 0.09-0.26 0.1-0.28 0.11-0.28 0.09-0.27 0.2-0.58 0.37-1.11 0.09-0.28 0.1-0.31 0.09-0.28 0.09-0.26 0.09-0.3 0.09-0.29 0.08-0.28 0.1-0.3 0.08-0.29 0.09-0.29 0.08-0.27 0.08-0.29 0.09-0.31 0.08-0.29 0.08-0.3 0.08-0.27 0.32-1.2 0.07-0.28 0.08-0.3 0.08-0.31 0.07-0.28 0.07-0.29 0.07-0.31 0.08-0.31 0.07-0.29 0.06-0.29 0.07-0.31 0.08-0.32 0.06-0.29 0.07-0.3 0.06-0.3 0.07-0.3 0.06-0.32 0.06-0.3 0.06-0.29 0.07-0.32 0.06-0.31 0.05-0.28 0.06-0.33 0.18-0.93 0.05-0.3 0.05-0.31 0.06-0.32 0.1-0.64 0.05-0.3 0.05-0.29 0.05-0.33 0.05-0.32 0.04-0.31 0.05-0.32 0.04-0.33 0.05-0.31 0.08-0.62 0.04-0.33 0.04-0.32 0.04-0.31 0.04-0.34 0.04-0.32 0.03-0.31 0.04-0.32 0.03-0.33 0.04-0.32 0.03-0.32 0.03-0.33 0.03-0.3 0.03-0.33 0.03-0.35 0.03-0.33 0.02-0.33 0.03-0.31 0.02-0.32 0.03-0.35 0.02-0.34 0.02-0.3 0.04-0.68 0.02-0.32 0.02-0.34 0.01-0.35 0.02-0.32 0.01-0.33 0.02-0.35 0.01-0.32 0.01-0.34 0.02-0.66v-0.35l0.02-0.68v-0.33l0.01-0.34v-0.35-0.34-0.46-981.87-0.465-0.342-0.34l-0.01-0.34v-0.338l-0.01-0.337-0.01-0.335v-0.355l-0.01-0.333-0.02-0.662-0.01-0.329-0.02-0.348-0.01-0.326-0.02-0.326-0.01-0.344-0.02-0.343-0.02-0.321-0.02-0.341-0.02-0.339-0.02-0.297-0.02-0.337-0.03-0.356-0.02-0.313-0.03-0.313-0.02-0.331-0.03-0.33-0.03-0.349-0.03-0.328-0.03-0.306-0.03-0.326-0.03-0.324-0.04-0.322-0.03-0.321-0.04-0.32-0.03-0.319-0.04-0.318-0.04-0.336-0.04-0.315-0.04-0.314-0.04-0.333-0.08-0.62-0.05-0.309-0.04-0.328-0.05-0.326-0.04-0.304-0.05-0.324-0.05-0.323-0.05-0.301-0.05-0.299-0.05-0.319-0.05-0.317-0.06-0.317-0.05-0.315-0.05-0.293-0.06-0.313-0.12-0.62-0.06-0.33-0.05-0.286-0.06-0.306-0.07-0.325-0.06-0.283-0.06-0.302-0.07-0.321-0.06-0.3-0.06-0.298-0.07-0.297-0.06-0.296-0.08-0.315-0.07-0.313-0.06-0.292-0.07-0.29-0.08-0.31-0.07-0.309-0.14-0.572-0.08-0.304-0.08-0.303-0.07-0.282-0.08-0.301-0.08-0.299-0.08-0.298-0.08-0.296-0.08-0.276-0.08-0.293-0.08-0.294-0.09-0.311-0.08-0.29-0.08-0.27-0.09-0.287-0.08-0.286-0.1-0.306-0.08-0.283-0.09-0.283-0.09-0.301-0.09-0.26-0.09-0.279-0.1-0.317-0.09-0.276-0.09-0.275-0.1-0.293-0.09-0.271-0.09-0.272-0.1-0.29-0.1-0.287-0.09-0.267-0.1-0.286-0.11-0.284-0.09-0.263-0.1-0.282-0.11-0.28-0.1-0.279-0.1-0.277-0.11-0.277-0.1-0.275-0.1-0.254-0.11-0.273-0.11-0.29-0.11-0.269-0.1-0.25-0.11-0.287-0.12-0.285-0.1-0.245-0.11-0.263-0.12-0.281-0.11-0.261-0.11-0.259-0.11-0.277-0.12-0.277-0.12-0.254-0.11-0.254-0.12-0.273-0.11-0.252-0.24-0.536-0.12-0.248-0.12-0.265-0.12-0.264-0.12-0.262-0.12-0.243-0.12-0.26-0.13-0.258-0.12-0.257-0.13-0.256-0.11-0.237-0.14-0.271-0.12-0.252-0.26-0.5-0.12-0.249-0.14-0.263-0.12-0.246-0.26-0.488-0.13-0.241-0.13-0.257-0.14-0.258-0.13-0.237-0.13-0.235-0.13-0.236-0.14-0.252-0.14-0.249-0.13-0.232-0.14-0.247-0.14-0.246-0.13-0.227-0.28-0.486-0.14-0.24-0.14-0.239-0.13-0.221-0.28-0.472-0.15-0.235-0.15-0.249-0.13-0.213-0.14-0.231-0.15-0.246-0.15-0.226-0.14-0.227-0.14-0.225-0.15-0.223-0.14-0.223-0.15-0.238-0.14-0.218-0.16-0.234-0.15-0.234-0.13-0.2-0.16-0.229-0.15-0.231-0.15-0.211-0.15-0.227-0.14-0.209-0.16-0.224-0.15-0.223-0.15-0.204-0.15-0.22-0.16-0.219-0.15-0.218-0.16-0.215-0.15-0.215-0.16-0.214-0.14-0.195-0.16-0.211-0.16-0.225-0.16-0.208-0.15-0.206-0.16-0.206-0.15-0.203-0.17-0.218-0.15-0.202-0.16-0.2-0.17-0.215-0.3-0.392-0.16-0.195-0.17-0.209-0.16-0.207-0.16-0.191-0.15-0.189-0.17-0.204-0.16-0.202-0.17-0.2-0.15-0.184-0.17-0.198-0.16-0.196-0.16-0.183-0.17-0.207-0.16-0.177-0.16-0.193-0.18-0.203-0.15-0.174-0.17-0.187-0.16-0.186-0.17-0.185-0.17-0.197-0.17-0.182-0.15-0.168-0.17-0.193-0.18-0.192-0.15-0.162-0.18-0.189-0.17-0.189-0.15-0.16-0.18-0.183-0.17-0.183-0.16-0.171-0.17-0.169-0.17-0.18-0.17-0.177-0.16-0.163-0.18-0.177-0.17-0.176-0.17-0.172-0.16-0.159-0.17-0.171-0.18-0.169-0.17-0.168-0.17-0.166-0.17-0.168-0.17-0.163-0.16-0.149-0.18-0.176-0.17-0.161-0.17-0.157-0.17-0.159-0.17-0.158-0.18-0.165-0.17-0.154-0.17-0.155-0.16-0.151-0.18-0.162-0.18-0.161-0.17-0.147-0.16-0.148-0.17-0.146-0.18-0.155-0.17-0.154-0.17-0.142-0.18-0.152-0.17-0.152-0.17-0.138-0.17-0.147-0.18-0.147-0.17-0.147-0.18-0.144-0.16-0.132-0.17-0.142-0.19-0.151-0.17-0.14-0.16-0.128-0.17-0.137-0.19-0.147-0.51-0.402-0.17-0.131-0.17-0.128-0.18-0.139-0.17-0.129-0.17-0.128-0.18-0.134-0.16-0.123-0.18-0.134-0.18-0.131-0.17-0.122-0.16-0.121-0.18-0.126-0.18-0.127-0.16-0.118-0.17-0.123-0.18-0.123-0.17-0.123-0.18-0.122-0.16-0.11-0.17-0.118-0.17-0.119-0.18-0.116-0.17-0.116-0.17-0.115-0.17-0.113-0.17-0.112-0.17-0.11-0.18-0.118-0.17-0.11-0.17-0.109-0.16-0.105-0.17-0.106-0.18-0.113-0.16-0.103-0.18-0.11-0.16-0.102-0.17-0.102-0.19-0.112-0.16-0.099-0.16-0.098-0.18-0.104-0.16-0.096-0.34-0.202-0.16-0.092-0.17-0.099-0.18-0.105-0.16-0.088-0.17-0.096-0.17-0.095-0.15-0.087-0.18-0.098-0.34-0.184-0.32-0.176-0.17-0.089-0.16-0.087-0.18-0.091-0.16-0.085-0.16-0.084-0.18-0.089-0.16-0.082-0.16-0.084-0.17-0.083-0.16-0.079-0.17-0.085-0.16-0.081-0.16-0.078-0.17-0.079-0.16-0.077-0.16-0.08-0.17-0.079-0.16-0.074-0.16-0.075-0.17-0.076-0.16-0.074-0.16-0.072-0.16-0.074-0.17-0.075-0.15-0.068-0.16-0.07-0.17-0.073-0.15-0.067-0.17-0.069-0.16-0.071-0.16-0.067-0.32-0.132-0.16-0.064-0.16-0.066-0.16-0.065-0.15-0.062-0.16-0.062-0.16-0.063-0.16-0.062-0.16-0.063-0.16-0.059-0.16-0.06-0.15-0.059-0.16-0.057-0.16-0.059-0.16-0.058-0.15-0.056-0.15-0.054-0.16-0.057-0.17-0.057-0.14-0.052-0.16-0.053-0.16-0.054-0.15-0.052-0.16-0.051-0.15-0.052-0.16-0.049-0.16-0.052-0.15-0.05-0.15-0.047-0.16-0.049-0.15-0.048-0.16-0.047-0.3-0.092-0.16-0.047-0.15-0.044-0.16-0.045-0.15-0.045-0.15-0.041-0.15-0.042-0.16-0.044-0.15-0.042-0.15-0.04-0.16-0.041-0.3-0.08-0.16-0.039-0.3-0.076-0.15-0.036-0.15-0.038-0.16-0.037-0.15-0.036-0.3-0.07-0.15-0.034-0.15-0.033-0.16-0.034-0.15-0.033-0.3-0.064-0.16-0.032-0.15-0.031-0.15-0.03-0.15-0.029-0.15-0.03-0.16-0.029-0.15-0.028-0.15-0.029-0.15-0.027-0.16-0.027-0.45-0.078-0.23-0.037-0.08-0.013-0.08-0.012-0.07-0.011-0.08-0.012-0.08-0.013-0.14-0.022-0.08-0.011-0.07-0.011-0.09-0.012-0.08-0.012-0.14-0.02-0.09-0.012-0.08-0.011-0.14-0.02-0.08-0.01-0.08-0.011-0.07-9e-3 -0.16-0.02-0.07-9e-3 -0.16-0.02-0.32-0.036-0.07-8e-3 -0.08-9e-3 -0.08-0.01-0.07-8e-3 -0.08-7e-3 -0.16-0.018-0.08-7e-3 -0.07-8e-3 -0.08-8e-3 -0.08-7e-3 -0.15-0.015-0.08-7e-3 -0.09-8e-3 -0.07-7e-3 -0.16-0.014-0.07-6e-3 -0.09-7e-3 -0.08-6e-3 -0.08-7e-3 -0.08-6e-3 -0.07-6e-3 -0.16-0.012-0.09-6e-3 -0.07-5e-3 -0.08-5e-3 -0.08-6e-3 -0.48-0.03-0.16-8e-3 -0.08-5e-3 -0.16-8e-3 -0.09-4e-3 -0.08-4e-3 -0.08-3e-3 -0.08-4e-3 -0.16-6e-3 -0.09-4e-3 -0.07-3e-3 -0.08-3e-3 -0.09-3e-3 -0.08-2e-3 -0.08-3e-3 -0.09-2e-3 -0.16-4e-3 -0.08-3e-3 -0.09-1e-3 -0.16-4e-3 -0.09-1e-3 -0.08-2e-3 -0.08-1e-3 -0.09-1e-3 -0.16-2e-3 -0.09-1e-3h-0.08l-0.08-1e-3h-0.09-0.09l-0.16-1e-3h-1499.8z" fill="#fff"/>
    </g>
    <g transform="matrix(1.1 0 0 1.2216 3.3758 -366.13)">
        <g transform="translate(-95.796 274.67)">
            <path d="m629.04 933.68c0-10.856-4.789-21.266-13.313-28.942s-20.086-11.989-32.141-11.989h-118.61c-12.055 0-23.617 4.313-32.141 11.989s-13.313 18.086-13.313 28.942v95.186c0 10.85 4.789 21.26 13.313 28.94 8.524 7.67 20.086 11.99 32.141 11.99h118.61c12.055 0 23.617-4.32 32.141-11.99 8.524-7.68 13.313-18.09 13.313-28.94v-95.186z" fill="#fff"/>
        </g>
        <g transform="translate(-95.796 549.85)">
            <path d="m629.04 933.68c0-10.856-4.789-21.266-13.313-28.942s-20.086-11.989-32.141-11.989h-118.61c-12.055 0-23.617 4.313-32.141 11.989s-13.313 18.086-13.313 28.942v95.186c0 10.85 4.789 21.26 13.313 28.94 8.524 7.67 20.086 11.99 32.141 11.99h118.61c12.055 0 23.617-4.32 32.141-11.99 8.524-7.68 13.313-18.09 13.313-28.94v-95.186z" fill="#fff"/>
        </g>
        <g transform="translate(174.34 -2.6902)">
            <path d="m629.04 933.68c0-10.856-4.789-21.266-13.313-28.942s-20.086-11.989-32.141-11.989h-118.61c-12.055 0-23.617 4.313-32.141 11.989s-13.313 18.086-13.313 28.942v95.186c0 10.85 4.789 21.26 13.313 28.94 8.524 7.67 20.086 11.99 32.141 11.99h118.61c12.055 0 23.617-4.32 32.141-11.99 8.524-7.68 13.313-18.09 13.313-28.94v-95.186z" fill="#fff"/>
        </g>
        <g transform="translate(174.34 274.67)">
            <path d="m629.04 933.68c0-10.856-4.789-21.266-13.313-28.942s-20.086-11.989-32.141-11.989h-118.61c-12.055 0-23.617 4.313-32.141 11.989s-13.313 18.086-13.313 28.942v95.186c0 10.85 4.789 21.26 13.313 28.94 8.524 7.67 20.086 11.99 32.141 11.99h118.61c12.055 0 23.617-4.32 32.141-11.99 8.524-7.68 13.313-18.09 13.313-28.94v-95.186z" fill="#fff"/>
        </g>
        <g transform="translate(174.34 549.85)">
            <path d="m629.04 933.68c0-10.856-4.789-21.266-13.313-28.942s-20.086-11.989-32.141-11.989h-118.61c-12.055 0-23.617 4.313-32.141 11.989s-13.313 18.086-13.313 28.942v95.186c0 10.85 4.789 21.26 13.313 28.94 8.524 7.67 20.086 11.99 32.141 11.99h118.61c12.055 0 23.617-4.32 32.141-11.99 8.524-7.68 13.313-18.09 13.313-28.94v-95.186z" fill="#fff"/>
        </g>
        <g transform="translate(463.72 -2.6902)">
            <path d="m629.04 933.68c0-10.856-4.789-21.266-13.313-28.942s-20.086-11.989-32.141-11.989h-118.61c-12.055 0-23.617 4.313-32.141 11.989s-13.313 18.086-13.313 28.942v95.186c0 10.85 4.789 21.26 13.313 28.94 8.524 7.67 20.086 11.99 32.141 11.99h118.61c12.055 0 23.617-4.32 32.141-11.99 8.524-7.68 13.313-18.09 13.313-28.94v-95.186z" fill="#fff"/>
        </g>
        <g transform="translate(463.72 274.67)">
            <path d="m629.04 933.68c0-10.856-4.789-21.266-13.313-28.942s-20.086-11.989-32.141-11.989h-118.61c-12.055 0-23.617 4.313-32.141 11.989s-13.313 18.086-13.313 28.942v95.186c0 10.85 4.789 21.26 13.313 28.94 8.524 7.67 20.086 11.99 32.141 11.99h118.61c12.055 0 23.617-4.32 32.141-11.99 8.524-7.68 13.313-18.09 13.313-28.94v-95.186z" fill="#fff"/>
        </g>
        <g transform="translate(463.72 549.85)">
            <path d="m629.04 933.68c0-10.856-4.789-21.266-13.313-28.942s-20.086-11.989-32.141-11.989h-118.61c-12.055 0-23.617 4.313-32.141 11.989s-13.313 18.086-13.313 28.942v95.186c0 10.85 4.789 21.26 13.313 28.94 8.524 7.67 20.086 11.99 32.141 11.99h118.61c12.055 0 23.617-4.32 32.141-11.99 8.524-7.68 13.313-18.09 13.313-28.94v-95.186z" fill="#fff"/>
        </g>
        <g transform="translate(752.47 -2.6902)">
            <path d="m629.04 933.68c0-10.856-4.789-21.266-13.313-28.942s-20.086-11.989-32.141-11.989h-118.61c-12.055 0-23.617 4.313-32.141 11.989s-13.313 18.086-13.313 28.942v95.186c0 10.85 4.789 21.26 13.313 28.94 8.524 7.67 20.086 11.99 32.141 11.99h118.61c12.055 0 23.617-4.32 32.141-11.99 8.524-7.68 13.313-18.09 13.313-28.94v-95.186z" fill="#fff"/>
        </g>
        <g transform="translate(752.47 274.67)">
            <path d="m629.04 933.68c0-10.856-4.789-21.266-13.313-28.942s-20.086-11.989-32.141-11.989h-118.61c-12.055 0-23.617 4.313-32.141 11.989s-13.313 18.086-13.313 28.942v95.186c0 10.85 4.789 21.26 13.313 28.94 8.524 7.67 20.086 11.99 32.141 11.99h118.61c12.055 0 23.617-4.32 32.141-11.99 8.524-7.68 13.313-18.09 13.313-28.94v-95.186z" fill="#fff"/>
        </g>
        <g transform="translate(752.47 549.85)">
            <path d="m629.04 933.68c0-10.856-4.789-21.266-13.313-28.942s-20.086-11.989-32.141-11.989h-118.61c-12.055 0-23.617 4.313-32.141 11.989s-13.313 18.086-13.313 28.942v95.186c0 10.85 4.789 21.26 13.313 28.94 8.524 7.67 20.086 11.99 32.141 11.99h118.61c12.055 0 23.617-4.32 32.141-11.99 8.524-7.68 13.313-18.09 13.313-28.94v-95.186z" fill="#fff"/>
        </g>
        <g transform="translate(1041.1 -2.6902)">
            <path d="m629.04 933.68c0-10.856-4.789-21.266-13.313-28.942s-20.086-11.989-32.141-11.989h-118.61c-12.055 0-23.617 4.313-32.141 11.989s-13.313 18.086-13.313 28.942v95.186c0 10.85 4.789 21.26 13.313 28.94 8.524 7.67 20.086 11.99 32.141 11.99h118.61c12.055 0 23.617-4.32 32.141-11.99 8.524-7.68 13.313-18.09 13.313-28.94v-95.186z" fill="#fff"/>
        </g>
        <g transform="translate(1041.1 274.67)">
            <path d="m629.04 933.68c0-10.856-4.789-21.266-13.313-28.942s-20.086-11.989-32.141-11.989h-118.61c-12.055 0-23.617 4.313-32.141 11.989s-13.313 18.086-13.313 28.942v95.186c0 10.85 4.789 21.26 13.313 28.94 8.524 7.67 20.086 11.99 32.141 11.99h118.61c12.055 0 23.617-4.32 32.141-11.99 8.524-7.68 13.313-18.09 13.313-28.94v-95.186z" fill="#fff"/>
        </g>
    </g>
    <g transform="matrix(1.55 0 0 .67882 -182.08 -117.28)">
        <path d="m558.11 172.77 0.232 5e-3 0.232 8e-3 0.231 0.012 0.231 0.015 0.231 0.018 0.231 0.022 0.23 0.025 0.229 0.028 0.23 0.032 0.229 0.035 0.228 0.038 0.228 0.041 0.228 0.045 0.227 0.048 0.227 0.051 0.227 0.054 0.226 0.057 0.226 0.061 0.225 0.064 0.225 0.067 0.224 0.07 0.224 0.073 0.224 0.077 0.223 0.079 0.222 0.083 0.222 0.086 0.222 0.088 0.221 0.092 0.221 0.096 0.22 0.098 0.22 0.101 0.219 0.104 0.219 0.107 0.218 0.111 0.218 0.113 0.218 0.116 0.216 0.119 0.217 0.123 0.215 0.125 0.216 0.128 0.215 0.131 0.214 0.134 0.213 0.138 0.214 0.14 0.212 0.142 0.212 0.146 0.212 0.149 0.211 0.152 0.21 0.154 0.21 0.157 0.209 0.161 0.209 0.163 0.208 0.165 0.208 0.169 0.207 0.172 0.206 0.174 0.206 0.177 0.205 0.18 0.204 0.183 0.204 0.185 0.204 0.188 0.202 0.191 0.202 0.194 0.202 0.196 0.201 0.199 0.2 0.202 0.2 0.205 0.199 0.207 0.198 0.21 0.197 0.212 0.197 0.215 0.197 0.218 0.195 0.221 0.195 0.223 0.195 0.225 0.193 0.229 0.193 0.23 0.193 0.234 0.191 0.236 0.191 0.238 0.19 0.242 0.19 0.243 0.188 0.247 0.188 0.248 0.188 0.251 0.186 0.254 0.186 0.256 0.185 0.259 0.185 0.261 0.183 0.264 0.183 0.266 0.182 0.269 0.182 0.271 0.18 0.273 0.18 0.276 0.179 0.278 0.179 0.281 0.177 0.283 0.177 0.285 0.176 0.288 0.175 0.29 0.175 0.292 0.173 0.295 0.173 0.297 0.172 0.299 0.171 0.302 0.171 0.304 0.169 0.306 0.169 0.308 0.168 0.311 0.167 0.313 0.166 0.315 0.166 0.318 0.164 0.319 0.164 0.322 0.163 0.324 0.162 0.326 0.161 0.329 0.16 0.33 0.16 0.333 0.158 0.335 0.158 0.337 0.156 0.339 0.156 0.342 0.155 0.343 0.154 0.345 0.153 0.348 0.153 0.35 0.151 0.351 0.15 0.354 0.15 0.356 0.148 0.358 0.148 0.36 0.147 0.362 0.145 0.364 0.145 0.365 0.144 0.368 0.143 0.37 0.142 0.372 0.141 0.374 0.14 0.375 0.139 0.378 0.138 0.38 0.137 0.381 0.136 0.384 0.135 0.385 0.134 0.387 0.133 0.389 0.132 0.391 0.131 0.393 0.13 0.394 0.13 0.397 0.128 0.398 0.127 0.4 0.126 0.402 0.125 0.404 0.124 0.405 0.122 0.407 0.122 0.409 0.121 0.411 0.12 0.412 0.118 0.415 0.118 0.416 0.117 0.417 0.115 0.42 0.114 0.421 0.114 0.422 0.112 0.425 0.111 0.426 0.11 0.427 0.109 0.43 0.108 0.431 0.107 0.432 0.21 0.87 0.103 0.438 0.102 0.439 0.101 0.44 0.1 0.442 0.099 0.444 0.098 0.445 0.096 0.447 0.096 0.448 0.094 0.45 0.093 0.451 0.092 0.453 0.091 0.454 0.089 0.456 0.089 0.457 0.087 0.459 0.086 0.46 0.085 0.461 0.083 0.463 0.083 0.464 0.081 0.466 0.08 0.467 0.079 0.469 0.077 0.469 0.077 0.472 0.075 0.472 0.074 0.474 0.072 0.475 0.072 0.477 0.07 0.478 0.069 0.479 0.067 0.48 0.067 0.482 0.065 0.483 0.064 0.484 0.062 0.485 0.062 0.487 0.06 0.488 0.058 0.489 0.058 0.491 0.056 0.491 0.055 0.493 0.054 0.494 0.052 0.495 0.051 0.496 0.049 0.497 0.049 0.499 0.047 0.499 0.045 0.501 0.045 0.502 0.042 0.503 0.042 0.504 0.04 0.505 0.039 0.506 0.038 0.507 0.036 0.509 0.035 0.509 0.033 0.51 0.032 0.512 0.031 0.512 0.03 0.513 0.054 1.03 0.025 0.516 0.024 0.517 0.022 0.519 0.021 0.519 0.02 0.52 0.018 0.52 0.017 0.522 0.015 0.523 0.014 0.524 0.012 0.524 0.011 0.525 0.018 1.054 6e-3 0.527 5e-3 0.529 4e-3 0.53 2e-3 0.53 1e-3 0.531v440.34l-1e-3 0.531-2e-3 0.531-4e-3 0.529-5e-3 0.529-6e-3 0.528-9e-3 0.527-9e-3 0.526-0.011 0.525-0.012 0.525-0.014 0.523-0.015 0.523-0.017 0.522-0.018 0.521-0.02 0.52-0.021 0.519-0.022 0.518-0.024 0.517-0.025 0.516-0.027 0.516-0.027 0.514-0.03 0.513-0.031 0.513-0.032 0.511-0.033 0.51-0.035 0.51-0.036 0.508-0.038 0.507-0.039 0.506-0.04 0.505-0.042 0.504-0.042 0.503-0.045 0.502-0.045 0.501-0.047 0.499-0.049 0.499-0.049 0.497-0.051 0.496-0.052 0.496-0.054 0.493-0.055 0.493-0.056 0.492-0.058 0.49-0.058 0.489-0.06 0.488-0.062 0.487-0.062 0.485-0.064 0.484-0.065 0.483-0.067 0.482-0.067 0.48-0.069 0.48-0.07 0.477-0.072 0.477-0.072 0.475-0.074 0.474-0.075 0.473-0.077 0.471-0.077 0.47-0.079 0.468-0.08 0.467-0.081 0.466-0.083 0.464-0.083 0.463-0.085 0.461-0.086 0.46-0.087 0.459-0.089 0.457-0.089 0.456-0.091 0.454-0.092 0.453-0.093 0.451-0.094 0.45-0.096 0.448-0.096 0.447-0.098 0.445-0.099 0.444-0.1 0.442-0.101 0.44-0.102 0.439-0.103 0.438-0.105 0.436-0.105 0.434-0.107 0.432-0.108 0.431-0.109 0.43-0.11 0.427-0.111 0.426-0.112 0.425-0.114 0.423-0.114 0.421-0.115 0.419-0.117 0.418-0.118 0.416-0.118 0.414-0.12 0.412-0.121 0.411-0.122 0.409-0.122 0.407-0.124 0.406-0.125 0.403-0.126 0.402-0.127 0.4-0.128 0.399-0.13 0.396-0.13 0.395-0.131 0.392-0.132 0.391-0.133 0.389-0.134 0.387-0.135 0.386-0.136 0.383-0.137 0.382-0.138 0.379-0.139 0.378-0.14 0.376-0.141 0.373-0.142 0.372-0.143 0.37-0.144 0.368-0.145 0.366-0.145 0.364-0.147 0.361-0.148 0.36-0.148 0.358-0.15 0.356-0.15 0.354-0.151 0.352-0.153 0.349-0.153 0.348-0.154 0.345-0.155 0.344-0.156 0.341-0.156 0.339-0.158 0.337-0.158 0.335-0.16 0.333-0.16 0.33-0.161 0.329-0.162 0.326-0.163 0.324-0.164 0.322-0.164 0.32-0.166 0.317-0.166 0.315-0.167 0.313-0.168 0.311-0.169 0.308-0.169 0.307-0.171 0.304-0.171 0.301-0.172 0.3-0.173 0.297-0.173 0.294-0.175 0.293-0.175 0.29-0.176 0.287-0.177 0.286-0.177 0.283-0.179 0.28-0.179 0.278-0.18 0.276-0.18 0.274-0.182 0.271-0.182 0.268-0.183 0.266-0.183 0.264-0.185 0.261-0.185 0.259-0.186 0.256-0.186 0.254-0.188 0.251-0.188 0.249-0.188 0.246-0.19 0.244-0.19 0.241-0.191 0.238-0.191 0.236-0.193 0.234-0.193 0.231-0.193 0.228-0.195 0.226-0.195 0.223-0.195 0.22-0.197 0.218-0.197 0.215-0.197 0.213-0.198 0.209-0.199 0.208-0.2 0.204-0.2 0.202-0.201 0.199-0.202 0.196-0.202 0.194-0.202 0.191-0.204 0.188-0.204 0.186-0.204 0.182-0.205 0.18-0.206 0.177-0.206 0.175-0.207 0.171-0.208 0.169-0.208 0.166-0.209 0.163-0.209 0.16-0.21 0.157-0.21 0.155-0.211 0.151-0.212 0.149-0.212 0.146-0.212 0.143-0.214 0.14-0.213 0.137-0.214 0.134-0.215 0.131-0.216 0.128-0.215 0.126-0.217 0.122-0.216 0.119-0.218 0.116-0.218 0.114-0.218 0.11-0.219 0.107-0.219 0.104-0.22 0.102-0.22 0.098-0.221 0.095-0.221 0.092-0.222 0.089-0.222 0.085-0.222 0.083-0.223 0.08-0.224 0.076-0.224 0.073-0.224 0.07-0.225 0.067-0.225 0.064-0.226 0.061-0.226 0.057-0.227 0.055-0.227 0.051-0.227 0.047-0.228 0.045-0.228 0.041-0.228 0.038-0.229 0.035-0.23 0.032-0.229 0.028-0.23 0.025-0.231 0.022-0.231 0.018-0.231 0.015-0.231 0.012-0.232 8e-3 -0.232 5e-3 -0.233 2e-3h-71.976l-0.232-2e-3 -0.233-5e-3 -0.232-8e-3 -0.231-0.012-0.231-0.015-0.231-0.018-0.231-0.022-0.23-0.025-0.229-0.028-0.23-0.032-0.229-0.035-0.228-0.038-0.228-0.041-0.228-0.045-0.227-0.047-0.227-0.051-0.227-0.055-0.226-0.057-0.225-0.061-0.226-0.064-0.225-0.067-0.224-0.07-0.224-0.073-0.223-0.076-0.223-0.08-0.223-0.083-0.222-0.085-0.222-0.089-0.221-0.092-0.221-0.095-0.22-0.098-0.22-0.102-0.219-0.104-0.219-0.107-0.218-0.11-0.218-0.114-0.217-0.116-0.217-0.119-0.217-0.122-0.215-0.126-0.216-0.128-0.214-0.131-0.215-0.134-0.213-0.137-0.213-0.14-0.213-0.143-0.212-0.146-0.212-0.149-0.211-0.151-0.21-0.155-0.21-0.157-0.209-0.16-0.209-0.163-0.208-0.166-0.207-0.169-0.207-0.171-0.207-0.175-0.206-0.177-0.205-0.18-0.204-0.182-0.204-0.186-0.204-0.188-0.202-0.191-0.202-0.194-0.202-0.196-0.201-0.199-0.2-0.202-0.199-0.204-0.199-0.208-0.199-0.209-0.197-0.213-0.197-0.215-0.197-0.218-0.195-0.22-0.195-0.223-0.195-0.226-0.193-0.228-0.193-0.231-0.192-0.234-0.192-0.236-0.191-0.238-0.19-0.241-0.189-0.244-0.189-0.246-0.188-0.249-0.188-0.251-0.186-0.254-0.186-0.256-0.185-0.259-0.185-0.261-0.183-0.264-0.183-0.266-0.182-0.268-0.182-0.271-0.18-0.274-0.18-0.276-0.179-0.278-0.179-0.28-0.177-0.283-0.177-0.286-0.176-0.287-0.175-0.29-0.175-0.293-0.173-0.294-0.173-0.297-0.172-0.3-0.171-0.301-0.171-0.304-0.169-0.307-0.169-0.308-0.168-0.311-0.167-0.313-0.166-0.315-0.166-0.317-0.164-0.32-0.164-0.322-0.163-0.324-0.162-0.326-0.161-0.329-0.16-0.33-0.159-0.333-0.159-0.335-0.158-0.337-0.156-0.339-0.156-0.341-0.155-0.344-0.154-0.345-0.153-0.348-0.152-0.349-0.152-0.352-0.15-0.354-0.15-0.356-0.148-0.358-0.148-0.36-0.146-0.361-0.146-0.364-0.145-0.366-0.144-0.368-0.143-0.37-0.142-0.372-0.141-0.373-0.14-0.376-0.139-0.378-0.138-0.379-0.137-0.382-0.136-0.383-0.135-0.386-0.134-0.387-0.133-0.389-0.132-0.391-0.131-0.392-0.13-0.395-0.129-0.396-0.128-0.399-0.127-0.4-0.126-0.402-0.125-0.403-0.124-0.406-0.123-0.407-0.122-0.409-0.121-0.411-0.12-0.412-0.118-0.414-0.118-0.416-0.116-0.418-0.116-0.419-0.114-0.421-0.114-0.423-0.112-0.425-0.111-0.426-0.11-0.427-0.109-0.43-0.108-0.431-0.106-0.432-0.106-0.434-0.105-0.436-0.103-0.438-0.102-0.439-0.101-0.44-0.1-0.442-0.099-0.444-0.098-0.445-0.096-0.447-0.096-0.448-0.094-0.45-0.093-0.451-0.092-0.453-0.091-0.454-0.089-0.456-0.089-0.457-0.087-0.459-0.086-0.46-0.085-0.461-0.083-0.463-0.083-0.464-0.081-0.466-0.08-0.467-0.079-0.468-0.077-0.47-0.077-0.471-0.075-0.473-0.074-0.474-0.072-0.475-0.072-0.477-0.07-0.477-0.069-0.48-0.067-0.48-0.067-0.482-0.065-0.483-0.064-0.484-0.062-0.485-0.062-0.487-0.06-0.488-0.058-0.489-0.058-0.49-0.056-0.492-0.055-0.493-0.053-0.493-0.053-0.496-0.051-0.496-0.049-0.497-0.048-0.499-0.047-0.499-0.046-0.501-0.044-0.502-0.043-0.503-0.042-0.504-0.04-0.505-0.039-0.506-0.038-0.507-0.036-0.508-0.035-0.51-0.033-0.51-0.032-0.511-0.031-0.513-0.029-0.513-0.028-0.514-0.027-0.516-0.025-0.516-0.024-0.517-0.022-0.518-0.021-0.519-0.02-0.52-0.018-0.521-0.016-0.522-0.016-0.523-0.014-0.523-0.012-0.525-0.011-0.525-9e-3 -0.526-8e-3 -0.527-7e-3 -0.528-5e-3 -0.529-4e-3 -0.529-2e-3 -0.531-1e-3 -0.531v-440.34l1e-3 -0.531 2e-3 -0.53 4e-3 -0.53 5e-3 -0.529 7e-3 -0.527 8e-3 -0.527 9e-3 -0.527 0.011-0.525 0.012-0.524 0.014-0.524 0.016-0.523 0.016-0.522 0.018-0.52 0.02-0.52 0.021-0.519 0.022-0.519 0.024-0.517 0.025-0.516 0.027-0.515 0.028-0.515 0.029-0.513 0.031-0.512 0.032-0.512 0.033-0.51 0.035-0.509 0.036-0.509 0.038-0.507 0.039-0.506 0.04-0.505 0.042-0.504 0.043-0.503 0.044-0.502 0.046-0.501 0.047-0.499 0.048-0.499 0.049-0.497 0.051-0.496 0.053-0.495 0.053-0.494 0.055-0.493 0.056-0.491 0.058-0.491 0.058-0.489 0.06-0.488 0.062-0.487 0.062-0.485 0.064-0.484 0.065-0.483 0.067-0.482 0.067-0.48 0.069-0.479 0.07-0.478 0.072-0.477 0.072-0.475 0.074-0.474 0.075-0.472 0.077-0.472 0.077-0.469 0.079-0.469 0.08-0.467 0.081-0.466 0.083-0.464 0.083-0.463 0.085-0.461 0.086-0.46 0.087-0.459 0.089-0.457 0.089-0.456 0.091-0.454 0.092-0.453 0.093-0.451 0.094-0.45 0.096-0.448 0.096-0.447 0.098-0.445 0.099-0.444 0.1-0.442 0.101-0.44 0.102-0.439 0.103-0.438 0.105-0.435 0.106-0.435 0.106-0.432 0.108-0.431 0.109-0.43 0.11-0.427 0.111-0.426 0.112-0.425 0.114-0.422 0.114-0.421 0.116-0.42 0.116-0.417 0.118-0.416 0.118-0.415 0.12-0.412 0.121-0.411 0.122-0.409 0.123-0.407 0.124-0.405 0.125-0.404 0.126-0.402 0.127-0.4 0.128-0.398 0.129-0.397 0.13-0.394 0.131-0.393 0.132-0.391 0.133-0.389 0.134-0.387 0.135-0.385 0.136-0.384 0.137-0.381 0.138-0.38 0.139-0.378 0.14-0.375 0.141-0.374 0.142-0.372 0.143-0.37 0.144-0.368 0.145-0.365 0.146-0.364 0.146-0.362 0.148-0.36 0.148-0.358 0.15-0.356 0.15-0.354 0.152-0.351 0.152-0.35 0.153-0.348 0.154-0.345 0.155-0.343 0.156-0.342 0.156-0.339 0.158-0.337 0.159-0.335 0.159-0.333 0.16-0.33 0.161-0.329 0.162-0.326 0.163-0.324 0.164-0.322 0.164-0.319 0.166-0.318 0.166-0.315 0.167-0.313 0.168-0.311 0.169-0.308 0.169-0.306 0.171-0.304 0.171-0.302 0.172-0.299 0.173-0.297 0.173-0.295 0.175-0.292 0.175-0.29 0.176-0.288 0.177-0.285 0.177-0.283 0.179-0.281 0.179-0.278 0.18-0.276 0.18-0.273 0.182-0.271 0.182-0.269 0.183-0.266 0.183-0.264 0.185-0.261 0.185-0.259 0.186-0.256 0.186-0.254 0.188-0.251 0.188-0.248 0.189-0.247 0.189-0.243 0.19-0.242 0.191-0.238 0.192-0.236 0.192-0.234 0.193-0.23 0.193-0.229 0.195-0.225 0.195-0.223 0.195-0.221 0.197-0.218 0.197-0.215 0.197-0.212 0.199-0.21 0.199-0.207 0.199-0.205 0.2-0.202 0.201-0.199 0.202-0.196 0.202-0.194 0.202-0.191 0.204-0.188 0.204-0.185 0.204-0.183 0.205-0.18 0.206-0.177 0.207-0.174 0.207-0.172 0.207-0.169 0.208-0.165 0.209-0.163 0.209-0.161 0.21-0.157 0.21-0.154 0.211-0.152 0.212-0.149 0.212-0.146 0.213-0.142 0.213-0.14 0.213-0.138 0.215-0.134 0.214-0.131 0.216-0.128 0.215-0.125 0.217-0.123 0.217-0.119 0.217-0.116 0.218-0.113 0.218-0.111 0.219-0.107 0.219-0.104 0.22-0.101 0.22-0.098 0.221-0.096 0.221-0.092 0.222-0.088 0.222-0.086 0.223-0.083 0.223-0.079 0.223-0.077 0.224-0.073 0.224-0.07 0.225-0.067 0.226-0.064 0.225-0.061 0.226-0.057 0.227-0.054 0.227-0.051 0.227-0.048 0.228-0.045 0.228-0.041 0.228-0.038 0.229-0.035 0.23-0.032 0.229-0.028 0.23-0.025 0.231-0.022 0.231-0.018 0.231-0.015 0.231-0.012 0.232-8e-3 0.233-5e-3 0.232-2e-3h71.976l0.233 2e-3z" fill="#fff"/>
    </g>
    <g transform="matrix(1.55 0 0 .74562 764.25 -128.82)">
        <path d="m558.11 172.77 0.232 4e-3 0.232 8e-3 0.231 0.011 0.231 0.013 0.231 0.017 0.231 0.02 0.23 0.023 0.229 0.025 0.23 0.029 0.229 0.032 0.228 0.034 0.228 0.038 0.228 0.041 0.227 0.043 0.227 0.047 0.227 0.049 0.226 0.052 0.226 0.056 0.225 0.058 0.225 0.061 0.224 0.063 0.224 0.067 0.224 0.07 0.223 0.072 0.222 0.075 0.222 0.079 0.222 0.08 0.221 0.084 0.221 0.087 0.22 0.089 0.22 0.092 0.219 0.095 0.219 0.098 0.218 0.1 0.218 0.103 0.218 0.106 0.216 0.109 0.217 0.111 0.215 0.114 0.216 0.117 0.215 0.119 0.214 0.122 0.213 0.125 0.214 0.128 0.212 0.13 0.212 0.132 0.212 0.136 0.211 0.138 0.21 0.14 0.21 0.144 0.209 0.146 0.209 0.148 0.208 0.151 0.208 0.154 0.207 0.156 0.206 0.158 0.206 0.162 0.205 0.163 0.204 0.167 0.204 0.169 0.204 0.171 0.202 0.174 0.202 0.176 0.202 0.179 0.201 0.181 0.2 0.184 0.2 0.186 0.199 0.189 0.198 0.191 0.197 0.193 0.197 0.196 0.197 0.198 0.195 0.201 0.195 0.203 0.195 0.205 0.193 0.208 0.193 0.21 0.193 0.213 0.191 0.215 0.191 0.217 0.19 0.22 0.19 0.221 0.188 0.225 0.188 0.226 0.188 0.229 0.186 0.231 0.186 0.233 0.185 0.236 0.185 0.237 0.183 0.24 0.183 0.243 0.182 0.244 0.182 0.247 0.18 0.249 0.18 0.251 0.179 0.253 0.179 0.256 0.177 0.257 0.177 0.26 0.176 0.262 0.175 0.264 0.175 0.266 0.173 0.268 0.173 0.271 0.172 0.272 0.171 0.275 0.171 0.277 0.169 0.278 0.169 0.281 0.168 0.283 0.167 0.285 0.166 0.287 0.166 0.289 0.164 0.291 0.164 0.293 0.163 0.295 0.162 0.297 0.161 0.299 0.16 0.301 0.16 0.303 0.158 0.305 0.158 0.307 0.156 0.309 0.156 0.31 0.155 0.313 0.154 0.315 0.153 0.316 0.153 0.318 0.151 0.32 0.15 0.323 0.15 0.324 0.148 0.325 0.148 0.328 0.147 0.329 0.145 0.332 0.145 0.333 0.144 0.335 0.143 0.336 0.142 0.339 0.141 0.34 0.14 0.342 0.139 0.344 0.138 0.346 0.137 0.347 0.136 0.349 0.135 0.351 0.134 0.352 0.133 0.354 0.132 0.356 0.131 0.358 0.13 0.359 0.13 0.361 0.128 0.363 0.127 0.364 0.126 0.366 0.125 0.367 0.124 0.369 0.122 0.371 0.122 0.373 0.121 0.373 0.12 0.376 0.118 0.377 0.118 0.379 0.117 0.38 0.115 0.382 0.114 0.383 0.114 0.385 0.112 0.386 0.111 0.388 0.11 0.39 0.109 0.39 0.108 0.393 0.107 0.394 0.105 0.395 0.105 0.397 0.103 0.398 0.102 0.4 0.101 0.401 0.1 0.402 0.099 0.404 0.098 0.405 0.096 0.407 0.096 0.408 0.094 0.41 0.093 0.411 0.092 0.412 0.091 0.413 0.089 0.415 0.089 0.416 0.087 0.418 0.086 0.419 0.085 0.42 0.083 0.421 0.083 0.423 0.081 0.424 0.08 0.425 0.079 0.427 0.077 0.427 0.077 0.429 0.075 0.431 0.074 0.431 0.144 0.866 0.07 0.435 0.069 0.437 0.067 0.437 0.067 0.439 0.065 0.439 0.064 0.441 0.062 0.442 0.062 0.443 0.06 0.444 0.116 0.892 0.056 0.448 0.055 0.448 0.054 0.45 0.052 0.45 0.051 0.452 0.049 0.453 0.049 0.454 0.047 0.455 0.045 0.456 0.045 0.457 0.042 0.457 0.042 0.459 0.04 0.46 0.039 0.461 0.038 0.462 0.036 0.462 0.035 0.464 0.033 0.465 0.032 0.465 0.031 0.467 0.03 0.467 0.027 0.468 0.027 0.469 0.025 0.47 0.024 0.471 0.022 0.472 0.021 0.473 0.02 0.473 0.018 0.474 0.017 0.475 0.015 0.476 0.014 0.477 0.012 0.477 0.011 0.479 0.018 0.958 6e-3 0.481 5e-3 0.481 4e-3 0.482 2e-3 0.483 1e-3 0.484v455.07l-1e-3 0.483-2e-3 0.483-4e-3 0.482-5e-3 0.481-6e-3 0.481-9e-3 0.48-9e-3 0.479-0.011 0.478-0.012 0.477-0.014 0.477-0.015 0.476-0.017 0.475-0.018 0.474-0.02 0.474-0.021 0.472-0.022 0.472-0.024 0.471-0.025 0.47-0.027 0.469-0.027 0.468-0.03 0.468-0.031 0.466-0.032 0.466-0.033 0.464-0.035 0.464-0.036 0.462-0.038 0.462-0.039 0.461-0.04 0.46-0.042 0.459-0.042 0.458-0.045 0.457-0.045 0.455-0.047 0.455-0.049 0.454-0.049 0.453-0.051 0.452-0.052 0.45-0.054 0.45-0.055 0.449-0.056 0.447-0.058 0.447-0.058 0.445-0.06 0.444-0.062 0.443-0.062 0.442-0.064 0.441-0.065 0.44-0.134 0.876-0.069 0.436-0.07 0.435-0.072 0.434-0.072 0.432-0.074 0.432-0.075 0.43-0.077 0.429-0.077 0.428-0.079 0.426-0.08 0.425-0.081 0.424-0.083 0.423-0.083 0.421-0.085 0.421-0.086 0.418-0.087 0.418-0.089 0.416-0.089 0.415-0.091 0.414-0.092 0.412-0.093 0.411-0.094 0.409-0.096 0.408-0.096 0.407-0.098 0.405-0.099 0.404-0.1 0.403-0.101 0.401-0.102 0.399-0.103 0.398-0.105 0.397-0.105 0.396-0.107 0.393-0.108 0.393-0.109 0.391-0.11 0.389-0.111 0.388-0.112 0.386-0.114 0.385-0.114 0.383-0.115 0.382-0.117 0.38-0.118 0.379-0.118 0.377-0.12 0.376-0.121 0.374-0.122 0.372-0.122 0.371-0.124 0.369-0.125 0.367-0.126 0.366-0.127 0.365-0.128 0.362-0.13 0.361-0.13 0.359-0.131 0.358-0.132 0.356-0.133 0.354-0.134 0.352-0.135 0.351-0.136 0.349-0.137 0.348-0.138 0.345-0.139 0.344-0.14 0.342-0.141 0.34-0.142 0.339-0.143 0.336-0.144 0.335-0.145 0.334-0.145 0.331-0.147 0.329-0.148 0.328-0.148 0.326-0.15 0.324-0.15 0.322-0.151 0.32-0.153 0.318-0.153 0.317-0.154 0.314-0.155 0.313-0.156 0.311-0.156 0.308-0.158 0.307-0.158 0.305-0.16 0.303-0.16 0.301-0.161 0.299-0.162 0.297-0.163 0.295-0.164 0.293-0.164 0.291-0.166 0.289-0.166 0.287-0.167 0.285-0.168 0.283-0.169 0.281-0.169 0.279-0.171 0.276-0.171 0.275-0.172 0.272-0.173 0.271-0.173 0.268-0.175 0.266-0.175 0.264-0.176 0.262-0.177 0.26-0.177 0.258-0.179 0.255-0.179 0.253-0.18 0.251-0.18 0.249-0.182 0.247-0.182 0.245-0.183 0.242-0.183 0.24-0.185 0.238-0.185 0.235-0.186 0.233-0.186 0.231-0.188 0.229-0.188 0.227-0.188 0.224-0.19 0.222-0.19 0.219-0.191 0.217-0.191 0.215-0.193 0.213-0.193 0.21-0.193 0.208-0.195 0.205-0.195 0.203-0.195 0.201-0.197 0.198-0.197 0.196-0.197 0.194-0.198 0.191-0.199 0.188-0.2 0.186-0.2 0.184-0.201 0.181-0.202 0.179-0.202 0.177-0.202 0.173-0.204 0.172-0.204 0.169-0.204 0.166-0.205 0.164-0.206 0.161-0.206 0.159-0.207 0.156-0.208 0.153-0.208 0.151-0.209 0.149-0.209 0.146-0.21 0.143-0.21 0.14-0.211 0.138-0.212 0.136-0.212 0.133-0.212 0.13-0.214 0.127-0.213 0.125-0.214 0.122-0.215 0.119-0.216 0.117-0.215 0.114-0.217 0.112-0.216 0.108-0.218 0.106-0.218 0.103-0.218 0.101-0.219 0.097-0.219 0.095-0.22 0.092-0.22 0.09-0.221 0.086-0.221 0.084-0.222 0.081-0.222 0.078-0.222 0.075-0.223 0.072-0.224 0.07-0.224 0.067-0.224 0.064-0.225 0.061-0.225 0.058-0.226 0.055-0.226 0.052-0.227 0.05-0.227 0.046-0.227 0.044-0.228 0.04-0.228 0.038-0.228 0.034-0.229 0.032-0.23 0.029-0.229 0.026-0.23 0.022-0.231 0.02-0.231 0.017-0.231 0.014-0.231 0.01-0.232 8e-3 -0.232 5e-3 -0.233 1e-3h-71.976l-0.232-1e-3 -0.233-5e-3 -0.232-8e-3 -0.231-0.01-0.231-0.014-0.231-0.017-0.231-0.02-0.23-0.022-0.229-0.026-0.23-0.029-0.229-0.032-0.228-0.034-0.228-0.038-0.228-0.04-0.227-0.044-0.227-0.046-0.227-0.05-0.226-0.052-0.225-0.055-0.226-0.058-0.225-0.061-0.224-0.064-0.224-0.067-0.223-0.07-0.223-0.072-0.223-0.075-0.222-0.078-0.222-0.081-0.221-0.084-0.221-0.086-0.22-0.09-0.22-0.092-0.219-0.095-0.219-0.097-0.218-0.101-0.218-0.103-0.217-0.106-0.217-0.108-0.217-0.112-0.215-0.114-0.216-0.117-0.214-0.119-0.215-0.122-0.213-0.125-0.213-0.127-0.213-0.13-0.212-0.133-0.212-0.136-0.211-0.138-0.21-0.14-0.21-0.143-0.209-0.146-0.209-0.149-0.208-0.151-0.207-0.153-0.207-0.156-0.207-0.159-0.206-0.161-0.205-0.164-0.204-0.166-0.204-0.169-0.204-0.172-0.202-0.173-0.202-0.177-0.202-0.179-0.201-0.181-0.2-0.184-0.199-0.186-0.199-0.188-0.199-0.191-0.197-0.194-0.197-0.196-0.197-0.198-0.195-0.201-0.195-0.203-0.195-0.205-0.193-0.208-0.193-0.21-0.192-0.213-0.192-0.215-0.191-0.217-0.19-0.219-0.189-0.222-0.189-0.224-0.188-0.227-0.188-0.229-0.186-0.231-0.186-0.233-0.185-0.235-0.185-0.238-0.183-0.24-0.183-0.242-0.182-0.245-0.182-0.247-0.18-0.249-0.18-0.251-0.179-0.253-0.179-0.255-0.177-0.258-0.177-0.26-0.176-0.262-0.175-0.264-0.175-0.266-0.173-0.268-0.173-0.271-0.172-0.272-0.171-0.275-0.171-0.276-0.169-0.279-0.169-0.281-0.168-0.283-0.167-0.285-0.166-0.287-0.166-0.289-0.164-0.291-0.164-0.293-0.163-0.295-0.162-0.297-0.161-0.299-0.16-0.301-0.159-0.303-0.159-0.305-0.158-0.307-0.156-0.308-0.156-0.311-0.155-0.313-0.154-0.314-0.153-0.317-0.152-0.318-0.152-0.32-0.15-0.322-0.15-0.324-0.148-0.326-0.148-0.328-0.146-0.329-0.146-0.331-0.145-0.334-0.144-0.335-0.143-0.336-0.142-0.339-0.141-0.34-0.14-0.342-0.139-0.344-0.138-0.345-0.137-0.348-0.136-0.349-0.135-0.351-0.134-0.352-0.133-0.354-0.132-0.356-0.131-0.358-0.13-0.359-0.129-0.361-0.128-0.362-0.127-0.365-0.126-0.366-0.125-0.367-0.124-0.369-0.123-0.371-0.122-0.372-0.121-0.374-0.12-0.376-0.118-0.377-0.118-0.379-0.116-0.38-0.116-0.382-0.114-0.383-0.114-0.385-0.112-0.386-0.111-0.388-0.11-0.389-0.109-0.391-0.108-0.393-0.106-0.393-0.106-0.396-0.105-0.397-0.103-0.398-0.102-0.399-0.101-0.401-0.1-0.403-0.099-0.404-0.098-0.405-0.096-0.407-0.096-0.408-0.094-0.409-0.093-0.411-0.092-0.412-0.091-0.414-0.089-0.415-0.089-0.416-0.087-0.418-0.086-0.418-0.085-0.421-0.083-0.421-0.083-0.423-0.081-0.424-0.08-0.425-0.079-0.426-0.077-0.428-0.077-0.429-0.075-0.43-0.074-0.432-0.072-0.432-0.072-0.434-0.07-0.435-0.069-0.436-0.134-0.876-0.065-0.44-0.064-0.441-0.062-0.442-0.062-0.443-0.06-0.444-0.058-0.445-0.058-0.447-0.056-0.447-0.055-0.449-0.106-0.9-0.051-0.452-0.049-0.453-0.048-0.454-0.047-0.455-0.046-0.455-0.044-0.457-0.043-0.458-0.042-0.459-0.04-0.46-0.039-0.461-0.038-0.462-0.036-0.462-0.035-0.464-0.033-0.464-0.032-0.466-0.031-0.466-0.029-0.468-0.028-0.468-0.027-0.469-0.025-0.47-0.024-0.471-0.022-0.472-0.021-0.472-0.02-0.474-0.018-0.474-0.016-0.475-0.016-0.476-0.014-0.477-0.012-0.477-0.011-0.478-9e-3 -0.479-8e-3 -0.48-7e-3 -0.481-5e-3 -0.481-4e-3 -0.482-2e-3 -0.483-1e-3 -0.483v-455.07l1e-3 -0.484 2e-3 -0.483 4e-3 -0.482 5e-3 -0.481 7e-3 -0.481 8e-3 -0.479 9e-3 -0.479 0.011-0.479 0.012-0.477 0.014-0.477 0.016-0.476 0.016-0.475 0.018-0.474 0.02-0.473 0.021-0.473 0.022-0.472 0.024-0.471 0.025-0.47 0.027-0.469 0.028-0.468 0.029-0.467 0.031-0.467 0.032-0.465 0.033-0.465 0.035-0.464 0.036-0.462 0.038-0.462 0.039-0.461 0.04-0.46 0.042-0.459 0.043-0.457 0.044-0.457 0.046-0.456 0.047-0.455 0.048-0.454 0.049-0.453 0.051-0.452 0.106-0.9 0.055-0.448 0.056-0.448 0.116-0.892 0.06-0.444 0.062-0.443 0.062-0.442 0.064-0.441 0.065-0.439 0.067-0.439 0.067-0.437 0.069-0.437 0.07-0.435 0.144-0.866 0.074-0.431 0.075-0.431 0.077-0.429 0.077-0.427 0.079-0.427 0.08-0.425 0.081-0.424 0.083-0.423 0.083-0.421 0.085-0.42 0.086-0.419 0.087-0.418 0.089-0.416 0.089-0.415 0.091-0.413 0.092-0.412 0.093-0.411 0.094-0.41 0.096-0.408 0.096-0.407 0.098-0.405 0.099-0.404 0.1-0.402 0.101-0.401 0.102-0.4 0.103-0.398 0.105-0.397 0.106-0.395 0.106-0.394 0.108-0.393 0.109-0.39 0.11-0.39 0.111-0.388 0.112-0.386 0.114-0.385 0.114-0.383 0.116-0.382 0.116-0.38 0.118-0.379 0.118-0.377 0.12-0.376 0.121-0.373 0.122-0.373 0.123-0.371 0.124-0.369 0.125-0.367 0.126-0.366 0.127-0.364 0.128-0.363 0.129-0.361 0.13-0.359 0.131-0.358 0.132-0.356 0.133-0.354 0.134-0.352 0.135-0.351 0.136-0.349 0.137-0.347 0.138-0.346 0.139-0.344 0.14-0.342 0.141-0.34 0.142-0.339 0.143-0.336 0.144-0.335 0.145-0.333 0.146-0.332 0.146-0.329 0.148-0.328 0.148-0.325 0.15-0.324 0.15-0.323 0.152-0.32 0.152-0.318 0.153-0.316 0.154-0.315 0.155-0.313 0.156-0.31 0.156-0.309 0.158-0.307 0.159-0.305 0.159-0.303 0.16-0.301 0.161-0.299 0.162-0.297 0.163-0.295 0.164-0.293 0.164-0.291 0.166-0.289 0.166-0.287 0.167-0.285 0.168-0.283 0.169-0.281 0.169-0.278 0.171-0.277 0.171-0.275 0.172-0.272 0.173-0.271 0.173-0.268 0.175-0.266 0.175-0.264 0.176-0.262 0.177-0.26 0.177-0.257 0.179-0.256 0.179-0.253 0.18-0.251 0.18-0.249 0.182-0.247 0.182-0.244 0.183-0.243 0.183-0.24 0.185-0.237 0.185-0.236 0.186-0.233 0.186-0.231 0.188-0.229 0.188-0.226 0.189-0.225 0.189-0.221 0.19-0.22 0.191-0.217 0.192-0.215 0.192-0.213 0.193-0.21 0.193-0.208 0.195-0.205 0.195-0.203 0.195-0.201 0.197-0.198 0.197-0.196 0.197-0.193 0.199-0.191 0.199-0.189 0.199-0.186 0.2-0.184 0.201-0.181 0.202-0.179 0.202-0.176 0.202-0.174 0.204-0.171 0.204-0.169 0.204-0.167 0.205-0.163 0.206-0.162 0.207-0.158 0.207-0.156 0.207-0.154 0.208-0.151 0.209-0.148 0.209-0.146 0.21-0.144 0.21-0.14 0.211-0.138 0.212-0.136 0.212-0.132 0.213-0.13 0.213-0.128 0.213-0.125 0.215-0.122 0.214-0.119 0.216-0.117 0.215-0.114 0.217-0.111 0.217-0.109 0.217-0.106 0.218-0.103 0.218-0.1 0.219-0.098 0.219-0.095 0.22-0.092 0.22-0.089 0.221-0.087 0.221-0.084 0.222-0.08 0.222-0.079 0.223-0.075 0.223-0.072 0.223-0.07 0.224-0.067 0.224-0.063 0.225-0.061 0.226-0.058 0.225-0.056 0.226-0.052 0.227-0.049 0.227-0.047 0.227-0.043 0.228-0.041 0.228-0.038 0.228-0.034 0.229-0.032 0.23-0.029 0.229-0.025 0.23-0.023 0.231-0.02 0.231-0.017 0.231-0.013 0.231-0.011 0.232-8e-3 0.233-4e-3 0.232-2e-3h71.976l0.233 2e-3z" fill="#fff"/>
    </g>
</svg>
