<?xml version="1.0" encoding="utf-8"?>
<!-- Svg Vector Icons : http://www.onlinewebfonts.com/icon -->
<!DOCTYPE svg PUBLIC "-//W3C//DTD SVG 1.1//EN" "http://www.w3.org/Graphics/SVG/1.1/DTD/svg11.dtd">
<svg version="1.1" xmlns="http://www.w3.org/2000/svg" xmlns:xlink="http://www.w3.org/1999/xlink" x="0px" y="0px" viewBox="0 0 1000 1000" enable-background="new 0 0 1000 1000" xml:space="preserve">
<metadata> Svg Vector Icons : http://www.onlinewebfonts.com/icon </metadata>
<g><path d="M496.9,13.1c135.6,0,258.9,55.5,345.2,141.8C934.5,241.1,990,364.4,990,500c0,135.6-55.5,258.9-141.8,345.2C762,931.4,638.7,986.9,503.1,986.9c-135.6,0-258.9-55.5-345.2-141.8C65.5,758.9,10,635.6,10,500c0-135.6,55.5-258.9,141.8-345.2C244.2,68.6,361.3,13.1,496.9,13.1L496.9,13.1z M459.9,167.2c0-24.7,18.5-37,37-37c18.5,0,37,18.5,37,37V463h246.5c18.5,0,37,18.5,37,37c0,18.5-18.5,37-37,37H496.9l0,0c-18.5,0-37-18.5-37-37V167.2L459.9,167.2z M792.8,210.3C718.8,136.4,614,87,503.1,87C386,87,287.4,136.4,213.4,210.3c-74,74-123.3,178.7-123.3,289.7c0,110.9,49.3,215.7,123.3,289.7c74,74,178.7,123.3,289.7,123.3c110.9,0,215.7-49.3,289.7-123.3c74-74,123.3-178.7,123.3-289.7C909.9,389.1,866.7,284.3,792.8,210.3L792.8,210.3z"/></g>
</svg>