<?xml version="1.0" encoding="UTF-8" standalone="no"?><!DOCTYPE svg PUBLIC "-//W3C//DTD SVG 1.1//EN" "http://www.w3.org/Graphics/SVG/1.1/DTD/svg11.dtd"><svg width="100%" height="100%" viewBox="0 0 1041 1192" version="1.1" xmlns="http://www.w3.org/2000/svg" xmlns:xlink="http://www.w3.org/1999/xlink" xml:space="preserve" xmlns:serif="http://www.serif.com/" style="fill-rule:evenodd;clip-rule:evenodd;stroke-linecap:round;stroke-linejoin:round;stroke-miterlimit:1.5;"><path d="M41.667,717.251c0,248.706 210.217,432.842 478.47,432.842c268.253,0 478.474,-184.136 478.474,-432.842" style="fill:none;stroke:#000;stroke-width:83.33px;"/><ellipse cx="520.136" cy="717.259" rx="478.47" ry="82.381" style="fill:none;stroke:#000;stroke-width:83.34px;"/><path d="M520.137,41.667c3.904,89.634 -224.772,156.573 -45.527,320.899c63.63,58.334 63.492,151.996 45.527,176.969" style="fill:none;stroke:#000;stroke-width:83.33px;"/><path d="M291.579,261.643c2.179,50.031 -125.46,87.393 -25.412,179.114c35.516,32.56 35.439,84.839 25.412,98.778" style="fill:none;stroke:#000;stroke-width:83.33px;"/><path d="M734.393,160.93c2.969,68.163 -170.928,119.066 -34.621,244.029c48.387,44.36 48.283,115.585 34.621,134.576" style="fill:none;stroke:#000;stroke-width:83.33px;"/><path d="M520.137,41.667c3.904,89.634 -224.772,156.573 -45.527,320.899c63.63,58.334 63.492,151.996 45.527,176.969" style="fill:none;stroke:#000;stroke-width:83.33px;"/></svg>