<?xml version="1.0" encoding="UTF-8" standalone="no"?><!DOCTYPE svg PUBLIC "-//W3C//DTD SVG 1.1//EN" "http://www.w3.org/Graphics/SVG/1.1/DTD/svg11.dtd"><svg width="100%" height="100%" viewBox="0 0 512 512" version="1.1" xmlns="http://www.w3.org/2000/svg" xmlns:xlink="http://www.w3.org/1999/xlink" xml:space="preserve" xmlns:serif="http://www.serif.com/" style="fill-rule:evenodd;clip-rule:evenodd;stroke-linejoin:round;stroke-miterlimit:2;"><path d="M256,0c-141.386,0 -256,114.615 -256,256c0,141.385 114.614,256 256,256c141.385,0 256,-114.615 256,-256c0,-141.385 -114.615,-256 -256,-256Zm-26.522,473.845c-48.571,-5.817 -93.511,-27.559 -128.639,-62.686c-41.445,-41.445 -64.268,-96.547 -64.268,-155.159c0,-52.763 18.506,-102.676 52.432,-142.35c0.874,10.483 3.031,21.721 2.479,29.754c-2.019,29.286 -4.908,47.615 12.234,72.323c6.678,9.623 8.318,23.419 11.569,34.557c3.179,10.898 15.879,16.613 24.639,23.327c17.672,13.55 34.579,29.299 53.319,41.223c12.368,7.871 20.094,11.786 16.471,26.879c-2.913,12.138 -3.726,19.615 -10.006,30.429c-1.916,3.299 7.234,24.514 10.278,27.559c9.229,9.227 18.386,17.692 28.445,26c15.595,12.885 -1.515,29.627 -8.953,48.144Zm181.681,-62.686c-31.548,31.549 -71.014,52.291 -113.915,60.408c6.08,-15.035 16.906,-28.394 26.948,-36.138c8.735,-6.74 19.675,-19.703 24.238,-29.972c4.558,-10.255 10.598,-19.144 16.71,-28.575c8.695,-13.414 -21.439,-33.644 -31.204,-37.884c-21.974,-9.54 -38.516,-22.412 -58.044,-36.154c-13.914,-9.789 -42.163,5.113 -57.871,-1.744c-21.515,-9.394 -39.241,-25.718 -57.942,-39.802c-19.299,-14.534 -18.366,-31.478 -18.366,-52.919c15.117,0.558 36.621,-4.183 46.656,7.973c3.167,3.836 14.056,20.975 21.344,14.885c5.955,-4.976 -4.412,-24.922 -6.415,-29.611c-6.16,-14.419 14.036,-20.042 24.373,-29.819c13.49,-12.756 42.425,-32.761 40.138,-41.904c-2.287,-9.144 -28.952,-35.049 -44.614,-31.007c-2.347,0.606 -23.012,22.273 -27.004,25.673c0.106,-7.072 0.211,-14.143 0.32,-21.215c0.067,-4.465 -8.33,-9.049 -7.94,-11.929c0.985,-7.279 21.246,-20.488 26.286,-26.285c-3.531,-2.207 -15.581,-12.557 -19.227,-11.038c-8.83,3.68 -18.802,6.216 -27.631,9.894c0,-3.062 -0.372,-5.938 -0.815,-8.779c17.781,-7.866 36.537,-13.31 55.766,-16.187l17.334,6.966l12.239,14.525l12.214,12.594l10.677,3.44l16.959,-15.994l-4.373,-11.418l0,-10.263c33.538,4.871 65.211,17.383 92.95,36.677c-4.962,0.444 -10.416,1.174 -16.568,1.957c-2.542,-1.502 -5.802,-2.184 -8.573,-3.228c8.038,17.282 16.422,34.326 24.941,51.379c9.099,18.217 29.283,37.757 32.828,56.986c4.177,22.666 1.279,43.254 3.564,69.921c2.201,25.68 28.953,54.858 28.953,54.858c0,0 12.353,4.208 22.626,2.742c-9.576,37.887 -29.21,72.633 -57.562,100.987Z" style="fill:#fff;fill-rule:nonzero;"/></svg>