<?xml version="1.0" encoding="UTF-8" standalone="no"?>
<!DOCTYPE svg PUBLIC "-//W3C//DTD SVG 1.1//EN" "http://www.w3.org/Graphics/SVG/1.1/DTD/svg11.dtd">
<svg width="100%" height="100%" viewBox="0 0 1345 1687" version="1.1" xmlns="http://www.w3.org/2000/svg" xmlns:xlink="http://www.w3.org/1999/xlink" xml:space="preserve" xmlns:serif="http://www.serif.com/" style="fill-rule:evenodd;clip-rule:evenodd;stroke-linejoin:round;stroke-miterlimit:2;">
    <g transform="matrix(1,0,0,1,-1247.87,-407.869)">
        <path d="M1920,407.869C2290.96,407.869 2592.13,709.041 2592.13,1080C2592.13,1450.96 1920,2094.8 1920,2094.8C1920,2094.8 1247.87,1450.96 1247.87,1080C1247.87,709.041 1549.04,407.869 1920,407.869ZM1920,736.269C2109.71,736.269 2263.73,890.29 2263.73,1080C2263.73,1269.71 2109.71,1423.73 1920,1423.73C1730.29,1423.73 1576.27,1269.71 1576.27,1080C1576.27,890.29 1730.29,736.269 1920,736.269Z" style="fill:rgb(255,213,33);"/>
    </g>
</svg>
