<svg id="Layer_3" enable-background="new 0 0 64 64" height="512" viewBox="0 0 64 64" width="512" xmlns="http://www.w3.org/2000/svg"><path d="m61.383 7.076c-.373-.154-.804-.069-1.09.217l-12.293 12.293v-16.586c0-.552-.447-1-1-1h-22c-12.683 0-23 10.318-23 23 0 10.883 7.661 20.214 18.114 22.472l-12.821 12.821c-.286.286-.372.716-.217 1.09.154.373.52.617.924.617h53c.553 0 1-.448 1-1v-53c0-.404-.243-.769-.617-.924zm-35.383-3.03c5.003.238 9.593 2.233 13.112 5.427l-13.112 13.113zm1 21.954v14.586l-3 3v-17.586zm2 0h3v9.586l-3 3zm5 0h3v4.586l-3 3zm5 0h2.586l-2.586 2.586zm4.586-2h-16.172l13.111-13.111c2.715 2.978 4.587 6.744 5.221 10.951zm-1.645-14.527 4.059-4.059v10.222c-1.019-2.28-2.397-4.354-4.059-6.163zm2.645-5.473-4.061 4.061c-1.828-1.673-3.924-3.044-6.209-4.061zm-20.586.051v19.949h-19.949c.511-10.78 9.169-19.438 19.949-19.949zm-7 21.949v18.412c-1.049-.433-2.047-.954-3-1.543v-16.869zm-10 0v9.798c-1.743-2.9-2.784-6.248-2.954-9.798zm2 12.57v-12.57h3v15.485c-1.098-.868-2.097-1.849-3-2.915zm10 6.543v-19.113h3v19.586l-.16.16c-.972-.146-1.919-.359-2.84-.633zm41-34.699v42.586h-6c-.553 0-1 .448-1 1v6h-42.586zm-5 49.586v-5h5v5z"/><path d="m13 14.414v6.586h2v-7h2v4c0 .155.036.309.105.447l1 2c.17.339.516.553.895.553h1v-2h-.382l-.618-1.236v-3.764h2v-2h-8c-.266 0-.52.105-.707.293l-2 2 1.414 1.414z"/></svg>