<?xml version="1.0" encoding="UTF-8" standalone="no"?><!DOCTYPE svg PUBLIC "-//W3C//DTD SVG 1.1//EN" "http://www.w3.org/Graphics/SVG/1.1/DTD/svg11.dtd"><svg width="100%" height="100%" viewBox="0 0 114 156" version="1.1" xmlns="http://www.w3.org/2000/svg" xmlns:xlink="http://www.w3.org/1999/xlink" xml:space="preserve" xmlns:serif="http://www.serif.com/" style="fill-rule:evenodd;clip-rule:evenodd;stroke-linejoin:round;stroke-miterlimit:2;"><path d="M32.616,101.304c1.44,-7.488 4.32,-13.644 8.64,-18.468c4.32,-4.824 10.224,-9.972 17.712,-15.444c6.336,-4.752 11.016,-8.82 14.04,-12.204c3.024,-3.384 4.536,-7.452 4.536,-12.204c0,-4.464 -1.836,-8.028 -5.508,-10.692c-3.672,-2.664 -8.82,-3.996 -15.444,-3.996c-6.912,0 -13.248,1.404 -19.008,4.212c-5.76,2.808 -10.728,6.876 -14.904,12.204l-22.68,-16.632c6.48,-8.784 15.228,-15.66 26.244,-20.628c11.016,-4.968 23.436,-7.452 37.26,-7.452c15.264,0 27.432,3.276 36.504,9.828c9.072,6.552 13.608,15.372 13.608,26.46c0,6.768 -1.26,12.6 -3.78,17.496c-2.52,4.896 -5.616,9 -9.288,12.312c-3.672,3.312 -8.388,7.056 -14.148,11.232c-6.336,4.608 -11.196,8.604 -14.58,11.988c-3.384,3.384 -5.58,7.38 -6.588,11.988l-32.616,0Zm8.424,54.216c-5.76,0 -10.512,-1.764 -14.256,-5.292c-3.744,-3.528 -5.616,-7.812 -5.616,-12.852c0,-6.048 2.088,-11.016 6.264,-14.904c4.176,-3.888 9.36,-5.832 15.552,-5.832c5.616,0 10.296,1.692 14.04,5.076c3.744,3.384 5.616,7.596 5.616,12.636c0,5.904 -2.088,10.908 -6.264,15.012c-4.176,4.104 -9.288,6.156 -15.336,6.156Z" style="fill-rule:nonzero;"/></svg>