<?xml version="1.0" encoding="UTF-8" standalone="no"?><!DOCTYPE svg PUBLIC "-//W3C//DTD SVG 1.1//EN" "http://www.w3.org/Graphics/SVG/1.1/DTD/svg11.dtd"><svg width="100%" height="100%" viewBox="0 0 595 524" version="1.1" xmlns="http://www.w3.org/2000/svg" xmlns:xlink="http://www.w3.org/1999/xlink" xml:space="preserve" xmlns:serif="http://www.serif.com/" style="fill-rule:evenodd;clip-rule:evenodd;stroke-linecap:round;stroke-linejoin:round;stroke-miterlimit:1.5;"><path d="M393.689,261.715l0,-207.852c0,-7.767 -4.346,-14.881 -11.256,-18.427c-6.91,-3.546 -15.224,-2.927 -21.533,1.602c-65.467,46.997 -208.639,149.777 -238.223,171.015c-3.52,2.527 -7.745,3.886 -12.078,3.886c-13.096,0 -42.666,0 -62.883,0c-11.438,0 -20.711,9.273 -20.711,20.711l0,58.129c0,11.438 9.273,20.711 20.711,20.711c20.217,0 49.787,0 62.883,0c4.333,0 8.558,1.359 12.078,3.886c29.584,21.238 172.756,124.018 238.223,171.015c6.309,4.529 14.623,5.148 21.533,1.602c6.91,-3.546 11.256,-10.66 11.256,-18.427c0,-70.313 0,-207.851 0,-207.851Z" style="fill:none;stroke:#000;stroke-width:35px;"/><path d="M103.758,211.939l0,99.551" style="fill:none;stroke:#000;stroke-width:27px;"/><path d="M469.731,103.958c101.272,105.171 104.309,210.342 0,315.513" style="fill:none;stroke:#000;stroke-width:35px;"/><path d="M443.731,155.314c68.304,70.934 70.353,141.868 0,212.801" style="fill:none;stroke:#000;stroke-width:35px;"/></svg>