<?xml version="1.0" encoding="UTF-8" standalone="no"?>
<!DOCTYPE svg PUBLIC "-//W3C//DTD SVG 1.1//EN" "http://www.w3.org/Graphics/SVG/1.1/DTD/svg11.dtd">
<svg width="100%" height="100%" viewBox="0 0 949 1216" version="1.1" xmlns="http://www.w3.org/2000/svg" xmlns:xlink="http://www.w3.org/1999/xlink" xml:space="preserve" xmlns:serif="http://www.serif.com/" style="fill-rule:evenodd;clip-rule:evenodd;stroke-linecap:round;stroke-linejoin:round;stroke-miterlimit:1.5;">
    <g transform="matrix(0.707107,-0.707107,0.707107,0.707107,-887.415,785.575)">
        <path d="M1206.13,1281.3L1206.13,1309.98C1206.13,1326.53 1192.69,1339.98 1176.13,1339.98L1078.43,1339.98C1078.43,1293.43 1040.64,1255.64 994.092,1255.64C947.543,1255.64 909.752,1293.43 909.751,1339.98L812.051,1339.98C795.493,1339.98 782.051,1326.54 782.051,1309.98L782.051,552.944C782.051,536.387 795.493,522.944 812.051,522.944L909.751,522.944" style="fill:none;stroke:black;stroke-width:50px;"/>
    </g>
    <g transform="matrix(0.837329,-0.546699,0.546699,0.837329,-837.965,256.116)">
        <path d="M909.751,1339.98L812.051,1339.98C795.493,1339.98 782.051,1326.54 782.051,1309.98L782.051,552.944C782.051,536.387 795.493,522.944 812.051,522.944L909.751,522.944C909.752,569.493 947.543,607.284 994.092,607.284C1040.64,607.284 1078.43,569.492 1078.43,522.944L1176.13,522.944C1192.69,522.944 1206.13,536.387 1206.13,552.944L1206.13,1309.98C1206.13,1326.53 1192.69,1339.98 1176.13,1339.98L1078.43,1339.98C1078.43,1293.43 1040.64,1255.64 994.092,1255.64C947.543,1255.64 909.752,1293.43 909.751,1339.98Z" style="fill:none;stroke:black;stroke-width:50px;"/>
        <g transform="matrix(1,0,0,1,57.4905,-6.33349)">
            <path d="M1000,724.092L973.704,724.092" style="fill:none;stroke:black;stroke-width:40px;"/>
        </g>
        <g transform="matrix(1,0,0,1,-125.438,-6.33349)">
            <path d="M1000,724.092L973.704,724.092" style="fill:none;stroke:black;stroke-width:40px;"/>
        </g>
        <g transform="matrix(1,0,0,1,-37.4478,-6.33349)">
            <path d="M1000,724.092L973.704,724.092" style="fill:none;stroke:black;stroke-width:40px;"/>
        </g>
        <g transform="matrix(1,0,0,1,144.326,-6.33349)">
            <path d="M1000,724.092L973.704,724.092" style="fill:none;stroke:black;stroke-width:40px;"/>
        </g>
    </g>
</svg>
