<?xml version="1.0" encoding="utf-8"?>
<!-- Generator: Adobe Illustrator 22.1.0, SVG Export Plug-In . SVG Version: 6.00 Build 0)  -->
<svg version="1.1" id="Layer_1" xmlns="http://www.w3.org/2000/svg" xmlns:xlink="http://www.w3.org/1999/xlink" x="0px" y="0px"
	 viewBox="0 0 1124 245" style="enable-background:new 0 0 1124 245;" xml:space="preserve">
<style type="text/css">
	.st0{fill:#E14036;}
	.st1{fill:#0194B8;}
</style>
<path class="st0" d="M198.7,135.4c-4.7,35.7-20.5,64.7-50.9,84.9c-7,4.7-14.9,7.3-23.3,8c-16.7,1.5-29-5.7-37.5-19.6
	c-9.4-15.3-12.2-32.3-11.7-50c0.1-5.5,0.9-10.9,2-16.4c2.4,0.6,0.3,2.8,1.4,3.9c0.8,12.2,4,23.7,10.6,34.1
	c6.1,9.6,14.5,16.1,25.7,18.7c2.2,0.5,2.7,1.4,2.3,3.3c-0.7,3.5-1.4,7-2.1,10.5c-0.5,2.1-0.3,3.4,2.5,3.2c3.8-0.3,8.5,1,11.2-0.8
	c2.7-1.7,2.1-6.8,2.5-10.4c0.4-3.8,2-5.4,5.9-6.4c20.6-5.1,35.4-18.2,47.4-35c6.3-8.9,11.1-18.7,13.5-29.4
	C199.2,133.8,198.9,134.6,198.7,135.4z"/>
<path class="st1" d="M75.6,244.6c-35.3-2.5-60.2-23.7-70.6-59.9c-8.1-28-5.2-55.5,3.9-82.6c11.3-33.6,30.4-61.9,59.5-82.7
	C83.8,8.3,101.1,1,120.4,0.2c33.6-1.3,57.9,14,73.3,43.5c7.2,13.7,10.4,28.5,11.1,43.9c0,1.1,1.2,2.5-0.8,3.1
	c-1.7-13.3-5.5-26-12.2-37.7c-14.8-25.9-40.3-36.2-69.4-27.9c-23.5,6.7-41.5,21.3-56,40.3c-24.5,32-34.9,68.4-32.1,108.5
	c1.2,17.4,5.9,33.8,17,47.7c9,11.3,20.5,19.1,34.8,22.2c0.3,1-0.5,1-1.1,1C81.9,244.7,78.7,245.1,75.6,244.6z M728.5,140
	c0.4,0.9,0.7,1.9,1.1,2.9c6.2,16.5,13.1,32.8,23.1,47.5c3.4,5,7.3,9.6,12.2,13.2c6.1,4.4,12.2,4.7,18.6,0.6
	c5.8-3.7,10.2-8.8,14.6-14.1c1.2-1.5,0.8-2-0.9-2.6c-6.6-2.6-11.8-7.2-16.4-12.4c-11.1-12.5-18.6-27.2-25.1-42.4
	c-0.7-1.6-0.1-2.6,0.8-3.8c6.1-7.9,12.7-15.4,20.5-21.8c7.5-6.1,15.3-11.7,25.6-11.8c1.9,0,1.6-1.2,1.6-2.3c-0.3-4.6-1-9.2-2.8-13.4
	c-2.9-6.5-7.4-8.7-14.3-6.9c-5.6,1.5-10.3,4.5-14.7,8c-13.7,11-24.5,24.6-34.7,38.8c-2.6,3.6-5,7.3-7.5,11c-0.8-0.7-0.5-1.4-0.4-1.9
	c3.9-19.5,7.9-39.1,11.8-58.6c1.3-6.6,3.3-13.2,2.8-20.1c-0.5-8-4.5-12.3-12.5-12.6c-8-0.3-15.3,2.6-22.5,5.6
	c-1.4,0.6-1.2,1.3-0.8,2.4c2.1,6,1.8,12.1,0.6,18.2c-7.1,36.4-14.4,72.7-21.4,109.1c-1.4,7.4-4.1,14.6-3.5,22.3
	c0.4,6.5,3.4,10.3,9.8,11.4c7.8,1.3,15.5,0,23.1-2.1c0.9-0.3,2-0.6,1.6-2.1c-1.7-7.1-0.3-14,0.9-20.9c2.4-13.9,5.2-27.7,7.9-41.7
	C728.1,139.8,728.5,139.9,728.5,140z M1059.6,78.2c-19.7,11.3-32.4,45.4-5.7,66c4,3.1,8,6.4,11.9,9.7c4.3,3.6,8.4,7.5,10.6,12.9
	c3.5,8.4,1.1,17.7-5.4,21.6c-8.1,4.8-20.8,2.9-27.1-4.1c-3.6-4-5.9-8.6-7.7-13.6c-0.6-1.6-1.2-2.2-3-1.2c-7.3,4-12.5,9.8-14.5,18
	c-2.5,10.1,0.2,15.1,10.3,17.8c22.7,6.1,44.1,2.6,63.9-10.3c21.9-14.3,26.9-52.8-0.3-69.6c-4.6-2.8-8.9-6-13.2-9.3
	c-3.2-2.4-5.8-5.4-7.2-9.3c-3-8.1-0.6-17.1,5.9-19.8c7.5-3,15-3.1,21.6,2.7c3.3,2.9,6.2,6.1,8.8,9.6c1.1,1.5,2,1.6,3.3,0.2
	c3.5-3.4,7-6.8,9.5-11c4.8-7.9,2.8-13.3-5.9-16.3c-6.6-2.3-13.5-2.6-18.8-2.5C1082.4,69.7,1070.6,71.9,1059.6,78.2z M975.4,119.3
	c-0.3-0.3-0.1-0.6,0-0.9c0.9-4.2,1.9-8.5,2.8-12.7c1.6-7.5,3.5-15,3.3-22.7c-0.1-6.7-3.2-10.6-9.2-11.3c-8.6-1-17.1,0-25.3,3.1
	c-1.6,0.6-2.4,1.2-1.9,3.3c1.5,6,1.3,12.2,0.7,18.3c-1.9,20.1-6.8,39.5-11.5,59c-2.7,11.3-5.7,22.5-7.8,34
	c-1.8,10.1,1.4,15.1,11.5,16.9c7.3,1.3,14.5,0.5,21.7-1.4c2-0.5,2.6-1.3,1.7-3.4c-1.2-2.8-1-5.9-0.5-8.7c4.5-26,14.2-49.8,30.6-70.6
	c3-3.8,6.7-7.1,11.4-8.9c4.8-1.9,8.1-1,10.9,3.3c1.4,2.2,2,1.5,3.1,0c6-8,11-16.6,14.3-26.1c1.2-3.5,2-7.1,1.7-10.9
	c-0.5-6.9-3.4-9.6-10.3-9.4c-4.1,0.1-7.7,1.8-11,3.9c-5.3,3.4-9.7,7.9-13.8,12.7c-8.5,10-15.5,21-21.8,32.4
	C976,119.3,975.7,119.6,975.4,119.3z M615.9,118.9c2.4-9.7,5.9-18.9,13.7-25.6c9.1-7.7,23.3-10.2,32.9,3.7c1.2,1.7,2.3,3.4,3.2,5.2
	c0.9,1.8,1.7,1.8,3.1,0.6c3.9-3.1,7.8-6.3,11-10.1c9.1-10.8,6.2-19.7-7.7-22c-27.6-4.5-51.6,3.2-71,23.2
	c-21.8,22.6-28.9,50.8-27.3,81.2c1,18.9,12.1,29.7,30.8,32.5c11.3,1.7,22.2-0.4,33-3c8-1.9,15.7-4.6,22.3-9.8
	c5.3-4.3,8.1-9.7,6.8-16.8c-0.5-2.7-1.2-3.4-3.9-1.9c-8,4.6-16.4,8.4-25.5,10.2c-13.3,2.7-20.6-2-23.3-15.3c-1.4-6.9-1.6-14-1.5-21
	C612.6,139.6,613.4,129.1,615.9,118.9z M402.1,41.9c-1.7,0.5-2.2,1.1-1.5,2.9c2.4,6.6,2.3,13.3,1,20.1c-6.5,35-13.1,70.1-19.7,105.1
	c-1.4,7.5-3,15-2,22.8c1.1,8.5,5.5,13.6,13.4,14.3c9.2,0.8,17.7-1.9,25.7-6.3c1.4-0.8,1.3-1.4,0.5-2.7c-6-8.4-6.3-18.1-4.6-27.6
	c5.3-30.3,11.3-60.5,17.8-90.6c2-9.4,4.8-18.6,6.1-28.1c1-7.5-2.2-12.6-8.8-13.9c-2-0.4-4.1-0.4-6.1-0.5
	C416.3,37.7,409.2,39.8,402.1,41.9z M553.3,142.4c-2.4,15.6-3.7,31.3-0.5,47c0.6,3,1.5,5.9,2.9,8.7c0.6,1.1,0.9,2-0.6,2.8
	c-7.9,4-15.9,7.1-25,5.4c-6.8-1.2-10.9-5.2-12.6-11.8c-2.4-9.4-1.6-18.8-0.4-28.2c0.4-2.9,0.9-5.8,1.3-8.7
	c-5.1,7.1-9.5,14.5-14.5,21.4c-5.5,7.6-11.4,14.8-18.7,20.7c-5.5,4.4-11.4,7.8-18.5,8.6c-14.3,1.6-25.1-6.6-26.5-21.9
	c-3.2-35.6,4.6-68.2,28.4-95.8c7.5-8.7,16.6-15.7,27.8-19.1c12.3-3.8,24.3-2.4,35.6,3.9c1.8,1,2.9,0.8,4.4-0.1
	c10.6-6.2,21.2-5.5,31.9-0.2c2.4,1.2,2.6,2.4,1.7,4.8C562.7,100.2,556.6,120.9,553.3,142.4z M527.5,104.2
	c-3.3-5.2-7.2-9.6-12.8-12.3c-7.1-3.5-13.2-2.4-18.9,3.2c-3.1,3.1-5.5,6.7-7.5,10.6c-9,17.8-12.7,36.8-13.8,56.5
	c0,4.3,0.3,8.5,1.6,12.5c1.6,5.1,4.5,5.9,8.5,2.5c4.3-3.7,7.8-8.1,11.1-12.7c12.5-17.4,23.3-35.7,31.4-55.6
	C527.7,107.4,528.6,106,527.5,104.2z M376.5,78.4c-2.7,19.3-14.8,32.1-30.9,41.7c-15.3,9.2-32.1,14.4-49.6,17.5
	c-2.6,0.4-3.8,1.4-4.4,3.8c-4.2,16.1-6.9,32.5-8.1,49.1c-0.2,2.5-0.1,5.2,0.9,7.6c0.9,2.2,0,3.2-2,4.1c-8.9,3.8-18.2,5.3-27.7,4.7
	c-5.4-0.4-8.6-4-9.1-9.6c-0.3-3.8,0.6-7.4,1.7-10.9c10.8-33.8,17.5-68.6,22.2-103.7c1-7.6,2.1-15.2,1.6-22.9
	c-0.2-2.8-0.5-5.7-1.7-8.2c-1.2-2.5-0.3-3.6,1.9-4.8c9.9-5,20.6-7.6,31.4-9.6c8.3-1.6,16.7-2.5,25.2-2.4c8-0.1,15.8,0.7,23.5,2.9
	C372.4,43.7,379.2,58.7,376.5,78.4z M341.7,76.6c0.3-15.2-5.8-22.6-18.2-24.1c-3.9-0.5-7.9-0.2-11.8,0.2c-2.5,0.3-3.4,1.5-3.8,3.7
	c-3.7,20.2-7.5,40.4-11.4,60.6c-0.5,2.3,0.1,3,2.3,2.8c6.3-0.4,12.5-1.4,18.2-4.1C334.4,107.4,340.3,92.1,341.7,76.6z M909.1,171.8
	c2.3,6.7,0.9,12.6-3.7,17.9c-3.2,3.6-7.1,6.3-11.4,8.4c-13.1,6.4-26.9,9.6-41.4,9.8c-6.7-0.1-13.3-0.6-19.7-2.5
	c-14.2-4.2-22.8-13.7-24.7-28.3c-4.7-36.3,13.9-81.8,52.8-100.6c11.7-5.7,24.2-7.5,37-6.3c12.6,1.1,20.2,9.4,20.5,22.5
	c0.5,17.4-6.3,31.4-20.4,41.6c-13.4,9.7-28.8,14.2-44.9,16.4c-7.4,1-7.4,0.8-7.7,8.2c-0.2,5-0.2,10,0.9,14.9
	c2.2,9.9,8.6,15.2,18.7,15.3c10.2,0,19.3-3.5,27.9-8.6c4.6-2.7,9-5.9,12.9-9.6C907.7,169.3,908.4,169.8,909.1,171.8z M851.1,133.7
	c6-0.5,11.9-1.3,17.6-3.6c12-4.8,18.2-14.1,18.2-27.8c-0.2-1.5-0.3-3.8-0.7-6.1c-1.3-7.3-5.5-9.9-12.7-8c-5.7,1.5-9.4,5.4-12.6,10.1
	c-6.7,9.9-9.8,21.2-12.2,32.8C848.3,133.2,849.1,133.8,851.1,133.7z"/>
</svg>
