<?xml version="1.0" encoding="UTF-8" standalone="no"?>
<!DOCTYPE svg PUBLIC "-//W3C//DTD SVG 1.1//EN" "http://www.w3.org/Graphics/SVG/1.1/DTD/svg11.dtd">
<svg width="100%" height="100%" viewBox="0 0 2561 1688" version="1.1" xmlns="http://www.w3.org/2000/svg" xmlns:xlink="http://www.w3.org/1999/xlink" xml:space="preserve" xmlns:serif="http://www.serif.com/" style="fill-rule:evenodd;clip-rule:evenodd;stroke-linecap:round;stroke-linejoin:round;stroke-miterlimit:1.5;">
    <g id="Color-areas" serif:id="Color areas" transform="matrix(1,0,0,1,62.822,-186.767)">
        <g transform="matrix(1,0,0,1,15,-35)">
            <path d="M1115.72,316.42L850.534,1419.35L2288.46,1419.35L2030.34,316.42L1115.72,316.42Z" style="fill:rgb(255,239,200);"/>
        </g>
        <g transform="matrix(1,0,0,1,15,-35)">
            <path d="M299.916,856.669L563.912,958.449L623.882,979.823L691.251,991.549L945.684,1051.13L822.044,1594.65L513.318,1529.92L399.018,1487.49L363.702,1472.94L431.431,1317.06L155.91,1203.95L299.916,856.669Z" style="fill:rgb(255,239,200);"/>
        </g>
        <g transform="matrix(1,0,0,1,15,-35)">
            <path d="M155.91,1597.75L185.944,1499.28L217.784,1419.28L400.524,1488.39L511.745,1529.4L820.997,1595.23L767.215,1826.77L155.91,1597.75Z" style="fill:rgb(255,239,200);"/>
        </g>
    </g>
    <g id="Grey-areas" serif:id="Grey areas" transform="matrix(1,0,0,1,62.822,-186.767)">
        <g transform="matrix(1,0,0,1,15,-35)">
            <path d="M2187.8,985.513C2187.8,985.513 2164.17,987.893 2147.3,989.592C2143.06,990.019 2139.2,992.229 2136.68,995.67C2134.17,999.111 2133.24,1003.46 2134.12,1007.63C2141.51,1042.45 2158.68,1123.48 2165.76,1156.89C2166.59,1160.81 2168.95,1164.23 2172.32,1166.4C2175.68,1168.57 2179.78,1169.3 2183.69,1168.43C2201.17,1164.54 2227.92,1158.59 2227.92,1158.59" style="fill:rgb(215,215,215);"/>
        </g>
        <g transform="matrix(0.895211,0.445642,-0.65865,1.3231,-371.997,-1161.32)">
            <path d="M2187.8,985.513C2187.8,985.513 2145.39,999.536 2125.28,1006.19C2119.17,1008.21 2115.83,1012.75 2117.14,1017.27C2124.55,1042.71 2148.31,1124.33 2155.83,1150.17C2157.18,1154.82 2163.09,1158.21 2170.08,1158.36C2194.86,1158.89 2249.59,1160.06 2249.59,1160.06" style="fill:rgb(215,215,215);"/>
        </g>
        <g transform="matrix(1,0,0,1,15,-35)">
            <path d="M2057.99,426.144L1820.02,426.144C1811.74,426.144 1805.02,432.86 1805.02,441.144L1805.02,773.467C1805.02,781.751 1811.74,788.467 1820.02,788.467L2141.84,788.467" style="fill:rgb(215,215,215);"/>
        </g>
    </g>
    <g id="Walls" transform="matrix(1,0,0,1,62.822,-186.767)">
        <g transform="matrix(1,0,0,1,15,-35)">
            <path d="M299.953,856.767L153.178,1207.41" style="fill:none;stroke:black;stroke-width:16px;"/>
        </g>
        <g transform="matrix(1,0,0,1,15,-35)">
            <path d="M153.178,1207.41L429.306,1316.74" style="fill:none;stroke:black;stroke-width:16px;"/>
        </g>
        <g transform="matrix(1,0,0,1,15,-35)">
            <path d="M429.306,1316.74L363.702,1472.94L216.027,1419.35L185.944,1499.28" style="fill:none;stroke:black;stroke-width:16px;"/>
        </g>
        <g transform="matrix(1,0,0,1,15,-35)">
            <path d="M363.702,1472.94L399.018,1487.49" style="fill:none;stroke:black;stroke-width:16px;"/>
        </g>
        <g transform="matrix(1,0,0,1,15,-35)">
            <path d="M513.318,1529.92L822.044,1594.65" style="fill:none;stroke:black;stroke-width:16px;"/>
        </g>
        <g transform="matrix(1,0,0,1,161.739,-385.738)">
            <path d="M153.178,1207.41L417.173,1309.19" style="fill:none;stroke:black;stroke-width:16px;"/>
        </g>
        <g transform="matrix(1,0,0,1,518.007,-249.63)">
            <path d="M188.245,1206.18L442.678,1265.76" style="fill:none;stroke:black;stroke-width:16px;"/>
        </g>
        <g transform="matrix(1,0,0,1,15,-35)">
            <path d="M1057.99,1190.9L1888.38,1190.9" style="fill:none;stroke:black;stroke-width:16px;"/>
        </g>
        <g transform="matrix(1,0,0,1,16,-35)">
            <path d="M2263.55,1322.05L2285.99,1419.35L861.421,1419.35L920.612,1162.63" style="fill:none;stroke:black;stroke-width:16px;"/>
        </g>
        <g transform="matrix(1,0,0,1,16,-35)">
            <path d="M946.195,1051.67L1115.72,316.42L1226.5,316.42" style="fill:none;stroke:black;stroke-width:16px;"/>
        </g>
        <g transform="matrix(1,0,0,1,16,-35)">
            <path d="M1311.8,316.42L2031.69,316.42L2144.5,805.696" style="fill:none;stroke:black;stroke-width:16px;"/>
        </g>
        <g transform="matrix(1,0,0,1,16,-35)">
            <path d="M2167.9,907.183L2237.94,1210.97" style="fill:none;stroke:black;stroke-width:16px;"/>
        </g>
        <g transform="matrix(-1,0,0,1,3162.41,-35)">
            <path d="M2031.69,316.42L2201.21,1051.67" style="fill:none;stroke:black;stroke-width:1px;"/>
        </g>
        <g transform="matrix(-1,0,0,1,3162.41,-35)">
            <path d="M2226.8,1162.63L2285.99,1419.35" style="fill:none;stroke:black;stroke-width:1px;"/>
        </g>
        <g transform="matrix(1,0,0,1,-39.3853,205.391)">
            <path d="M921.965,1156.76L822.91,1586.38L210.295,1357.36" style="fill:none;stroke:black;stroke-width:16px;"/>
        </g>
        <g transform="matrix(1,0,0,1,15,-35)">
            <path d="M970.13,958.517L1175.52,958.517" style="fill:none;stroke:black;stroke-width:16px;"/>
        </g>
        <g transform="matrix(1,0,0,1,15,-35)">
            <path d="M1327.74,958.517L1823.72,958.517" style="fill:none;stroke:black;stroke-width:16px;"/>
        </g>
        <g transform="matrix(1,0,0,1,15,-35)">
            <path d="M1954.93,958.517L2180.69,958.517" style="fill:none;stroke:black;stroke-width:16px;"/>
        </g>
    </g>
</svg>
